<?xml version="1.0" standalone="no"?>
<!DOCTYPE svg PUBLIC "-//W3C//DTD SVG 20010904//EN"
 "http://www.w3.org/TR/2001/REC-SVG-20010904/DTD/svg10.dtd">
<svg version="1.0" xmlns="http://www.w3.org/2000/svg"
 width="700.000000pt" height="700.000000pt" viewBox="0 0 700.000000 700.000000"
 preserveAspectRatio="xMidYMid meet">
<metadata>
Created by potrace 1.11, written by Peter Selinger 2001-2013
</metadata>
<g transform="translate(0.000000,700.000000) scale(0.100000,-0.100000)"
fill="#000000" stroke="none">
<path d="M3160 6939 c-444 -50 -806 -154 -1185 -339 -1057 -516 -1786 -1560
-1910 -2733 -20 -191 -20 -543 0 -734 135 -1282 977 -2381 2190 -2856 396
-155 792 -227 1245 -227 561 0 1052 115 1540 359 1035 519 1720 1478 1887
2643 25 177 25 719 0 896 -87 606 -303 1141 -648 1603 -590 790 -1428 1272
-2409 1384 -147 16 -577 19 -710 4z m894 -3758 c-10 -10 -909 902 -953 967
-85 126 -140 262 -161 396 -20 119 -8 321 24 429 27 92 78 201 129 277 16 25
240 255 496 513 l466 467 3 -1521 c1 -837 0 -1525 -4 -1528z m-149 -336 c58
-88 101 -180 131 -281 26 -82 28 -103 28 -264 1 -154 -2 -185 -22 -255 -27
-95 -96 -241 -143 -307 -39 -53 -937 -968 -950 -968 -5 0 -9 656 -9 1533 l0
1532 463 -465 c289 -290 478 -488 502 -525z"/>
</g>
</svg>
