<?xml version="1.0" encoding="UTF-8" standalone="no"?>
<svg
   xmlns:dc="http://purl.org/dc/elements/1.1/"
   xmlns:cc="http://creativecommons.org/ns#"
   xmlns:rdf="http://www.w3.org/1999/02/22-rdf-syntax-ns#"
   xmlns:svg="http://www.w3.org/2000/svg"
   xmlns="http://www.w3.org/2000/svg"
   id="svg227"
   version="1.1"
   viewBox="0 0 264.58333 264.58334"
   height="1000"
   width="1000">
  <defs
     id="defs221" />
  <metadata
     id="metadata224">
    <rdf:RDF>
      <cc:Work
         rdf:about="">
        <dc:format>image/svg+xml</dc:format>
        <dc:type
           rdf:resource="http://purl.org/dc/dcmitype/StillImage" />
        <dc:title></dc:title>
      </cc:Work>
    </rdf:RDF>
  </metadata>
  <g
     transform="translate(0,-32.41665)"
     id="layer1">
    <g
       transform="matrix(0.97716674,0,0,0.97716674,32.787079,20.743227)"
       id="g295">
      <path
         style="color:#000000;font-style:normal;font-variant:normal;font-weight:normal;font-stretch:normal;font-size:medium;line-height:normal;font-family:sans-serif;font-variant-ligatures:normal;font-variant-position:normal;font-variant-caps:normal;font-variant-numeric:normal;font-variant-alternates:normal;font-feature-settings:normal;text-indent:0;text-align:start;text-decoration:none;text-decoration-line:none;text-decoration-style:solid;text-decoration-color:#000000;letter-spacing:normal;word-spacing:normal;text-transform:none;writing-mode:lr-tb;direction:ltr;text-orientation:mixed;dominant-baseline:auto;baseline-shift:baseline;text-anchor:start;white-space:normal;shape-padding:0;clip-rule:nonzero;display:inline;overflow:visible;visibility:visible;opacity:1;isolation:auto;mix-blend-mode:normal;color-interpolation:sRGB;color-interpolation-filters:linearRGB;solid-color:#000000;solid-opacity:1;vector-effect:none;fill:#000000;fill-opacity:1;fill-rule:nonzero;stroke:none;stroke-width:5.2447505;stroke-linecap:butt;stroke-linejoin:round;stroke-miterlimit:10;stroke-dasharray:none;stroke-dashoffset:0;stroke-opacity:1;color-rendering:auto;image-rendering:auto;shape-rendering:auto;text-rendering:auto;enable-background:accumulate"
         d="m 101.82969,14.899025 c -12.674785,0 -19.734031,6.72434 -22.996957,13.250164 -3.262925,6.525813 -3.226842,12.973588 -3.226842,12.973588 0,46.984222 -5.936478,70.256703 -11.52413,81.431923 -2.793684,5.58761 -5.456669,8.13991 -7.221693,9.3166 -0.882117,0.58835 -1.549649,0.83563 -1.941209,0.94753 -0.391515,0.11196 -0.291263,0.0873 -0.291263,0.0873 a 2.6226376,2.6226376 0 0 0 -2.622441,2.62238 V 253.5354 c 0,0 0.01912,1.97312 0.871217,4.51746 0.848401,2.54435 2.538708,5.87811 5.797927,9.13732 6.518511,6.51846 19.118101,12.56898 43.156571,12.56898 24.03845,0 36.63804,-6.05052 43.15646,-12.56898 3.25922,-3.25921 4.9498,-6.59297 5.79791,-9.13732 0.84841,-2.54434 0.87122,-4.51746 0.87122,-4.51746 V 135.52836 a 2.6226376,2.6226376 0 0 0 -2.62234,-2.62237 c -2.07614,0 -3.88575,-0.95138 -5.81845,-3.16016 -1.93274,-2.20882 -3.78058,-5.64438 -5.37274,-9.89026 -3.18442,-8.49174 -5.39643,-20.163829 -6.85816,-31.857761 -2.92355,-23.387869 -2.92971,-46.874957 -2.92971,-46.874957 0,0 0.0395,-6.447775 -3.22672,-12.973588 -3.26291,-6.525824 -10.32216,-13.250165 -22.99699,-13.250165 z m 0,5.244744 c 10.92657,0 15.66798,5.07634 18.30537,10.351217 2.63752,5.274863 2.67358,10.627791 2.67358,10.627791 0,0 -0.006,23.710539 2.97071,47.525435 1.48841,11.907438 3.70172,23.841848 7.15524,33.051158 1.72671,4.60464 3.75094,8.5445 6.3356,11.49849 1.95095,2.22962 4.44077,3.58953 7.13982,4.28184 v 116.05547 c 0,0 0.0191,0.97708 -0.60459,2.85799 -0.62738,1.88092 -1.8865,4.44748 -4.52758,7.08863 -5.28224,5.28223 -16.28405,11.03239 -39.44834,11.03239 -23.164386,0 -34.166062,-5.75016 -39.448296,-11.03239 -2.641176,-2.64115 -3.900712,-5.20771 -4.527708,-7.08863 -0.627384,-1.88091 -0.604604,-2.85799 -0.604604,-2.85799 V 137.43873 c 0.766155,-0.28702 1.536077,-0.5477 2.519969,-1.20362 2.660205,-1.77348 5.89763,-5.12153 9.004161,-11.33461 6.213108,-12.42617 12.077241,-36.356441 12.077241,-83.777723 0,0 0.03976,-5.352928 2.673597,-10.627791 2.63741,-5.274877 7.378895,-10.351217 18.30546,-10.351217 z"
         id="path182" />
      <path
         style="fill:none;stroke:#000000;stroke-width:5.2447505;stroke-linejoin:round;stroke-miterlimit:10"
         class="st11"
         d="M 149.03246,135.52727"
         id="path184" />
      <path
         style="color:#000000;font-style:normal;font-variant:normal;font-weight:normal;font-stretch:normal;font-size:medium;line-height:normal;font-family:sans-serif;font-variant-ligatures:normal;font-variant-position:normal;font-variant-caps:normal;font-variant-numeric:normal;font-variant-alternates:normal;font-feature-settings:normal;text-indent:0;text-align:start;text-decoration:none;text-decoration-line:none;text-decoration-style:solid;text-decoration-color:#000000;letter-spacing:normal;word-spacing:normal;text-transform:none;writing-mode:lr-tb;direction:ltr;text-orientation:mixed;dominant-baseline:auto;baseline-shift:baseline;text-anchor:start;white-space:normal;shape-padding:0;clip-rule:nonzero;display:inline;overflow:visible;visibility:visible;opacity:1;isolation:auto;mix-blend-mode:normal;color-interpolation:sRGB;color-interpolation-filters:linearRGB;solid-color:#000000;solid-opacity:1;vector-effect:none;fill:#000000;fill-opacity:1;fill-rule:nonzero;stroke:none;stroke-width:5.2447505;stroke-linecap:butt;stroke-linejoin:round;stroke-miterlimit:10;stroke-dasharray:none;stroke-dashoffset:0;stroke-opacity:1;color-rendering:auto;image-rendering:auto;shape-rendering:auto;text-rendering:auto;enable-background:accumulate"
         d="m 150.88659,62.870048 -3.70825,3.708209 c 17.08289,17.082931 16.84471,33.381639 12.64063,45.994013 -4.20408,12.61237 -12.64063,21.10192 -12.64063,21.10192 l 3.70825,3.70821 c 0,0 9.26444,-9.21147 13.91084,-23.15067 4.64636,-13.93918 4.40828,-33.042545 -13.91084,-51.361682 z"
         id="path186" />
      <path
         style="color:#000000;font-style:normal;font-variant:normal;font-weight:normal;font-stretch:normal;font-size:medium;line-height:normal;font-family:sans-serif;font-variant-ligatures:normal;font-variant-position:normal;font-variant-caps:normal;font-variant-numeric:normal;font-variant-alternates:normal;font-feature-settings:normal;text-indent:0;text-align:start;text-decoration:none;text-decoration-line:none;text-decoration-style:solid;text-decoration-color:#000000;letter-spacing:normal;word-spacing:normal;text-transform:none;writing-mode:lr-tb;direction:ltr;text-orientation:mixed;dominant-baseline:auto;baseline-shift:baseline;text-anchor:start;white-space:normal;shape-padding:0;clip-rule:nonzero;display:inline;overflow:visible;visibility:visible;opacity:1;isolation:auto;mix-blend-mode:normal;color-interpolation:sRGB;color-interpolation-filters:linearRGB;solid-color:#000000;solid-opacity:1;vector-effect:none;fill:#000000;fill-opacity:1;fill-rule:nonzero;stroke:none;stroke-width:5.2447505;stroke-linecap:butt;stroke-linejoin:round;stroke-miterlimit:10;stroke-dasharray:none;stroke-dashoffset:0;stroke-opacity:1;color-rendering:auto;image-rendering:auto;shape-rendering:auto;text-rendering:auto;enable-background:accumulate"
         d="M 52.772839,62.870048 C 34.45371,81.189185 34.215542,100.29255 38.861988,114.23173 c 4.64632,13.9392 13.910851,23.15067 13.910851,23.15067 l 3.708209,-3.70821 c 0,0 -8.436614,-8.48955 -12.640696,-21.10192 C 39.636237,99.959896 39.398071,83.661188 56.481048,66.578257 Z"
         id="path188" />
      <path
         style="color:#000000;font-style:normal;font-variant:normal;font-weight:normal;font-stretch:normal;font-size:medium;line-height:normal;font-family:sans-serif;font-variant-ligatures:normal;font-variant-position:normal;font-variant-caps:normal;font-variant-numeric:normal;font-variant-alternates:normal;font-feature-settings:normal;text-indent:0;text-align:start;text-decoration:none;text-decoration-line:none;text-decoration-style:solid;text-decoration-color:#000000;letter-spacing:normal;word-spacing:normal;text-transform:none;writing-mode:lr-tb;direction:ltr;text-orientation:mixed;dominant-baseline:auto;baseline-shift:baseline;text-anchor:start;white-space:normal;shape-padding:0;clip-rule:nonzero;display:inline;overflow:visible;visibility:visible;opacity:1;isolation:auto;mix-blend-mode:normal;color-interpolation:sRGB;color-interpolation-filters:linearRGB;solid-color:#000000;solid-opacity:1;vector-effect:none;fill:#000000;fill-opacity:1;fill-rule:nonzero;stroke:none;stroke-width:5.2447505;stroke-linecap:butt;stroke-linejoin:round;stroke-miterlimit:10;stroke-dasharray:none;stroke-dashoffset:0;stroke-opacity:1;color-rendering:auto;image-rendering:auto;shape-rendering:auto;text-rendering:auto;enable-background:accumulate"
         d="m 78.228324,132.90591 a 2.6226376,2.6226376 0 0 0 -2.622433,2.62238 c 0,0 -0.01913,12.03673 3.027012,24.23649 1.52497,6.09989 3.797636,12.29042 7.45224,17.16323 3.65462,4.87283 8.970067,8.42541 15.744547,8.42541 6.77442,0 12.08987,-3.55258 15.74449,-8.42541 3.65458,-4.87281 5.92727,-11.06334 7.45221,-17.16323 3.05003,-12.19976 3.02706,-24.23649 3.02706,-24.23649 a 2.6226376,2.6226376 0 0 0 -2.62236,-2.62238 z m 2.755553,5.24476 h 41.691663 c -0.0794,3.12476 -0.40836,11.01673 -2.74019,20.34389 -1.42527,5.70082 -3.57779,11.31095 -6.56111,15.28866 -2.9832,3.9777 -6.51829,6.32546 -11.54455,6.32546 -5.026212,0 -8.561313,-2.34776 -11.544604,-6.32546 -2.98332,-3.97771 -5.135869,-9.58784 -6.561111,-15.28866 -2.331737,-9.32716 -2.657723,-17.21913 -2.740098,-20.34389 z"
         id="path190" />
      <path
         style="color:#000000;font-style:normal;font-variant:normal;font-weight:normal;font-stretch:normal;font-size:medium;line-height:normal;font-family:sans-serif;font-variant-ligatures:normal;font-variant-position:normal;font-variant-caps:normal;font-variant-numeric:normal;font-variant-alternates:normal;font-feature-settings:normal;text-indent:0;text-align:start;text-decoration:none;text-decoration-line:none;text-decoration-style:solid;text-decoration-color:#000000;letter-spacing:normal;word-spacing:normal;text-transform:none;writing-mode:lr-tb;direction:ltr;text-orientation:mixed;dominant-baseline:auto;baseline-shift:baseline;text-anchor:start;white-space:normal;shape-padding:0;clip-rule:nonzero;display:inline;overflow:visible;visibility:visible;opacity:1;isolation:auto;mix-blend-mode:normal;color-interpolation:sRGB;color-interpolation-filters:linearRGB;solid-color:#000000;solid-opacity:1;vector-effect:none;fill:#000000;fill-opacity:1;fill-rule:nonzero;stroke:none;stroke-width:5.2447505;stroke-linecap:butt;stroke-linejoin:round;stroke-miterlimit:10;stroke-dasharray:none;stroke-dashoffset:0;stroke-opacity:1;color-rendering:auto;image-rendering:auto;shape-rendering:auto;text-rendering:auto;enable-background:accumulate"
         d="m 78.228324,38.500401 v 5.244748 h 47.202766 v -5.244748 z"
         id="line192" />
    </g>
  </g>
</svg>
