<?xml version="1.0" encoding="UTF-8" standalone="no"?>
<svg
   xmlns:dc="http://purl.org/dc/elements/1.1/"
   xmlns:cc="http://creativecommons.org/ns#"
   xmlns:rdf="http://www.w3.org/1999/02/22-rdf-syntax-ns#"
   xmlns:svg="http://www.w3.org/2000/svg"
   xmlns="http://www.w3.org/2000/svg"
   xmlns:xlink="http://www.w3.org/1999/xlink"
   xmlns:sodipodi="http://sodipodi.sourceforge.net/DTD/sodipodi-0.dtd"
   xmlns:inkscape="http://www.inkscape.org/namespaces/inkscape"
   version="1.1"
   id="svg4730"
   viewBox="0 0 360 640"
   height="640"
   width="360"
   sodipodi:docname="Facebook_icon_2013.svg"
   inkscape:version="0.92.4 5da689c313, 2019-01-14">
  <sodipodi:namedview
     pagecolor="#ffffff"
     bordercolor="#666666"
     borderopacity="1"
     objecttolerance="10"
     gridtolerance="10"
     guidetolerance="10"
     inkscape:pageopacity="0"
     inkscape:pageshadow="2"
     inkscape:window-width="1366"
     inkscape:window-height="718"
     id="namedview14"
     showgrid="true"
     inkscape:snap-page="true"
     inkscape:snap-bbox="true"
     inkscape:bbox-nodes="true"
     inkscape:bbox-paths="false"
     inkscape:snap-bbox-edge-midpoints="true"
     showguides="true"
     inkscape:guide-bbox="true"
     inkscape:zoom="0.70710678"
     inkscape:cx="52.494334"
     inkscape:cy="280.12656"
     inkscape:window-x="0"
     inkscape:window-y="25"
     inkscape:window-maximized="1"
     inkscape:current-layer="layer2">
    <inkscape:grid
       type="xygrid"
       id="grid838"
       empspacing="3"
       dotted="false"
       spacingx="10"
       spacingy="10"
       color="#646464"
       opacity="0.1254902"
       empcolor="#a0a0a0"
       empopacity="0.25098039" />
  </sodipodi:namedview>
  <defs
     id="defs4732">
    <linearGradient
       inkscape:collect="always"
       id="linearGradient1528">
      <stop
         style="stop-color:#6d6e6d;stop-opacity:0.44313726"
         offset="0"
         id="stop1524" />
      <stop
         style="stop-color:#f73859;stop-opacity:1"
         offset="1"
         id="stop1526" />
    </linearGradient>
    <clipPath
       clipPathUnits="userSpaceOnUse"
       id="clipPath4674">
      <path
         d="M 0,500 H 1024 V 0 H 0 Z"
         id="path4676"
         inkscape:connector-curvature="0" />
    </clipPath>
    <linearGradient
       inkscape:collect="always"
       xlink:href="#linearGradient1528"
       id="linearGradient1532"
       gradientUnits="userSpaceOnUse"
       x1="-210"
       y1="24"
       x2="540"
       y2="-816" />
  </defs>
  <metadata
     id="metadata4735">
    <rdf:RDF>
      <cc:Work
         rdf:about="">
        <dc:format>image/svg+xml</dc:format>
        <dc:type
           rdf:resource="http://purl.org/dc/dcmitype/StillImage" />
        <dc:title></dc:title>
      </cc:Work>
    </rdf:RDF>
  </metadata>
  <g
     inkscape:groupmode="layer"
     id="layer3"
     inkscape:label="bg"
     sodipodi:insensitive="true">
    <g
       transform="translate(0,616)"
       id="g1502">
      <rect
         y="-616"
         x="0"
         height="640"
         width="360"
         id="rect1496"
         style="opacity:1;fill:#ededed;fill-opacity:1;stroke:none;stroke-width:0.1;stroke-miterlimit:4;stroke-dasharray:none" />
      <rect
         y="-592.875"
         x="25"
         height="6.25"
         width="30"
         id="rect1490"
         style="opacity:1;fill:#4d4d4d;fill-opacity:1;stroke:none;stroke-width:0.07905694;stroke-miterlimit:4;stroke-dasharray:none" />
      <rect
         style="opacity:1;fill:#4d4d4d;fill-opacity:1;stroke:none;stroke-width:0.07905694;stroke-miterlimit:4;stroke-dasharray:none"
         id="rect1492"
         width="30"
         height="6.25"
         x="25"
         y="-584.4375" />
      <rect
         y="-576"
         x="25"
         height="6.25"
         width="30"
         id="rect1494"
         style="opacity:1;fill:#4d4d4d;fill-opacity:1;stroke:none;stroke-width:0.07905694;stroke-miterlimit:4;stroke-dasharray:none" />
    </g>
  </g>
  <g
     inkscape:groupmode="layer"
     id="layer2"
     inkscape:label="icon"
     transform="translate(0,616)"
     style="opacity:0.99">
    <path
       style="fill:url(#linearGradient1532);fill-opacity:1;stroke:none;stroke-width:1px;stroke-linecap:butt;stroke-linejoin:miter;stroke-opacity:1"
       d="m 0,-186 c 0,0 120,150 360,180 V -616 H 0 Z"
       id="path1518"
       inkscape:connector-curvature="0"
       sodipodi:nodetypes="ccccc" />
    <path
       style="fill:#6d6e6d;fill-opacity:0.44313725;stroke:none;stroke-width:1px;stroke-linecap:butt;stroke-linejoin:miter;stroke-opacity:1"
       d="M 0,-616 V -6 c 0,0 10,-109.0625 360,-120 v -490 z"
       id="path1544"
       inkscape:connector-curvature="0"
       sodipodi:nodetypes="ccccc" />
    <path
       style="fill:#ededed;fill-opacity:1;fill-rule:nonzero;stroke:none;stroke-width:0.91720819"
       d="m 180,-525.9979 c -71.79722,0 -130,58.2037 -130,130 0,71.79264 58.20278,129.9958 130,129.9958 34.47786,0 67.54326,-13.69324 91.92448,-38.07446 C 296.30296,-328.45413 310,-361.52004 310,-395.9979 c 0,-34.48152 -13.69704,-67.54798 -38.07552,-91.92554 C 247.54326,-512.30099 214.47786,-525.9979 180,-525.9979 Z m 0,16.24068 c 30.17064,0 59.10661,11.9847 80.43904,33.31713 21.3361,21.33609 33.32027,50.27063 33.32027,80.44219 0,30.17157 -11.98417,59.10557 -33.32027,80.43799 -21.33243,21.33243 -50.2684,33.31713 -80.43904,33.31713 -44.53452,0 -83.083771,-25.59324 -101.761497,-62.86912 h 39.849927 v -47.59019 H 66.292129 c -0.03118,-1.09527 -0.05145,-2.19301 -0.05145,-3.29581 0,-2.84199 0.108079,-5.65929 0.312885,-8.44897 H 118.29213 V -451.4218 H 80.640797 C 100.09512,-486.22345 137.29556,-509.75722 180,-509.75722 Z m 76.74531,57.7191 c -3.91648,0 -7.21314,1.02904 -9.2732,3.09001 -2.26733,2.06005 -3.29685,4.9467 -3.29685,8.85951 v 2.68053 h -4.73844 v 7.20793 h 4.73844 v 25.96221 h 10.09741 v -25.96221 h 6.38477 v -7.20793 h -6.38477 v -2.47264 c 0,-2.68008 1.6481,-4.12002 4.73633,-4.12002 1.03186,0 1.85629,-8.1e-4 2.47265,0.20369 v -7.62476 c -1.85277,-0.41182 -3.29632,-0.61632 -4.73634,-0.61632 z m -134.74474,0.61632 v 17.51323 h 6.38896 l 1.0279,-12.5648 v -4.94843 z m 42.03174,5.77264 v 8.24109 h -4.12107 v 7.20793 h 4.12107 v 16.48533 c 0,3.50006 0.82336,5.97233 2.47158,7.62056 1.64823,1.64822 4.32839,2.47159 7.82846,2.47159 2.06005,0 3.9166,-0.20418 5.76845,-0.82421 v -7.41582 c -0.61637,0.2082 -1.64899,0.20789 -2.47264,0.20789 -1.2364,0 -2.26451,-0.20786 -2.67634,-0.82422 -0.41182,-0.41183 -0.61947,-1.44413 -0.61947,-2.68053 v -15.04059 h 5.35581 v -7.20793 h -5.35581 v -8.24109 z m 57.07022,7.41583 c -3.2992,0 -5.97618,0.61737 -8.44897,2.06105 -2.47187,1.44094 -4.32731,3.29573 -5.5637,5.97214 -1.2364,2.47188 -1.85212,5.56411 -1.85212,8.86056 v 1.64843 c 0.20453,5.15195 1.85263,9.0647 4.73633,11.74477 2.88462,2.88371 6.59307,4.12003 11.3332,4.12003 4.94375,0 8.85943,-1.4435 11.53585,-4.53265 2.88461,-3.09192 4.32895,-7.2123 4.32895,-12.36425 v -0.41159 c 0,-5.35649 -1.44434,-9.47656 -4.32895,-12.5648 -2.88462,-3.09282 -6.79592,-4.53369 -11.74059,-4.53369 z m -77.8803,0.41263 c -4.1201,0 -7.41659,1.02779 -9.88846,2.88422 -2.4728,1.85184 -3.70845,4.53225 -3.70845,7.41687 0,1.64823 0.41216,3.29612 1.23581,4.53161 0.82456,1.23639 2.06132,2.4732 3.91317,3.29685 1.65189,0.82365 3.7115,1.64786 6.38792,2.2679 2.47187,0.61636 4.32846,1.02826 5.15212,1.64738 0.82456,0.61636 1.43948,1.23649 1.43948,2.06106 0,0.82365 -0.41154,1.64733 -1.0279,2.26369 -0.61911,0.62003 -1.64843,0.82422 -3.09211,0.82422 -1.44002,0 -2.67658,-0.41154 -3.70844,-1.0279 -1.02819,-0.62004 -1.43949,-1.85684 -1.43949,-3.29686 h -9.68477 c 0,1.85184 0.61572,3.70871 1.85212,5.56055 1.2364,1.64823 2.88386,3.09288 5.15212,4.12107 2.26825,1.03186 4.74015,1.44369 7.62477,1.44369 4.32372,0 7.62101,-1.03251 10.3011,-2.88527 2.67641,-1.85551 4.12001,-4.32668 4.12001,-7.41582 0,-4.3274 -2.47221,-7.41939 -7.41687,-9.27215 -1.44369,-0.41183 -3.29569,-1.03231 -5.15212,-1.23684 -1.85184,-0.41184 -3.29657,-0.82366 -4.32476,-1.44369 -0.82365,-0.61637 -1.44369,-1.23656 -1.44369,-2.26475 -0.20454,-0.61911 0.20845,-1.23523 1.03211,-1.85527 0.82456,-0.61636 1.64813,-0.82316 2.67633,-0.82316 2.88462,0 4.12001,1.2352 4.12001,3.91527 h 10.3011 c 0,-3.29644 -1.23571,-5.7684 -3.91212,-7.82845 -2.68009,-2.06005 -6.18069,-2.88422 -10.50899,-2.88422 z m 58.09918,0 c -3.08825,0 -5.56076,1.64778 -7.20898,4.94423 l -0.41159,-4.32791 h -9.68372 v 32.96645 h 10.30004 v -21.01693 c 0.82458,-2.06097 3.09179,-3.09001 6.18003,-3.09001 l 3.50475,0.41368 0.20369,-9.47688 c -0.82365,-0.2082 -1.85236,-0.41263 -2.88422,-0.41263 z m 19.78112,7.82846 c 3.70827,0 5.76844,2.88455 5.76844,8.8574 v 1.03106 c 0,5.56378 -1.85543,8.44898 -5.5637,8.44898 -1.85642,0 -3.2971,-0.62 -4.32895,-2.06001 -1.0282,-1.44461 -1.43949,-3.70865 -1.43948,-6.80056 v -1.85631 c 0.2036,-5.14829 2.05995,-7.62056 5.56369,-7.62056 z m -59.13128,37.08226 v 46.97492 h 10.30109 v -23.69326 c 0.82366,-1.44002 2.47155,-2.06001 4.5316,-2.06001 1.64822,0 2.88479,0.41123 3.70844,1.2358 0.62003,0.82365 1.0321,2.06082 1.0321,3.91633 v 20.60114 h 10.3011 v -20.80903 c 0,-4.12103 -1.03252,-7.41578 -2.88528,-9.47584 -1.85551,-2.06096 -4.53177,-3.29685 -8.24003,-3.29685 -3.50374,0 -6.17967,1.4436 -8.44793,4.12002 v -17.51322 z m -40.17437,0.20789 v 17.51217 h 6.38476 l 1.0321,-12.56794 v -4.94423 z m 90.44509,13.18531 c -3.29644,0 -5.97605,0.61999 -8.44793,2.06001 -2.47187,1.44369 -4.32507,3.29613 -5.56054,5.97528 -1.2364,2.4728 -1.85632,5.5615 -1.85632,8.86161 v 1.64738 c 0.2082,4.73739 1.85623,8.65228 4.53264,11.53689 2.8837,2.8837 6.59202,4.12107 11.33215,4.12107 4.94467,0 8.65319,-1.44455 11.5369,-4.5337 2.88462,-3.09191 4.3279,-7.21176 4.3279,-12.36005 v -0.41579 c 0,-5.35649 -1.44328,-9.47668 -4.3279,-12.56584 -2.67642,-2.67917 -6.59223,-4.32686 -11.5369,-4.32686 z m 38.31806,0 c -3.29341,8.1e-4 -5.76929,1.23671 -7.82845,3.70844 l -0.20369,-3.08897 h -9.68477 v 45.73913 h 10.30109 v -15.45322 c 1.85643,2.26459 4.53211,3.29686 7.41582,3.29686 3.91648,0 7.0086,-1.44455 9.27319,-4.5337 2.26734,-3.09191 3.5037,-7.21177 3.5037,-12.36005 v -0.41579 c 0,-5.1492 -1.03122,-9.47648 -3.29581,-12.3611 -2.26656,-2.8827 -5.35525,-4.53047 -9.47688,-4.5316 z m -107.54254,0.20685 c -4.1201,0 -7.41607,1.02883 -9.89161,2.88527 -2.47188,1.85183 -3.70845,4.53119 -3.70845,7.41582 0,1.64822 0.41215,3.29717 1.2358,4.53264 0.82365,1.23641 2.06081,2.47215 3.91633,3.29581 1.64822,0.82365 3.70784,1.64891 6.38792,2.26895 2.47279,0.61545 4.32439,1.02826 5.14897,1.64738 0.82365,0.61636 1.44368,1.23649 1.44368,2.06105 0,0.82366 -0.41102,1.64734 -1.03105,2.2637 -0.61636,0.62004 -1.64894,0.82422 -3.08896,0.82422 -1.4446,0 -2.68024,-0.41154 -3.70843,-1.0279 -1.03186,-0.62004 -1.4437,-1.85685 -1.4437,-3.29686 h -9.68477 c 0,1.85184 0.62084,3.70871 1.85632,5.56055 1.2364,1.64823 2.88479,3.09288 5.15212,4.12108 2.2646,1.03185 4.73687,1.44368 7.62057,1.44368 4.3283,0 7.62468,-1.03251 10.30109,-2.88527 2.67917,-1.85551 4.12002,-4.32772 4.12002,-7.41688 0,-4.32739 -2.47313,-7.41925 -7.41687,-9.27108 -1.44094,-0.41184 -3.29621,-1.03231 -5.14898,-1.23685 -1.85551,-0.41183 -3.295,-0.82366 -4.32686,-1.44368 -1.02819,-0.61637 -1.44158,-1.23657 -1.44158,-2.26476 -0.20729,-0.61911 0.20543,-1.23523 1.03,-1.85527 0.82366,-0.61636 1.64658,-0.82421 2.67844,-0.82421 2.88462,0 4.12106,1.23625 4.12106,3.91633 h 10.30005 c 0,-3.29645 -1.23611,-5.76841 -3.91528,-7.82845 -2.67641,-2.06006 -6.18119,-2.88527 -10.50583,-2.88527 z m 69.01659,7.82844 c 3.70827,0 5.7695,2.88509 5.7695,8.86161 v 1.02791 c 0,5.56378 -1.85333,8.44898 -5.56161,8.44898 -1.8555,0 -3.29604,-0.61999 -4.3279,-2.06002 -1.0282,-1.4446 -1.44054,-3.70864 -1.44054,-6.80055 v -1.85631 c 0.20453,-5.14829 2.06048,-7.62162 5.56055,-7.62162 z m 35.84961,0 c 3.50466,0 5.15318,2.88509 5.15318,8.86161 v 1.02791 c 0,5.56378 -1.85672,8.44898 -5.15318,8.44898 -2.47186,0 -4.11952,-0.82502 -4.94317,-2.68053 v -12.98163 c 0.82365,-1.6473 2.47131,-2.67634 4.94317,-2.67634 z"
       id="path4243"
       inkscape:connector-curvature="0" />
    <rect
       style="opacity:1;fill:#f73859;fill-opacity:1;stroke:none;stroke-width:0.1;stroke-miterlimit:4;stroke-dasharray:none;stroke-opacity:1"
       id="rect1542"
       width="120"
       height="120"
       x="-300"
       y="-576" />
    <text
       xml:space="preserve"
       style="font-style:normal;font-weight:normal;font-size:37.72781754px;line-height:1.25;font-family:sans-serif;letter-spacing:0px;word-spacing:0px;fill:#000000;fill-opacity:1;stroke:none;stroke-width:0.94319546"
       x="-349.49503"
       y="-189.4502"
       id="text1548"
       transform="scale(0.94319546,1.0602256)"><tspan
         sodipodi:role="line"
         id="tspan1546"
         x="-349.49503"
         y="-189.4502"
         style="font-style:normal;font-variant:normal;font-weight:normal;font-stretch:normal;font-family:'Roboto Condensed';-inkscape-font-specification:'Roboto Condensed, ';stroke-width:0.94319546">Пространство за изкуство</tspan></text>
  </g>
</svg>
