<?xml version="1.0" encoding="UTF-8" standalone="no"?>
<svg
   xmlns:dc="http://purl.org/dc/elements/1.1/"
   xmlns:cc="http://creativecommons.org/ns#"
   xmlns:rdf="http://www.w3.org/1999/02/22-rdf-syntax-ns#"
   xmlns:svg="http://www.w3.org/2000/svg"
   xmlns="http://www.w3.org/2000/svg"
   id="svg4205"
   version="1.1"
   xml:space="preserve"
   width="500"
   height="500"
   viewBox="0 0 500 500.00001"><metadata
     id="metadata4211"><rdf:RDF><cc:Work
         rdf:about=""><dc:format>image/svg+xml</dc:format><dc:type
           rdf:resource="http://purl.org/dc/dcmitype/StillImage" /><dc:title></dc:title></cc:Work></rdf:RDF></metadata><defs
     id="defs4209" /><rect
     ry="84.745766"
     rx="84.745766"
     y="0"
     x="0"
     height="500"
     width="500"
     id="rect8"
     style="fill:#ffffff;fill-opacity:1;stroke:none" /><path
     style="fill:#4d4d4d;fill-opacity:1;fill-rule:nonzero;stroke:none;stroke-width:1.5716579"
     d="m 250,27.245531 c -123.02624,0 -222.758068,99.733409 -222.758068,222.758069 0,123.01838 99.731828,222.75087 222.758068,222.75087 59.07862,0 115.73697,-23.46369 157.51478,-65.2415 41.77309,-41.77152 65.24329,-98.43074 65.24329,-157.50937 0,-59.0849 -23.4702,-115.74505 -65.24329,-157.516573 C 365.73697,50.715504 309.07862,27.245531 250,27.245531 Z m 0,27.828791 c 51.69811,0 101.28058,20.536059 137.83419,57.089678 36.55991,36.5599 57.09508,86.13992 57.09508,137.8396 0,51.69969 -20.53517,101.27878 -57.09508,137.8324 -36.55361,36.55362 -86.13608,57.08968 -137.83419,57.08968 -76.31095,0 -142.36601,-43.85462 -174.37073,-107.72772 h 68.28381 V 255.65104 H 55.158881 c -0.05342,-1.87676 -0.08816,-3.75776 -0.08816,-5.64744 0,-4.86983 0.185195,-9.69733 0.536138,-14.47752 H 144.26211 V 155.03344 H 79.745657 C 113.08111,95.399981 176.82494,55.074322 250,55.074322 Z m 131.50489,98.903028 c -6.71098,0 -12.35988,1.7633 -15.88983,5.29482 -3.88513,3.52994 -5.64923,8.47629 -5.64923,15.18098 v 4.59315 h -8.11944 v 12.35096 h 8.11944 v 44.48684 h 17.30213 v -44.48684 h 10.94045 V 179.0463 h -10.94045 v -4.23693 c 0,-4.59238 2.82406,-7.05975 8.11584,-7.05975 1.76811,0 3.18077,-0.001 4.23693,0.34903 v -13.06521 c -3.17475,-0.70567 -5.64833,-1.05609 -8.11584,-1.05609 z m -230.88829,1.05609 v 30.00932 h 10.94765 l 1.76134,-21.53006 v -8.47926 z m 72.02238,9.89157 v 14.12129 h -7.06155 v 12.35096 h 7.06155 v 28.24799 c 0,5.99744 1.41086,10.23375 4.23513,13.05801 2.82427,2.82427 7.41679,4.23513 13.41424,4.23513 3.52994,0 6.71119,-0.34987 9.88437,-1.41231 v -12.70719 c -1.05616,0.35677 -2.82558,0.35623 -4.23693,0.35623 -2.11859,0 -3.88029,-0.35616 -4.58596,-1.41231 -0.70567,-0.70568 -1.06148,-2.47455 -1.06148,-4.59315 v -25.7724 h 9.17731 V 179.0463 h -9.17731 v -14.12129 z m 97.79117,12.70718 c -5.65326,0 -10.24031,1.05788 -14.47751,3.53167 -4.23561,2.46908 -7.41494,5.64731 -9.53354,10.2334 -2.11859,4.23562 -3.17364,9.53424 -3.17364,15.18277 v 2.82462 c 0.35048,8.82801 3.17453,15.53258 8.11582,20.12496 4.94286,4.94129 11.29738,7.05975 19.4197,7.05975 8.47124,0 15.18084,-2.47346 19.76694,-7.7668 4.94286,-5.29806 7.41777,-12.35844 7.41777,-21.18644 v -0.70526 c 0,-9.17848 -2.47491,-16.23831 -7.41777,-21.53007 -4.94286,-5.29963 -11.64496,-7.7686 -20.11777,-7.7686 z m -133.44973,0.70706 c -7.05988,0 -12.70849,1.76114 -16.94411,4.94217 -4.2372,3.17318 -6.3545,7.76612 -6.3545,12.70899 0,2.82427 0.70622,5.64798 2.11757,7.76501 1.41292,2.11859 3.53214,4.23789 6.70531,5.64923 2.83056,1.41135 6.35976,2.82366 10.94586,3.8861 4.23561,1.05616 7.41693,1.76195 8.82828,2.82282 1.41291,1.05615 2.46659,2.11876 2.46659,3.53168 0,1.41135 -0.70518,2.82274 -1.76133,3.8789 -1.06087,1.06244 -2.82463,1.41231 -5.29842,1.41231 -2.4675,0 -4.58638,-0.70519 -6.35449,-1.76134 -1.76183,-1.06244 -2.46659,-3.18174 -2.46659,-5.64924 h -16.59508 c 0,3.17317 1.05504,6.35496 3.17364,9.52814 2.11859,2.82427 4.94156,5.29972 8.82828,7.06155 3.88671,1.76812 8.12235,2.47379 13.06522,2.47379 7.40879,0 13.05878,-1.76923 17.65117,-4.94398 4.5861,-3.17946 7.05974,-7.41385 7.05974,-12.70719 0,-7.41509 -4.23618,-12.71328 -12.70899,-15.88803 -2.47379,-0.70567 -5.64724,-1.76888 -8.82828,-2.11936 -3.17317,-0.70569 -5.64874,-1.41136 -7.41057,-2.4738 -1.41135,-1.05615 -2.47379,-2.11887 -2.47379,-3.8807 -0.35048,-1.06087 0.35718,-2.1166 1.76853,-3.17904 1.41292,-1.05615 2.82413,-1.41051 4.58596,-1.41051 4.94287,0 7.05975,2.11653 7.05975,6.70891 h 17.65116 c 0,-5.64854 -2.11741,-9.88429 -6.70351,-13.41424 -4.59239,-3.52994 -10.59075,-4.94217 -18.0074,-4.94217 z m 99.55431,0 c -5.29177,0 -9.52849,2.8235 -12.35276,8.47205 l -0.70525,-7.41598 h -16.59328 v 56.48878 h 17.64936 v -36.01298 c 1.41292,-3.53153 5.29785,-5.29482 10.58963,-5.29482 l 6.00546,0.70885 0.34902,-16.23885 c -1.41134,-0.35676 -3.17406,-0.70705 -4.94218,-0.70705 z m 33.89542,13.41424 c 6.35421,0 9.88437,4.94274 9.88437,15.17737 v 1.76674 c 0,9.53368 -3.17933,14.47752 -9.53354,14.47752 -3.18103,0 -5.64966,-1.06238 -7.41777,-3.52987 -1.76182,-2.47537 -2.46659,-6.35486 -2.46658,-11.65291 v -3.18084 c 0.34889,-8.82171 3.52978,-13.05801 9.53352,-13.05801 z m -101.32284,63.54132 v 80.49264 h 17.65117 V 295.1885 c 1.41134,-2.4675 4.23505,-3.52987 7.765,-3.52987 2.82426,0 4.94315,0.70465 6.35449,2.11757 1.06245,1.41134 1.76854,3.53125 1.76854,6.71071 v 35.30054 h 17.65117 v -35.65676 c 0,-7.06147 -1.76924,-12.70712 -4.94399,-16.23707 -3.17946,-3.53151 -7.76529,-5.64923 -14.1195,-5.64923 -6.00374,0 -10.589,2.47364 -14.47571,7.05974 v -30.00932 z m -68.83974,0.35623 v 30.00752 h 10.94045 l 1.76853,-21.53547 v -8.47205 z m 154.97981,22.59335 c -5.64853,0 -10.2401,1.06237 -14.47572,3.52987 -4.23562,2.47379 -7.41111,5.64799 -9.52814,10.2388 -2.11859,4.23719 -3.18085,9.52975 -3.18085,15.18457 v 2.82282 c 0.35677,8.11762 3.18071,14.82587 7.7668,19.76873 4.9413,4.9413 11.29558,7.06155 19.41791,7.06155 8.47281,0 14.82745,-2.47526 19.76874,-7.7686 4.94287,-5.29807 7.41597,-12.35752 7.41597,-21.17924 v -0.71245 c 0,-9.17849 -2.4731,-16.23854 -7.41597,-21.53188 -4.58609,-4.59081 -11.29593,-7.41417 -19.76874,-7.41417 z m 65.6589,0 c -5.64334,0.002 -9.88582,2.11913 -13.41424,6.35449 l -0.34904,-5.29301 h -16.59508 v 78.37507 h 17.65117 v -26.47945 c 3.18104,3.88042 7.76589,5.64924 12.70719,5.64924 6.71097,0 12.0094,-2.47526 15.88982,-7.7686 3.88515,-5.29807 6.00367,-12.35753 6.00367,-21.17924 v -0.71245 c 0,-8.82329 -1.76701,-16.23819 -5.64744,-21.18105 -3.88379,-4.93959 -9.17634,-7.76306 -16.23886,-7.765 z m -184.27669,0.35443 c -7.05988,0 -12.70761,1.76294 -16.94951,4.94397 -4.23561,3.17318 -6.35449,7.76432 -6.35449,12.70719 0,2.82426 0.7062,5.64978 2.11756,7.7668 1.41135,2.11861 3.53125,4.23609 6.71071,5.64744 2.82428,1.41135 6.35348,2.82546 10.94586,3.8879 4.23719,1.05458 7.40996,1.76195 8.82288,2.82282 1.41135,1.05615 2.47379,2.11876 2.47379,3.53167 0,1.41135 -0.7043,2.82275 -1.76673,3.87891 -1.05616,1.06244 -2.82551,1.41231 -5.29301,1.41231 -2.47536,0 -4.59266,-0.70518 -6.3545,-1.76134 -1.76811,-1.06244 -2.47379,-3.18174 -2.47379,-5.64924 h -16.59508 c 0,3.17317 1.06382,6.35496 3.18084,9.52814 2.1186,2.82427 4.94315,5.29972 8.82829,7.06155 3.88042,1.76812 8.11672,2.47379 13.05801,2.47379 7.41665,0 13.06508,-1.76923 17.65117,-4.94398 4.59081,-3.17946 7.05974,-7.41565 7.05974,-12.70899 0,-7.41509 -4.23775,-12.71305 -12.70899,-15.88623 -2.46907,-0.70567 -5.64813,-1.76887 -8.82288,-2.11936 -3.17946,-0.70568 -5.64606,-1.41136 -7.41417,-2.4738 -1.76184,-1.05615 -2.47019,-2.11887 -2.47019,-3.8807 -0.3552,-1.06087 0.35201,-2.1166 1.76494,-3.17904 1.41135,-1.05615 2.82144,-1.41231 4.58955,-1.41231 4.94287,0 7.06154,2.11833 7.06154,6.71072 h 17.64938 c 0,-5.64855 -2.11811,-9.8843 -6.70892,-13.41425 -4.58609,-3.52994 -10.59163,-4.94397 -18.002,-4.94397 z m 118.26156,13.41424 c 6.35421,0 9.88618,4.94365 9.88618,15.18457 v 1.76134 c 0,9.53368 -3.17573,14.47752 -9.52995,14.47752 -3.17946,0 -5.64785,-1.06237 -7.41597,-3.52988 -1.76183,-2.47536 -2.4684,-6.35484 -2.4684,-11.6529 v -3.18084 c 0.35048,-8.82171 3.5307,-13.05981 9.52814,-13.05981 z m 61.42916,0 c 6.00531,0 8.83009,4.94365 8.83009,15.18457 v 1.76134 c 0,9.53368 -3.18154,14.47752 -8.83009,14.47752 -4.23561,0 -7.0589,-1.4137 -8.47025,-4.59315 v -22.24433 c 1.41135,-2.8227 4.23464,-4.58595 8.47025,-4.58595 z"
     id="path4243" /></svg>