<?xml version="1.0" encoding="UTF-8" standalone="no"?>
<svg
   xmlns:dc="http://purl.org/dc/elements/1.1/"
   xmlns:cc="http://creativecommons.org/ns#"
   xmlns:rdf="http://www.w3.org/1999/02/22-rdf-syntax-ns#"
   xmlns:svg="http://www.w3.org/2000/svg"
   xmlns="http://www.w3.org/2000/svg"
   id="svg852"
   version="1.1"
   viewBox="0 0 132.29166 79.374999"
   height="300"
   width="500">
  <defs
     id="defs846" />
  <metadata
     id="metadata849">
    <rdf:RDF>
      <cc:Work
         rdf:about="">
        <dc:format>image/svg+xml</dc:format>
        <dc:type
           rdf:resource="http://purl.org/dc/dcmitype/StillImage" />
        <dc:title></dc:title>
      </cc:Work>
    </rdf:RDF>
  </metadata>
  <g
     transform="translate(0,-217.625)"
     id="layer1">
    <path
       id="path860"
       transform="matrix(0.26458333,0,0,0.26458333,0,217.625)"
       d="M 0 -0.50195312 L 0 0.50195312 L 9.5 0.50195312 L 9.5 9.5 L 0 9.5 L 0 10.496094 L 9.5 10.496094 L 9.5 19.503906 L 0 19.503906 L 0 20.5 L 9.5 20.5 L 9.5 29.498047 L 0 29.498047 L 0 30.501953 L 9.5 30.501953 L 9.5 39.5 L 0 39.5 L 0 40.496094 L 9.5 40.496094 L 9.5 49.503906 L 0 49.503906 L 0 50.5 L 9.5 50.5 L 9.5 59.498047 L 0 59.498047 L 0 60.501953 L 9.5 60.501953 L 9.5 69.5 L 0 69.5 L 0 70.496094 L 9.5 70.496094 L 9.5 79.503906 L 0 79.503906 L 0 80.5 L 9.5 80.5 L 9.5 100.00195 L 10.496094 100.00195 L 10.496094 80.5 L 19.503906 80.5 L 19.503906 100.00195 L 20.5 100.00195 L 20.5 80.5 L 29.498047 80.5 L 29.498047 100.00195 L 29.498047 109.50391 L 0 109.50391 L 0 110.5 L 29.498047 110.5 L 29.498047 119.49805 L 0 119.49805 L 0 120.50195 L 29.498047 120.50195 L 29.498047 129.5 L 0 129.5 L 0 130.49609 L 29.498047 130.49609 L 29.498047 139.50391 L 0 139.50391 L 0 140.5 L 29.498047 140.5 L 29.498047 149.49805 L 0 149.49805 L 0 150.50195 L 29.498047 150.50195 L 29.498047 169.50391 L 0 169.50391 L 0 170.5 L 29.498047 170.5 L 29.498047 179.49805 L 0 179.49805 L 0 180.50195 L 29.498047 180.50195 L 29.498047 199.99805 L 30.501953 199.99805 L 30.501953 180.50195 L 49.503906 180.50195 L 49.503906 199.99805 L 50.5 199.99805 L 50.5 180.50195 L 59.498047 180.50195 L 59.498047 199.99805 L 59.498047 275.5 L 60.501953 275.92969 L 60.501953 199.99805 L 60.501953 180.50195 L 79.503906 180.50195 L 79.503906 199.99805 L 79.503906 282.11133 L 80.5 282.33398 L 80.5 199.99805 L 80.5 180.50195 L 100.00195 180.50195 L 119.49805 180.50195 L 119.49805 189.5 L 100.00195 189.5 L 100.00195 190.49609 L 119.49805 190.49609 L 119.49805 199.99805 L 119.49805 219.5 L 100.49609 219.5 L 100.49609 199.99805 L 99.5 199.99805 L 99.5 286.55469 L 100.49609 286.77734 L 100.49609 250.49609 L 119.49805 250.49609 L 119.49805 291 L 120.50195 291.22266 L 120.50195 250.49609 L 139.50391 250.49609 L 139.50391 295.44531 L 140.5 295.66602 L 140.5 250.49609 L 169.50391 250.49609 L 169.50391 298.88281 L 170.5 298.76562 L 170.5 250.49609 L 199.99805 250.49609 L 219.5 250.49609 L 219.5 293 L 220.49609 292.88281 L 220.49609 250.49609 L 229.50391 250.49609 L 229.50391 291.82227 L 230.5 291.70508 L 230.5 250.49609 L 279.5 250.49609 L 279.5 285.94141 L 280.49609 285.82422 L 280.49609 250.49609 L 300 250.49609 L 309.5 250.49609 L 309.5 269.49805 L 300 269.49805 L 300 270.50195 L 309.5 270.50195 L 309.5 282.41211 L 310.49609 282.29492 L 310.49609 270.50195 L 319.50391 270.50195 L 319.50391 281.23438 L 320.5 281.11719 L 320.5 270.50195 L 329.49805 270.50195 L 329.49805 280.05859 L 330 280 L 330.50195 280.14258 L 330.50195 270.50195 L 349.50391 270.50195 L 349.50391 285.57227 L 350.5 285.85742 L 350.5 270.50195 L 359.49805 270.50195 L 359.49805 288.42773 L 360.50195 288.71484 L 360.50195 270.50195 L 389.49805 270.50195 L 389.49805 297 L 390.50195 297.28711 L 390.50195 270.50195 L 400.00195 270.50195 L 400.00195 269.49805 L 390.50195 269.49805 L 390.50195 250.49609 L 400.00195 250.49609 L 419.49805 250.49609 L 419.49805 259.50391 L 400.00195 259.50391 L 400.00195 260.5 L 419.49805 260.5 L 419.49805 279.5 L 400.00195 279.5 L 400.00195 280.49609 L 419.49805 280.49609 L 419.49805 297.83398 L 420.50195 297.72266 L 420.50195 280.49609 L 439.50391 280.49609 L 439.50391 295.61133 L 440.5 295.5 L 440.5 280.49609 L 449.49805 280.49609 L 449.49805 294.5 L 450.50195 294.38867 L 450.50195 280.49609 L 499.99805 280.49609 L 499.99805 279.5 L 450.50195 279.5 L 450.50195 260.5 L 499.99805 260.5 L 499.99805 259.50391 L 450.50195 259.50391 L 450.50195 250.49609 L 499.99805 250.49609 L 499.99805 249.5 L 450.50195 249.5 L 450.50195 230.5 L 499.99805 230.5 L 499.99805 229.50391 L 450.50195 229.50391 L 450.50195 220.49609 L 499.99805 220.49609 L 499.99805 219.5 L 450.50195 219.5 L 450.50195 199.99805 L 450.50195 190.49609 L 469.50391 190.49609 L 469.50391 199.99805 L 470.5 199.99805 L 470.5 190.49609 L 479.49805 190.49609 L 479.49805 199.99805 L 480.50195 199.99805 L 480.50195 190.49609 L 489.5 190.49609 L 489.5 199.99805 L 490.49609 199.99805 L 490.49609 190.49609 L 499.99805 190.49609 L 499.99805 189.5 L 490.49609 189.5 L 490.49609 170.5 L 499.99805 170.5 L 499.99805 169.50391 L 490.49609 169.50391 L 490.49609 160.49609 L 499.99805 160.49609 L 499.99805 159.5 L 490.49609 159.5 L 490.49609 150.50195 L 499.99805 150.50195 L 499.99805 149.49805 L 490.49609 149.49805 L 490.49609 120.50195 L 499.99805 120.50195 L 499.99805 119.49805 L 490.49609 119.49805 L 490.49609 110.5 L 499.99805 110.5 L 499.99805 109.50391 L 490.49609 109.50391 L 490.49609 100.00195 L 490.49609 90.501953 L 499.99805 90.501953 L 499.99805 89.498047 L 490.49609 89.498047 L 490.49609 80.5 L 499.99805 80.5 L 499.99805 79.503906 L 490.49609 79.503906 L 490.49609 70.496094 L 499.99805 70.496094 L 499.99805 69.5 L 490.49609 69.5 L 490.49609 60.501953 L 499.99805 60.501953 L 499.99805 59.498047 L 490.49609 59.498047 L 490.49609 40.496094 L 499.99805 40.496094 L 499.99805 39.5 L 490.49609 39.5 L 490.49609 30.501953 L 499.99805 30.501953 L 499.99805 29.498047 L 490.49609 29.498047 L 490.49609 20.5 L 499.99805 20.5 L 499.99805 19.503906 L 490.49609 19.503906 L 490.49609 10.496094 L 499.99805 10.496094 L 499.99805 9.5 L 490.49609 9.5 L 490.49609 0.50195312 L 499.99805 0.50195312 L 499.99805 -0.50195312 L 400.00195 -0.50195312 L 300 -0.50195312 L 199.99805 -0.50195312 L 100.00195 -0.50195312 L 0 -0.50195312 z M 10.496094 0.50195312 L 19.503906 0.50195312 L 19.503906 9.5 L 10.496094 9.5 L 10.496094 0.50195312 z M 20.5 0.50195312 L 29.498047 0.50195312 L 29.498047 9.5 L 20.5 9.5 L 20.5 0.50195312 z M 30.501953 0.50195312 L 39.5 0.50195312 L 39.5 9.5 L 30.501953 9.5 L 30.501953 0.50195312 z M 40.496094 0.50195312 L 49.503906 0.50195312 L 49.503906 9.5 L 40.496094 9.5 L 40.496094 0.50195312 z M 50.5 0.50195312 L 59.498047 0.50195312 L 59.498047 9.5 L 50.5 9.5 L 50.5 0.50195312 z M 60.501953 0.50195312 L 79.503906 0.50195312 L 79.503906 9.5 L 60.501953 9.5 L 60.501953 0.50195312 z M 80.5 0.50195312 L 100.00195 0.50195312 L 119.49805 0.50195312 L 119.49805 9.5 L 100.00195 9.5 L 80.5 9.5 L 80.5 0.50195312 z M 120.50195 0.50195312 L 139.50391 0.50195312 L 139.50391 9.5 L 120.50195 9.5 L 120.50195 0.50195312 z M 140.5 0.50195312 L 159.5 0.50195312 L 159.5 9.5 L 140.5 9.5 L 140.5 0.50195312 z M 160.49609 0.50195312 L 169.50391 0.50195312 L 169.50391 9.5 L 160.49609 9.5 L 160.49609 0.50195312 z M 170.5 0.50195312 L 179.49805 0.50195312 L 179.49805 9.5 L 170.5 9.5 L 170.5 0.50195312 z M 180.50195 0.50195312 L 189.5 0.50195312 L 189.5 9.5 L 180.50195 9.5 L 180.50195 0.50195312 z M 190.49609 0.50195312 L 199.99805 0.50195312 L 219.5 0.50195312 L 219.5 9.5 L 199.99805 9.5 L 190.49609 9.5 L 190.49609 0.50195312 z M 220.49609 0.50195312 L 229.50391 0.50195312 L 229.50391 9.5 L 220.49609 9.5 L 220.49609 0.50195312 z M 230.5 0.50195312 L 239.49805 0.50195312 L 239.49805 9.5 L 230.5 9.5 L 230.5 0.50195312 z M 240.50195 0.50195312 L 249.5 0.50195312 L 249.5 9.5 L 240.50195 9.5 L 240.50195 0.50195312 z M 250.49609 0.50195312 L 259.50391 0.50195312 L 259.50391 9.5 L 250.49609 9.5 L 250.49609 0.50195312 z M 260.5 0.50195312 L 269.49805 0.50195312 L 269.49805 9.5 L 260.5 9.5 L 260.5 0.50195312 z M 270.50195 0.50195312 L 279.5 0.50195312 L 279.5 9.5 L 270.50195 9.5 L 270.50195 0.50195312 z M 280.49609 0.50195312 L 289.50391 0.50195312 L 289.50391 9.5 L 280.49609 9.5 L 280.49609 0.50195312 z M 290.5 0.50195312 L 300 0.50195312 L 309.5 0.50195312 L 309.5 9.5 L 300 9.5 L 290.5 9.5 L 290.5 0.50195312 z M 310.49609 0.50195312 L 319.50391 0.50195312 L 319.50391 9.5 L 310.49609 9.5 L 310.49609 0.50195312 z M 320.5 0.50195312 L 329.49805 0.50195312 L 329.49805 9.5 L 320.5 9.5 L 320.5 0.50195312 z M 330.50195 0.50195312 L 349.50391 0.50195312 L 349.50391 9.5 L 330.50195 9.5 L 330.50195 0.50195312 z M 350.5 0.50195312 L 359.49805 0.50195312 L 359.49805 9.5 L 350.5 9.5 L 350.5 0.50195312 z M 360.50195 0.50195312 L 369.5 0.50195312 L 369.5 9.5 L 360.50195 9.5 L 360.50195 0.50195312 z M 370.49609 0.50195312 L 379.50391 0.50195312 L 379.50391 9.5 L 370.49609 9.5 L 370.49609 0.50195312 z M 380.5 0.50195312 L 389.49805 0.50195312 L 389.49805 9.5 L 380.5 9.5 L 380.5 0.50195312 z M 390.50195 0.50195312 L 400.00195 0.50195312 L 419.49805 0.50195312 L 419.49805 9.5 L 400.00195 9.5 L 390.50195 9.5 L 390.50195 0.50195312 z M 420.50195 0.50195312 L 429.5 0.50195312 L 429.5 9.5 L 420.50195 9.5 L 420.50195 0.50195312 z M 430.49609 0.50195312 L 439.50391 0.50195312 L 439.50391 9.5 L 430.49609 9.5 L 430.49609 0.50195312 z M 440.5 0.50195312 L 449.49805 0.50195312 L 449.49805 9.5 L 440.5 9.5 L 440.5 0.50195312 z M 450.50195 0.50195312 L 469.50391 0.50195312 L 469.50391 9.5 L 450.50195 9.5 L 450.50195 0.50195312 z M 470.5 0.50195312 L 479.49805 0.50195312 L 479.49805 9.5 L 470.5 9.5 L 470.5 0.50195312 z M 480.50195 0.50195312 L 489.5 0.50195312 L 489.5 9.5 L 480.50195 9.5 L 480.50195 0.50195312 z M 10.496094 10.496094 L 19.503906 10.496094 L 19.503906 19.503906 L 10.496094 19.503906 L 10.496094 10.496094 z M 20.5 10.496094 L 29.498047 10.496094 L 29.498047 19.503906 L 20.5 19.503906 L 20.5 10.496094 z M 30.501953 10.496094 L 39.5 10.496094 L 39.5 19.503906 L 30.501953 19.503906 L 30.501953 10.496094 z M 40.496094 10.496094 L 49.503906 10.496094 L 49.503906 19.503906 L 40.496094 19.503906 L 40.496094 10.496094 z M 50.5 10.496094 L 59.498047 10.496094 L 59.498047 19.503906 L 50.5 19.503906 L 50.5 10.496094 z M 60.501953 10.496094 L 79.503906 10.496094 L 79.503906 19.503906 L 60.501953 19.503906 L 60.501953 10.496094 z M 80.5 10.496094 L 100.00195 10.496094 L 119.49805 10.496094 L 119.49805 19.503906 L 100.00195 19.503906 L 80.5 19.503906 L 80.5 10.496094 z M 120.50195 10.496094 L 139.50391 10.496094 L 139.50391 19.503906 L 120.50195 19.503906 L 120.50195 10.496094 z M 140.5 10.496094 L 159.5 10.496094 L 159.5 19.503906 L 140.5 19.503906 L 140.5 10.496094 z M 160.49609 10.496094 L 169.50391 10.496094 L 169.50391 19.503906 L 160.49609 19.503906 L 160.49609 10.496094 z M 170.5 10.496094 L 179.49805 10.496094 L 179.49805 19.503906 L 170.5 19.503906 L 170.5 10.496094 z M 180.50195 10.496094 L 189.5 10.496094 L 189.5 19.503906 L 180.50195 19.503906 L 180.50195 10.496094 z M 190.49609 10.496094 L 199.99805 10.496094 L 219.5 10.496094 L 219.5 19.503906 L 199.99805 19.503906 L 190.49609 19.503906 L 190.49609 10.496094 z M 220.49609 10.496094 L 229.50391 10.496094 L 229.50391 19.503906 L 220.49609 19.503906 L 220.49609 10.496094 z M 230.5 10.496094 L 239.49805 10.496094 L 239.49805 19.503906 L 230.5 19.503906 L 230.5 10.496094 z M 240.50195 10.496094 L 249.5 10.496094 L 249.5 19.503906 L 240.50195 19.503906 L 240.50195 10.496094 z M 250.49609 10.496094 L 259.50391 10.496094 L 259.50391 19.503906 L 250.49609 19.503906 L 250.49609 10.496094 z M 260.5 10.496094 L 269.49805 10.496094 L 269.49805 19.503906 L 260.5 19.503906 L 260.5 10.496094 z M 270.50195 10.496094 L 279.5 10.496094 L 279.5 19.503906 L 270.50195 19.503906 L 270.50195 10.496094 z M 280.49609 10.496094 L 289.50391 10.496094 L 289.50391 19.503906 L 280.49609 19.503906 L 280.49609 10.496094 z M 290.5 10.496094 L 300 10.496094 L 309.5 10.496094 L 309.5 19.503906 L 300 19.503906 L 290.5 19.503906 L 290.5 10.496094 z M 310.49609 10.496094 L 319.50391 10.496094 L 319.50391 19.503906 L 310.49609 19.503906 L 310.49609 10.496094 z M 320.5 10.496094 L 329.49805 10.496094 L 329.49805 19.503906 L 320.5 19.503906 L 320.5 10.496094 z M 330.50195 10.496094 L 349.50391 10.496094 L 349.50391 19.503906 L 330.50195 19.503906 L 330.50195 10.496094 z M 350.5 10.496094 L 359.49805 10.496094 L 359.49805 19.503906 L 350.5 19.503906 L 350.5 10.496094 z M 360.50195 10.496094 L 369.5 10.496094 L 369.5 19.503906 L 360.50195 19.503906 L 360.50195 10.496094 z M 370.49609 10.496094 L 379.50391 10.496094 L 379.50391 19.503906 L 370.49609 19.503906 L 370.49609 10.496094 z M 380.5 10.496094 L 389.49805 10.496094 L 389.49805 19.503906 L 380.5 19.503906 L 380.5 10.496094 z M 390.50195 10.496094 L 400.00195 10.496094 L 419.49805 10.496094 L 419.49805 19.503906 L 400.00195 19.503906 L 390.50195 19.503906 L 390.50195 10.496094 z M 420.50195 10.496094 L 429.5 10.496094 L 429.5 19.503906 L 420.50195 19.503906 L 420.50195 10.496094 z M 430.49609 10.496094 L 439.50391 10.496094 L 439.50391 19.503906 L 430.49609 19.503906 L 430.49609 10.496094 z M 440.5 10.496094 L 449.49805 10.496094 L 449.49805 19.503906 L 440.5 19.503906 L 440.5 10.496094 z M 450.50195 10.496094 L 469.50391 10.496094 L 469.50391 19.503906 L 450.50195 19.503906 L 450.50195 10.496094 z M 470.5 10.496094 L 479.49805 10.496094 L 479.49805 19.503906 L 470.5 19.503906 L 470.5 10.496094 z M 480.50195 10.496094 L 489.5 10.496094 L 489.5 19.503906 L 480.50195 19.503906 L 480.50195 10.496094 z M 10.496094 20.5 L 19.503906 20.5 L 19.503906 29.498047 L 10.496094 29.498047 L 10.496094 20.5 z M 20.5 20.5 L 29.498047 20.5 L 29.498047 29.498047 L 20.5 29.498047 L 20.5 20.5 z M 30.501953 20.5 L 39.5 20.5 L 39.5 29.498047 L 30.501953 29.498047 L 30.501953 20.5 z M 40.496094 20.5 L 49.503906 20.5 L 49.503906 29.498047 L 40.496094 29.498047 L 40.496094 20.5 z M 50.5 20.5 L 59.498047 20.5 L 59.498047 29.498047 L 50.5 29.498047 L 50.5 20.5 z M 60.501953 20.5 L 79.503906 20.5 L 79.503906 29.498047 L 60.501953 29.498047 L 60.501953 20.5 z M 80.5 20.5 L 100.00195 20.5 L 119.49805 20.5 L 119.49805 29.498047 L 100.00195 29.498047 L 80.5 29.498047 L 80.5 20.5 z M 120.50195 20.5 L 139.50391 20.5 L 139.50391 29.498047 L 120.50195 29.498047 L 120.50195 20.5 z M 140.5 20.5 L 159.5 20.5 L 159.5 29.498047 L 140.5 29.498047 L 140.5 20.5 z M 160.49609 20.5 L 169.50391 20.5 L 169.50391 29.498047 L 160.49609 29.498047 L 160.49609 20.5 z M 170.5 20.5 L 179.49805 20.5 L 179.49805 29.498047 L 170.5 29.498047 L 170.5 20.5 z M 180.50195 20.5 L 189.5 20.5 L 189.5 29.498047 L 180.50195 29.498047 L 180.50195 20.5 z M 190.49609 20.5 L 199.99805 20.5 L 219.5 20.5 L 219.5 29.498047 L 199.99805 29.498047 L 190.49609 29.498047 L 190.49609 20.5 z M 220.49609 20.5 L 229.50391 20.5 L 229.50391 29.498047 L 220.49609 29.498047 L 220.49609 20.5 z M 230.5 20.5 L 239.49805 20.5 L 239.49805 29.498047 L 230.5 29.498047 L 230.5 20.5 z M 240.50195 20.5 L 249.5 20.5 L 249.5 29.498047 L 240.50195 29.498047 L 240.50195 20.5 z M 250.49609 20.5 L 259.50391 20.5 L 259.50391 29.498047 L 250.49609 29.498047 L 250.49609 20.5 z M 260.5 20.5 L 269.49805 20.5 L 269.49805 29.498047 L 260.5 29.498047 L 260.5 20.5 z M 270.50195 20.5 L 279.5 20.5 L 279.5 29.498047 L 270.50195 29.498047 L 270.50195 20.5 z M 280.49609 20.5 L 289.50391 20.5 L 289.50391 29.498047 L 280.49609 29.498047 L 280.49609 20.5 z M 290.5 20.5 L 300 20.5 L 309.5 20.5 L 309.5 29.498047 L 300 29.498047 L 290.5 29.498047 L 290.5 20.5 z M 310.49609 20.5 L 319.50391 20.5 L 319.50391 29.498047 L 310.49609 29.498047 L 310.49609 20.5 z M 320.5 20.5 L 329.49805 20.5 L 329.49805 29.498047 L 320.5 29.498047 L 320.5 20.5 z M 330.50195 20.5 L 349.50391 20.5 L 349.50391 29.498047 L 330.50195 29.498047 L 330.50195 20.5 z M 350.5 20.5 L 359.49805 20.5 L 359.49805 29.498047 L 350.5 29.498047 L 350.5 20.5 z M 360.50195 20.5 L 369.5 20.5 L 369.5 29.498047 L 360.50195 29.498047 L 360.50195 20.5 z M 370.49609 20.5 L 379.50391 20.5 L 379.50391 29.498047 L 370.49609 29.498047 L 370.49609 20.5 z M 380.5 20.5 L 389.49805 20.5 L 389.49805 29.498047 L 380.5 29.498047 L 380.5 20.5 z M 390.50195 20.5 L 400.00195 20.5 L 419.49805 20.5 L 419.49805 29.498047 L 400.00195 29.498047 L 390.50195 29.498047 L 390.50195 20.5 z M 420.50195 20.5 L 429.5 20.5 L 429.5 29.498047 L 420.50195 29.498047 L 420.50195 20.5 z M 430.49609 20.5 L 439.50391 20.5 L 439.50391 29.498047 L 430.49609 29.498047 L 430.49609 20.5 z M 440.5 20.5 L 449.49805 20.5 L 449.49805 29.498047 L 440.5 29.498047 L 440.5 20.5 z M 450.50195 20.5 L 469.50391 20.5 L 469.50391 29.498047 L 450.50195 29.498047 L 450.50195 20.5 z M 470.5 20.5 L 479.49805 20.5 L 479.49805 29.498047 L 470.5 29.498047 L 470.5 20.5 z M 480.50195 20.5 L 489.5 20.5 L 489.5 29.498047 L 480.50195 29.498047 L 480.50195 20.5 z M 10.496094 30.501953 L 19.503906 30.501953 L 19.503906 39.5 L 10.496094 39.5 L 10.496094 30.501953 z M 20.5 30.501953 L 29.498047 30.501953 L 29.498047 39.5 L 20.5 39.5 L 20.5 30.501953 z M 30.501953 30.501953 L 39.5 30.501953 L 39.5 39.5 L 30.501953 39.5 L 30.501953 30.501953 z M 40.496094 30.501953 L 49.503906 30.501953 L 49.503906 39.5 L 40.496094 39.5 L 40.496094 30.501953 z M 50.5 30.501953 L 59.498047 30.501953 L 59.498047 39.5 L 50.5 39.5 L 50.5 30.501953 z M 60.501953 30.501953 L 79.503906 30.501953 L 79.503906 39.5 L 60.501953 39.5 L 60.501953 30.501953 z M 80.5 30.501953 L 100.00195 30.501953 L 119.49805 30.501953 L 119.49805 39.5 L 100.00195 39.5 L 80.5 39.5 L 80.5 30.501953 z M 120.50195 30.501953 L 139.50391 30.501953 L 139.50391 39.5 L 120.50195 39.5 L 120.50195 30.501953 z M 140.5 30.501953 L 159.5 30.501953 L 159.5 39.5 L 140.5 39.5 L 140.5 30.501953 z M 160.49609 30.501953 L 169.50391 30.501953 L 169.50391 39.5 L 160.49609 39.5 L 160.49609 30.501953 z M 170.5 30.501953 L 179.49805 30.501953 L 179.49805 39.5 L 170.5 39.5 L 170.5 30.501953 z M 180.50195 30.501953 L 189.5 30.501953 L 189.5 39.5 L 180.50195 39.5 L 180.50195 30.501953 z M 190.49609 30.501953 L 199.99805 30.501953 L 219.5 30.501953 L 219.5 39.5 L 199.99805 39.5 L 190.49609 39.5 L 190.49609 30.501953 z M 220.49609 30.501953 L 229.50391 30.501953 L 229.50391 39.5 L 220.49609 39.5 L 220.49609 30.501953 z M 230.5 30.501953 L 239.49805 30.501953 L 239.49805 39.5 L 230.5 39.5 L 230.5 30.501953 z M 240.50195 30.501953 L 249.5 30.501953 L 249.5 39.5 L 240.50195 39.5 L 240.50195 30.501953 z M 250.49609 30.501953 L 259.50391 30.501953 L 259.50391 39.5 L 250.49609 39.5 L 250.49609 30.501953 z M 260.5 30.501953 L 269.49805 30.501953 L 269.49805 39.5 L 260.5 39.5 L 260.5 30.501953 z M 270.50195 30.501953 L 279.5 30.501953 L 279.5 39.5 L 270.50195 39.5 L 270.50195 30.501953 z M 280.49609 30.501953 L 289.50391 30.501953 L 289.50391 39.5 L 280.49609 39.5 L 280.49609 30.501953 z M 290.5 30.501953 L 300 30.501953 L 309.5 30.501953 L 309.5 39.5 L 300 39.5 L 290.5 39.5 L 290.5 30.501953 z M 310.49609 30.501953 L 319.50391 30.501953 L 319.50391 39.5 L 310.49609 39.5 L 310.49609 30.501953 z M 320.5 30.501953 L 329.49805 30.501953 L 329.49805 39.5 L 320.5 39.5 L 320.5 30.501953 z M 330.50195 30.501953 L 349.50391 30.501953 L 349.50391 39.5 L 330.50195 39.5 L 330.50195 30.501953 z M 350.5 30.501953 L 359.49805 30.501953 L 359.49805 39.5 L 350.5 39.5 L 350.5 30.501953 z M 360.50195 30.501953 L 369.5 30.501953 L 369.5 39.5 L 360.50195 39.5 L 360.50195 30.501953 z M 370.49609 30.501953 L 379.50391 30.501953 L 379.50391 39.5 L 370.49609 39.5 L 370.49609 30.501953 z M 380.5 30.501953 L 389.49805 30.501953 L 389.49805 39.5 L 380.5 39.5 L 380.5 30.501953 z M 390.50195 30.501953 L 400.00195 30.501953 L 419.49805 30.501953 L 419.49805 39.5 L 400.00195 39.5 L 390.50195 39.5 L 390.50195 30.501953 z M 420.50195 30.501953 L 429.5 30.501953 L 429.5 39.5 L 420.50195 39.5 L 420.50195 30.501953 z M 430.49609 30.501953 L 439.50391 30.501953 L 439.50391 39.5 L 430.49609 39.5 L 430.49609 30.501953 z M 440.5 30.501953 L 449.49805 30.501953 L 449.49805 39.5 L 440.5 39.5 L 440.5 30.501953 z M 450.50195 30.501953 L 469.50391 30.501953 L 469.50391 39.5 L 450.50195 39.5 L 450.50195 30.501953 z M 470.5 30.501953 L 479.49805 30.501953 L 479.49805 39.5 L 470.5 39.5 L 470.5 30.501953 z M 480.50195 30.501953 L 489.5 30.501953 L 489.5 39.5 L 480.50195 39.5 L 480.50195 30.501953 z M 10.496094 40.496094 L 19.503906 40.496094 L 19.503906 49.503906 L 10.496094 49.503906 L 10.496094 40.496094 z M 20.5 40.496094 L 29.498047 40.496094 L 29.498047 49.503906 L 20.5 49.503906 L 20.5 40.496094 z M 30.501953 40.496094 L 39.5 40.496094 L 39.5 49.503906 L 30.501953 49.503906 L 30.501953 40.496094 z M 40.496094 40.496094 L 49.503906 40.496094 L 49.503906 49.503906 L 40.496094 49.503906 L 40.496094 40.496094 z M 50.5 40.496094 L 59.498047 40.496094 L 59.498047 49.503906 L 50.5 49.503906 L 50.5 40.496094 z M 60.501953 40.496094 L 79.503906 40.496094 L 79.503906 49.503906 L 60.501953 49.503906 L 60.501953 40.496094 z M 80.5 40.496094 L 100.00195 40.496094 L 119.49805 40.496094 L 119.49805 49.503906 L 100.00195 49.503906 L 80.5 49.503906 L 80.5 40.496094 z M 120.50195 40.496094 L 139.50391 40.496094 L 139.50391 49.503906 L 120.50195 49.503906 L 120.50195 40.496094 z M 140.5 40.496094 L 159.5 40.496094 L 159.5 49.503906 L 140.5 49.503906 L 140.5 40.496094 z M 160.49609 40.496094 L 169.50391 40.496094 L 169.50391 49.503906 L 160.49609 49.503906 L 160.49609 40.496094 z M 170.5 40.496094 L 179.49805 40.496094 L 179.49805 49.503906 L 170.5 49.503906 L 170.5 40.496094 z M 180.50195 40.496094 L 189.5 40.496094 L 189.5 49.503906 L 180.50195 49.503906 L 180.50195 40.496094 z M 190.49609 40.496094 L 199.99805 40.496094 L 219.5 40.496094 L 219.5 59.498047 L 199.99805 59.498047 L 190.49609 59.498047 L 190.49609 50.5 L 199.99805 50.5 L 199.99805 49.503906 L 190.49609 49.503906 L 190.49609 40.496094 z M 220.49609 40.496094 L 229.50391 40.496094 L 229.50391 59.498047 L 220.49609 59.498047 L 220.49609 40.496094 z M 230.5 40.496094 L 239.49805 40.496094 L 239.49805 59.498047 L 230.5 59.498047 L 230.5 40.496094 z M 240.50195 40.496094 L 249.5 40.496094 L 249.5 59.498047 L 240.50195 59.498047 L 240.50195 40.496094 z M 250.49609 40.496094 L 259.50391 40.496094 L 259.50391 59.498047 L 250.49609 59.498047 L 250.49609 40.496094 z M 260.5 40.496094 L 269.49805 40.496094 L 269.49805 59.498047 L 260.5 59.498047 L 260.5 40.496094 z M 270.50195 40.496094 L 279.5 40.496094 L 279.5 59.498047 L 270.50195 59.498047 L 270.50195 40.496094 z M 280.49609 40.496094 L 289.50391 40.496094 L 289.50391 59.498047 L 280.49609 59.498047 L 280.49609 40.496094 z M 290.5 40.496094 L 300 40.496094 L 309.5 40.496094 L 309.5 59.498047 L 300 59.498047 L 290.5 59.498047 L 290.5 40.496094 z M 310.49609 40.496094 L 319.50391 40.496094 L 319.50391 59.498047 L 310.49609 59.498047 L 310.49609 40.496094 z M 320.5 40.496094 L 329.49805 40.496094 L 329.49805 59.498047 L 320.5 59.498047 L 320.5 40.496094 z M 330.50195 40.496094 L 349.50391 40.496094 L 349.50391 59.498047 L 330.50195 59.498047 L 330.50195 40.496094 z M 350.5 40.496094 L 359.49805 40.496094 L 359.49805 59.498047 L 350.5 59.498047 L 350.5 40.496094 z M 360.50195 40.496094 L 369.5 40.496094 L 369.5 59.498047 L 360.50195 59.498047 L 360.50195 40.496094 z M 370.49609 40.496094 L 379.50391 40.496094 L 379.50391 59.498047 L 370.49609 59.498047 L 370.49609 40.496094 z M 380.5 40.496094 L 389.49805 40.496094 L 389.49805 59.498047 L 380.5 59.498047 L 380.5 40.496094 z M 390.50195 40.496094 L 400.00195 40.496094 L 419.49805 40.496094 L 419.49805 59.498047 L 400.00195 59.498047 L 390.50195 59.498047 L 390.50195 40.496094 z M 420.50195 40.496094 L 429.5 40.496094 L 429.5 59.498047 L 420.50195 59.498047 L 420.50195 40.496094 z M 430.49609 40.496094 L 439.50391 40.496094 L 439.50391 59.498047 L 430.49609 59.498047 L 430.49609 40.496094 z M 440.5 40.496094 L 449.49805 40.496094 L 449.49805 59.498047 L 440.5 59.498047 L 440.5 40.496094 z M 450.50195 40.496094 L 469.50391 40.496094 L 469.50391 59.498047 L 450.50195 59.498047 L 450.50195 40.496094 z M 470.5 40.496094 L 479.49805 40.496094 L 479.49805 59.498047 L 470.5 59.498047 L 470.5 40.496094 z M 480.50195 40.496094 L 489.5 40.496094 L 489.5 59.498047 L 480.50195 59.498047 L 480.50195 40.496094 z M 10.496094 50.5 L 19.503906 50.5 L 19.503906 59.498047 L 10.496094 59.498047 L 10.496094 50.5 z M 20.5 50.5 L 29.498047 50.5 L 29.498047 59.498047 L 20.5 59.498047 L 20.5 50.5 z M 30.501953 50.5 L 39.5 50.5 L 39.5 59.498047 L 30.501953 59.498047 L 30.501953 50.5 z M 40.496094 50.5 L 49.503906 50.5 L 49.503906 59.498047 L 40.496094 59.498047 L 40.496094 50.5 z M 50.5 50.5 L 59.498047 50.5 L 59.498047 59.498047 L 50.5 59.498047 L 50.5 50.5 z M 60.501953 50.5 L 79.503906 50.5 L 79.503906 59.498047 L 60.501953 59.498047 L 60.501953 50.5 z M 80.5 50.5 L 100.00195 50.5 L 119.49805 50.5 L 119.49805 59.498047 L 100.00195 59.498047 L 80.5 59.498047 L 80.5 50.5 z M 120.50195 50.5 L 139.50391 50.5 L 139.50391 59.498047 L 120.50195 59.498047 L 120.50195 50.5 z M 140.5 50.5 L 159.5 50.5 L 159.5 59.498047 L 140.5 59.498047 L 140.5 50.5 z M 160.49609 50.5 L 169.50391 50.5 L 169.50391 59.498047 L 160.49609 59.498047 L 160.49609 50.5 z M 170.5 50.5 L 179.49805 50.5 L 179.49805 59.498047 L 170.5 59.498047 L 170.5 50.5 z M 180.50195 50.5 L 189.5 50.5 L 189.5 59.498047 L 180.50195 59.498047 L 180.50195 50.5 z M 10.496094 60.501953 L 19.503906 60.501953 L 19.503906 69.5 L 10.496094 69.5 L 10.496094 60.501953 z M 20.5 60.501953 L 29.498047 60.501953 L 29.498047 69.5 L 20.5 69.5 L 20.5 60.501953 z M 30.501953 60.501953 L 39.5 60.501953 L 39.5 69.5 L 30.501953 69.5 L 30.501953 60.501953 z M 40.496094 60.501953 L 49.503906 60.501953 L 49.503906 69.5 L 40.496094 69.5 L 40.496094 60.501953 z M 50.5 60.501953 L 59.498047 60.501953 L 59.498047 69.5 L 50.5 69.5 L 50.5 60.501953 z M 60.501953 60.501953 L 79.503906 60.501953 L 79.503906 69.5 L 60.501953 69.5 L 60.501953 60.501953 z M 80.5 60.501953 L 100.00195 60.501953 L 119.49805 60.501953 L 119.49805 69.5 L 100.00195 69.5 L 80.5 69.5 L 80.5 60.501953 z M 120.50195 60.501953 L 139.50391 60.501953 L 139.50391 69.5 L 120.50195 69.5 L 120.50195 60.501953 z M 140.5 60.501953 L 159.5 60.501953 L 159.5 69.5 L 140.5 69.5 L 140.5 60.501953 z M 160.49609 60.501953 L 169.50391 60.501953 L 169.50391 69.5 L 160.49609 69.5 L 160.49609 60.501953 z M 170.5 60.501953 L 179.49805 60.501953 L 179.49805 69.5 L 170.5 69.5 L 170.5 60.501953 z M 180.50195 60.501953 L 189.5 60.501953 L 189.5 69.5 L 180.50195 69.5 L 180.50195 60.501953 z M 190.49609 60.501953 L 199.99805 60.501953 L 219.5 60.501953 L 219.5 69.5 L 199.99805 69.5 L 190.49609 69.5 L 190.49609 60.501953 z M 220.49609 60.501953 L 229.50391 60.501953 L 229.50391 69.5 L 220.49609 69.5 L 220.49609 60.501953 z M 230.5 60.501953 L 239.49805 60.501953 L 239.49805 69.5 L 230.5 69.5 L 230.5 60.501953 z M 240.50195 60.501953 L 249.5 60.501953 L 249.5 69.5 L 240.50195 69.5 L 240.50195 60.501953 z M 250.49609 60.501953 L 259.50391 60.501953 L 259.50391 69.5 L 250.49609 69.5 L 250.49609 60.501953 z M 260.5 60.501953 L 269.49805 60.501953 L 269.49805 69.5 L 260.5 69.5 L 260.5 60.501953 z M 270.50195 60.501953 L 279.5 60.501953 L 279.5 69.5 L 270.50195 69.5 L 270.50195 60.501953 z M 280.49609 60.501953 L 289.50391 60.501953 L 289.50391 69.5 L 280.49609 69.5 L 280.49609 60.501953 z M 290.5 60.501953 L 300 60.501953 L 309.5 60.501953 L 309.5 69.5 L 300 69.5 L 290.5 69.5 L 290.5 60.501953 z M 310.49609 60.501953 L 319.50391 60.501953 L 319.50391 69.5 L 310.49609 69.5 L 310.49609 60.501953 z M 320.5 60.501953 L 329.49805 60.501953 L 329.49805 69.5 L 320.5 69.5 L 320.5 60.501953 z M 330.50195 60.501953 L 349.50391 60.501953 L 349.50391 69.5 L 330.50195 69.5 L 330.50195 60.501953 z M 350.5 60.501953 L 359.49805 60.501953 L 359.49805 69.5 L 350.5 69.5 L 350.5 60.501953 z M 360.50195 60.501953 L 369.5 60.501953 L 369.5 69.5 L 360.50195 69.5 L 360.50195 60.501953 z M 370.49609 60.501953 L 379.50391 60.501953 L 379.50391 69.5 L 370.49609 69.5 L 370.49609 60.501953 z M 380.5 60.501953 L 389.49805 60.501953 L 389.49805 69.5 L 380.5 69.5 L 380.5 60.501953 z M 390.50195 60.501953 L 400.00195 60.501953 L 419.49805 60.501953 L 419.49805 69.5 L 400.00195 69.5 L 390.50195 69.5 L 390.50195 60.501953 z M 420.50195 60.501953 L 429.5 60.501953 L 429.5 69.5 L 420.50195 69.5 L 420.50195 60.501953 z M 430.49609 60.501953 L 439.50391 60.501953 L 439.50391 69.5 L 430.49609 69.5 L 430.49609 60.501953 z M 440.5 60.501953 L 449.49805 60.501953 L 449.49805 69.5 L 440.5 69.5 L 440.5 60.501953 z M 450.50195 60.501953 L 469.50391 60.501953 L 469.50391 69.5 L 450.50195 69.5 L 450.50195 60.501953 z M 470.5 60.501953 L 479.49805 60.501953 L 479.49805 69.5 L 470.5 69.5 L 470.5 60.501953 z M 480.50195 60.501953 L 489.5 60.501953 L 489.5 69.5 L 480.50195 69.5 L 480.50195 60.501953 z M 10.496094 70.496094 L 19.503906 70.496094 L 19.503906 79.503906 L 10.496094 79.503906 L 10.496094 70.496094 z M 20.5 70.496094 L 29.498047 70.496094 L 29.498047 79.503906 L 20.5 79.503906 L 20.5 70.496094 z M 30.501953 70.496094 L 39.5 70.496094 L 39.5 79.503906 L 30.501953 79.503906 L 30.501953 70.496094 z M 40.496094 70.496094 L 49.503906 70.496094 L 49.503906 79.503906 L 40.496094 79.503906 L 40.496094 70.496094 z M 50.5 70.496094 L 59.498047 70.496094 L 59.498047 79.503906 L 50.5 79.503906 L 50.5 70.496094 z M 60.501953 70.496094 L 79.503906 70.496094 L 79.503906 79.503906 L 60.501953 79.503906 L 60.501953 70.496094 z M 80.5 70.496094 L 100.00195 70.496094 L 119.49805 70.496094 L 119.49805 79.503906 L 100.00195 79.503906 L 80.5 79.503906 L 80.5 70.496094 z M 120.50195 70.496094 L 139.50391 70.496094 L 139.50391 79.503906 L 120.50195 79.503906 L 120.50195 70.496094 z M 140.5 70.496094 L 159.5 70.496094 L 159.5 79.503906 L 140.5 79.503906 L 140.5 70.496094 z M 160.49609 70.496094 L 169.50391 70.496094 L 169.50391 79.503906 L 160.49609 79.503906 L 160.49609 70.496094 z M 170.5 70.496094 L 179.49805 70.496094 L 179.49805 79.503906 L 170.5 79.503906 L 170.5 70.496094 z M 180.50195 70.496094 L 189.5 70.496094 L 189.5 79.503906 L 180.50195 79.503906 L 180.50195 70.496094 z M 190.49609 70.496094 L 199.99805 70.496094 L 219.5 70.496094 L 219.5 79.503906 L 199.99805 79.503906 L 190.49609 79.503906 L 190.49609 70.496094 z M 220.49609 70.496094 L 229.50391 70.496094 L 229.50391 79.503906 L 220.49609 79.503906 L 220.49609 70.496094 z M 230.5 70.496094 L 239.49805 70.496094 L 239.49805 79.503906 L 230.5 79.503906 L 230.5 70.496094 z M 240.50195 70.496094 L 249.5 70.496094 L 249.5 79.503906 L 240.50195 79.503906 L 240.50195 70.496094 z M 250.49609 70.496094 L 259.50391 70.496094 L 259.50391 79.503906 L 250.49609 79.503906 L 250.49609 70.496094 z M 260.5 70.496094 L 269.49805 70.496094 L 269.49805 79.503906 L 260.5 79.503906 L 260.5 70.496094 z M 270.50195 70.496094 L 279.5 70.496094 L 279.5 79.503906 L 270.50195 79.503906 L 270.50195 70.496094 z M 280.49609 70.496094 L 289.50391 70.496094 L 289.50391 79.503906 L 280.49609 79.503906 L 280.49609 70.496094 z M 290.5 70.496094 L 300 70.496094 L 309.5 70.496094 L 309.5 79.503906 L 300 79.503906 L 290.5 79.503906 L 290.5 70.496094 z M 310.49609 70.496094 L 319.50391 70.496094 L 319.50391 79.503906 L 310.49609 79.503906 L 310.49609 70.496094 z M 320.5 70.496094 L 329.49805 70.496094 L 329.49805 79.503906 L 320.5 79.503906 L 320.5 70.496094 z M 330.50195 70.496094 L 349.50391 70.496094 L 349.50391 79.503906 L 330.50195 79.503906 L 330.50195 70.496094 z M 350.5 70.496094 L 359.49805 70.496094 L 359.49805 79.503906 L 350.5 79.503906 L 350.5 70.496094 z M 360.50195 70.496094 L 369.5 70.496094 L 369.5 79.503906 L 360.50195 79.503906 L 360.50195 70.496094 z M 370.49609 70.496094 L 379.50391 70.496094 L 379.50391 79.503906 L 370.49609 79.503906 L 370.49609 70.496094 z M 380.5 70.496094 L 389.49805 70.496094 L 389.49805 79.503906 L 380.5 79.503906 L 380.5 70.496094 z M 390.50195 70.496094 L 400.00195 70.496094 L 419.49805 70.496094 L 419.49805 79.503906 L 400.00195 79.503906 L 390.50195 79.503906 L 390.50195 70.496094 z M 420.50195 70.496094 L 429.5 70.496094 L 429.5 79.503906 L 420.50195 79.503906 L 420.50195 70.496094 z M 430.49609 70.496094 L 439.50391 70.496094 L 439.50391 79.503906 L 430.49609 79.503906 L 430.49609 70.496094 z M 440.5 70.496094 L 449.49805 70.496094 L 449.49805 79.503906 L 440.5 79.503906 L 440.5 70.496094 z M 450.50195 70.496094 L 469.50391 70.496094 L 469.50391 79.503906 L 450.50195 79.503906 L 450.50195 70.496094 z M 470.5 70.496094 L 479.49805 70.496094 L 479.49805 79.503906 L 470.5 79.503906 L 470.5 70.496094 z M 480.50195 70.496094 L 489.5 70.496094 L 489.5 79.503906 L 480.50195 79.503906 L 480.50195 70.496094 z M 30.501953 80.5 L 39.5 80.5 L 39.5 100.00195 L 40.496094 100.00195 L 40.496094 80.5 L 49.503906 80.5 L 49.503906 100.00195 L 49.503906 109.50391 L 30.501953 109.50391 L 30.501953 100.00195 L 30.501953 80.5 z M 50.5 80.5 L 59.498047 80.5 L 59.498047 100.00195 L 59.498047 109.50391 L 50.5 109.50391 L 50.5 100.00195 L 50.5 80.5 z M 60.501953 80.5 L 79.503906 80.5 L 79.503906 100.00195 L 79.503906 109.50391 L 60.501953 109.50391 L 60.501953 100.00195 L 60.501953 80.5 z M 80.5 80.5 L 100.00195 80.5 L 119.49805 80.5 L 119.49805 100.00195 L 119.49805 109.50391 L 100.00195 109.50391 L 80.5 109.50391 L 80.5 100.00195 L 80.5 80.5 z M 120.50195 80.5 L 139.50391 80.5 L 139.50391 100.00195 L 139.50391 109.50391 L 120.50195 109.50391 L 120.50195 100.00195 L 120.50195 80.5 z M 140.5 80.5 L 159.5 80.5 L 159.5 100.00195 L 160.49609 100.00195 L 160.49609 80.5 L 169.50391 80.5 L 169.50391 100.00195 L 169.50391 109.50391 L 140.5 109.50391 L 140.5 100.00195 L 140.5 80.5 z M 170.5 80.5 L 179.49805 80.5 L 179.49805 100.00195 L 180.50195 100.00195 L 180.50195 80.5 L 189.5 80.5 L 189.5 100.00195 L 189.5 109.50391 L 170.5 109.50391 L 170.5 100.00195 L 170.5 80.5 z M 190.49609 80.5 L 199.99805 80.5 L 219.5 80.5 L 219.5 100.00195 L 219.5 109.50391 L 199.99805 109.50391 L 190.49609 109.50391 L 190.49609 100.00195 L 190.49609 80.5 z M 220.49609 80.5 L 229.50391 80.5 L 229.50391 100.00195 L 229.50391 109.50391 L 220.49609 109.50391 L 220.49609 100.00195 L 220.49609 80.5 z M 230.5 80.5 L 239.49805 80.5 L 239.49805 100.00195 L 239.49805 109.50391 L 230.5 109.50391 L 230.5 100.00195 L 230.5 80.5 z M 240.50195 80.5 L 249.5 80.5 L 249.5 100.00195 L 249.5 109.50391 L 240.50195 109.50391 L 240.50195 100.00195 L 240.50195 80.5 z M 250.49609 80.5 L 259.50391 80.5 L 259.50391 100.00195 L 259.50391 109.50391 L 250.49609 109.50391 L 250.49609 100.00195 L 250.49609 80.5 z M 260.5 80.5 L 269.49805 80.5 L 269.49805 100.00195 L 269.49805 109.50391 L 260.5 109.50391 L 260.5 100.00195 L 260.5 80.5 z M 270.50195 80.5 L 279.5 80.5 L 279.5 100.00195 L 279.5 109.50391 L 270.50195 109.50391 L 270.50195 100.00195 L 270.50195 80.5 z M 280.49609 80.5 L 289.50391 80.5 L 289.50391 100.00195 L 290.5 100.00195 L 290.5 80.5 L 300 80.5 L 309.5 80.5 L 309.5 89.498047 L 300 89.498047 L 300 90.501953 L 309.5 90.501953 L 309.5 100.00195 L 309.5 109.50391 L 300 109.50391 L 280.49609 109.50391 L 280.49609 100.00195 L 280.49609 80.5 z M 310.49609 80.5 L 319.50391 80.5 L 319.50391 89.498047 L 310.49609 89.498047 L 310.49609 80.5 z M 320.5 80.5 L 329.49805 80.5 L 329.49805 89.498047 L 320.5 89.498047 L 320.5 80.5 z M 330.50195 80.5 L 349.50391 80.5 L 349.50391 89.498047 L 330.50195 89.498047 L 330.50195 80.5 z M 350.5 80.5 L 359.49805 80.5 L 359.49805 89.498047 L 350.5 89.498047 L 350.5 80.5 z M 360.50195 80.5 L 369.5 80.5 L 369.5 89.498047 L 360.50195 89.498047 L 360.50195 80.5 z M 370.49609 80.5 L 379.50391 80.5 L 379.50391 89.498047 L 370.49609 89.498047 L 370.49609 80.5 z M 380.5 80.5 L 389.49805 80.5 L 389.49805 89.498047 L 380.5 89.498047 L 380.5 80.5 z M 390.50195 80.5 L 400.00195 80.5 L 419.49805 80.5 L 419.49805 89.498047 L 400.00195 89.498047 L 390.50195 89.498047 L 390.50195 80.5 z M 420.50195 80.5 L 429.5 80.5 L 429.5 89.498047 L 420.50195 89.498047 L 420.50195 80.5 z M 430.49609 80.5 L 439.50391 80.5 L 439.50391 89.498047 L 430.49609 89.498047 L 430.49609 80.5 z M 440.5 80.5 L 449.49805 80.5 L 449.49805 89.498047 L 440.5 89.498047 L 440.5 80.5 z M 450.50195 80.5 L 469.50391 80.5 L 469.50391 89.498047 L 450.50195 89.498047 L 450.50195 80.5 z M 470.5 80.5 L 479.49805 80.5 L 479.49805 89.498047 L 470.5 89.498047 L 470.5 80.5 z M 480.50195 80.5 L 489.5 80.5 L 489.5 89.498047 L 480.50195 89.498047 L 480.50195 80.5 z M 310.49609 90.501953 L 319.50391 90.501953 L 319.50391 100.00195 L 319.50391 109.50391 L 310.49609 109.50391 L 310.49609 100.00195 L 310.49609 90.501953 z M 320.5 90.501953 L 329.49805 90.501953 L 329.49805 100.00195 L 329.49805 109.50391 L 320.5 109.50391 L 320.5 100.00195 L 320.5 90.501953 z M 330.50195 90.501953 L 349.50391 90.501953 L 349.50391 100.00195 L 349.50391 109.50391 L 330.50195 109.50391 L 330.50195 100.00195 L 330.50195 90.501953 z M 350.5 90.501953 L 359.49805 90.501953 L 359.49805 100.00195 L 359.49805 109.50391 L 350.5 109.50391 L 350.5 100.00195 L 350.5 90.501953 z M 360.50195 90.501953 L 369.5 90.501953 L 369.5 100.00195 L 370.49609 100.00195 L 370.49609 90.501953 L 379.50391 90.501953 L 379.50391 100.00195 L 380.5 100.00195 L 380.5 90.501953 L 389.49805 90.501953 L 389.49805 100.00195 L 389.49805 109.50391 L 360.50195 109.50391 L 360.50195 100.00195 L 360.50195 90.501953 z M 390.50195 90.501953 L 400.00195 90.501953 L 419.49805 90.501953 L 419.49805 100.00195 L 419.49805 109.50391 L 400.00195 109.50391 L 390.50195 109.50391 L 390.50195 100.00195 L 390.50195 90.501953 z M 420.50195 90.501953 L 429.5 90.501953 L 429.5 100.00195 L 430.49609 100.00195 L 430.49609 90.501953 L 439.50391 90.501953 L 439.50391 100.00195 L 439.50391 109.50391 L 420.50195 109.50391 L 420.50195 100.00195 L 420.50195 90.501953 z M 440.5 90.501953 L 449.49805 90.501953 L 449.49805 100.00195 L 449.49805 109.50391 L 440.5 109.50391 L 440.5 100.00195 L 440.5 90.501953 z M 450.50195 90.501953 L 469.50391 90.501953 L 469.50391 100.00195 L 469.50391 109.50391 L 450.50195 109.50391 L 450.50195 100.00195 L 450.50195 90.501953 z M 470.5 90.501953 L 479.49805 90.501953 L 479.49805 100.00195 L 479.49805 109.50391 L 470.5 109.50391 L 470.5 100.00195 L 470.5 90.501953 z M 480.50195 90.501953 L 489.5 90.501953 L 489.5 100.00195 L 489.5 109.50391 L 480.50195 109.50391 L 480.50195 100.00195 L 480.50195 90.501953 z M 30.501953 110.5 L 49.503906 110.5 L 49.503906 119.49805 L 30.501953 119.49805 L 30.501953 110.5 z M 50.5 110.5 L 59.498047 110.5 L 59.498047 119.49805 L 50.5 119.49805 L 50.5 110.5 z M 60.501953 110.5 L 79.503906 110.5 L 79.503906 119.49805 L 60.501953 119.49805 L 60.501953 110.5 z M 80.5 110.5 L 100.00195 110.5 L 119.49805 110.5 L 119.49805 119.49805 L 100.00195 119.49805 L 80.5 119.49805 L 80.5 110.5 z M 120.50195 110.5 L 139.50391 110.5 L 139.50391 119.49805 L 120.50195 119.49805 L 120.50195 110.5 z M 140.5 110.5 L 169.50391 110.5 L 169.50391 119.49805 L 140.5 119.49805 L 140.5 110.5 z M 170.5 110.5 L 189.5 110.5 L 189.5 119.49805 L 170.5 119.49805 L 170.5 110.5 z M 190.49609 110.5 L 199.99805 110.5 L 219.5 110.5 L 219.5 119.49805 L 199.99805 119.49805 L 190.49609 119.49805 L 190.49609 110.5 z M 220.49609 110.5 L 229.50391 110.5 L 229.50391 119.49805 L 220.49609 119.49805 L 220.49609 110.5 z M 230.5 110.5 L 239.49805 110.5 L 239.49805 119.49805 L 230.5 119.49805 L 230.5 110.5 z M 240.50195 110.5 L 249.5 110.5 L 249.5 119.49805 L 240.50195 119.49805 L 240.50195 110.5 z M 250.49609 110.5 L 259.50391 110.5 L 259.50391 119.49805 L 250.49609 119.49805 L 250.49609 110.5 z M 260.5 110.5 L 269.49805 110.5 L 269.49805 119.49805 L 260.5 119.49805 L 260.5 110.5 z M 270.50195 110.5 L 279.5 110.5 L 279.5 119.49805 L 270.50195 119.49805 L 270.50195 110.5 z M 280.49609 110.5 L 300 110.5 L 309.5 110.5 L 309.5 119.49805 L 300 119.49805 L 280.49609 119.49805 L 280.49609 110.5 z M 310.49609 110.5 L 319.50391 110.5 L 319.50391 119.49805 L 310.49609 119.49805 L 310.49609 110.5 z M 320.5 110.5 L 329.49805 110.5 L 329.49805 119.49805 L 320.5 119.49805 L 320.5 110.5 z M 330.50195 110.5 L 349.50391 110.5 L 349.50391 119.49805 L 330.50195 119.49805 L 330.50195 110.5 z M 350.5 110.5 L 359.49805 110.5 L 359.49805 119.49805 L 350.5 119.49805 L 350.5 110.5 z M 360.50195 110.5 L 389.49805 110.5 L 389.49805 119.49805 L 360.50195 119.49805 L 360.50195 110.5 z M 390.50195 110.5 L 400.00195 110.5 L 419.49805 110.5 L 419.49805 119.49805 L 400.00195 119.49805 L 390.50195 119.49805 L 390.50195 110.5 z M 420.50195 110.5 L 439.50391 110.5 L 439.50391 119.49805 L 420.50195 119.49805 L 420.50195 110.5 z M 440.5 110.5 L 449.49805 110.5 L 449.49805 119.49805 L 440.5 119.49805 L 440.5 110.5 z M 450.50195 110.5 L 469.50391 110.5 L 469.50391 119.49805 L 450.50195 119.49805 L 450.50195 110.5 z M 470.5 110.5 L 479.49805 110.5 L 479.49805 119.49805 L 470.5 119.49805 L 470.5 110.5 z M 480.50195 110.5 L 489.5 110.5 L 489.5 119.49805 L 480.50195 119.49805 L 480.50195 110.5 z M 30.501953 120.50195 L 49.503906 120.50195 L 49.503906 129.5 L 30.501953 129.5 L 30.501953 120.50195 z M 50.5 120.50195 L 59.498047 120.50195 L 59.498047 129.5 L 50.5 129.5 L 50.5 120.50195 z M 60.501953 120.50195 L 79.503906 120.50195 L 79.503906 129.5 L 60.501953 129.5 L 60.501953 120.50195 z M 80.5 120.50195 L 100.00195 120.50195 L 119.49805 120.50195 L 119.49805 129.5 L 100.00195 129.5 L 80.5 129.5 L 80.5 120.50195 z M 120.50195 120.50195 L 139.50391 120.50195 L 139.50391 129.5 L 120.50195 129.5 L 120.50195 120.50195 z M 140.5 120.50195 L 169.50391 120.50195 L 169.50391 129.5 L 140.5 129.5 L 140.5 120.50195 z M 170.5 120.50195 L 189.5 120.50195 L 189.5 129.5 L 170.5 129.5 L 170.5 120.50195 z M 190.49609 120.50195 L 199.99805 120.50195 L 219.5 120.50195 L 219.5 129.5 L 199.99805 129.5 L 190.49609 129.5 L 190.49609 120.50195 z M 220.49609 120.50195 L 229.50391 120.50195 L 229.50391 129.5 L 220.49609 129.5 L 220.49609 120.50195 z M 230.5 120.50195 L 239.49805 120.50195 L 239.49805 129.5 L 230.5 129.5 L 230.5 120.50195 z M 240.50195 120.50195 L 249.5 120.50195 L 249.5 129.5 L 240.50195 129.5 L 240.50195 120.50195 z M 250.49609 120.50195 L 259.50391 120.50195 L 259.50391 129.5 L 250.49609 129.5 L 250.49609 120.50195 z M 260.5 120.50195 L 269.49805 120.50195 L 269.49805 129.5 L 260.5 129.5 L 260.5 120.50195 z M 270.50195 120.50195 L 279.5 120.50195 L 279.5 129.5 L 270.50195 129.5 L 270.50195 120.50195 z M 280.49609 120.50195 L 300 120.50195 L 309.5 120.50195 L 309.5 149.49805 L 300 149.49805 L 280.49609 149.49805 L 280.49609 140.5 L 300 140.5 L 300 139.50391 L 280.49609 139.50391 L 280.49609 130.49609 L 300 130.49609 L 300 129.5 L 280.49609 129.5 L 280.49609 120.50195 z M 310.49609 120.50195 L 319.50391 120.50195 L 319.50391 149.49805 L 310.49609 149.49805 L 310.49609 120.50195 z M 320.5 120.50195 L 329.49805 120.50195 L 329.49805 149.49805 L 320.5 149.49805 L 320.5 120.50195 z M 330.50195 120.50195 L 349.50391 120.50195 L 349.50391 149.49805 L 330.50195 149.49805 L 330.50195 120.50195 z M 350.5 120.50195 L 359.49805 120.50195 L 359.49805 149.49805 L 350.5 149.49805 L 350.5 120.50195 z M 360.50195 120.50195 L 389.49805 120.50195 L 389.49805 149.49805 L 360.50195 149.49805 L 360.50195 120.50195 z M 390.50195 120.50195 L 400.00195 120.50195 L 419.49805 120.50195 L 419.49805 149.49805 L 400.00195 149.49805 L 390.50195 149.49805 L 390.50195 120.50195 z M 420.50195 120.50195 L 439.50391 120.50195 L 439.50391 149.49805 L 420.50195 149.49805 L 420.50195 120.50195 z M 440.5 120.50195 L 449.49805 120.50195 L 449.49805 149.49805 L 440.5 149.49805 L 440.5 120.50195 z M 450.50195 120.50195 L 469.50391 120.50195 L 469.50391 149.49805 L 450.50195 149.49805 L 450.50195 120.50195 z M 470.5 120.50195 L 479.49805 120.50195 L 479.49805 149.49805 L 470.5 149.49805 L 470.5 120.50195 z M 480.50195 120.50195 L 489.5 120.50195 L 489.5 149.49805 L 480.50195 149.49805 L 480.50195 120.50195 z M 30.501953 130.49609 L 49.503906 130.49609 L 49.503906 139.50391 L 30.501953 139.50391 L 30.501953 130.49609 z M 50.5 130.49609 L 59.498047 130.49609 L 59.498047 139.50391 L 50.5 139.50391 L 50.5 130.49609 z M 60.501953 130.49609 L 79.503906 130.49609 L 79.503906 139.50391 L 60.501953 139.50391 L 60.501953 130.49609 z M 80.5 130.49609 L 100.00195 130.49609 L 119.49805 130.49609 L 119.49805 139.50391 L 100.00195 139.50391 L 80.5 139.50391 L 80.5 130.49609 z M 120.50195 130.49609 L 139.50391 130.49609 L 139.50391 139.50391 L 120.50195 139.50391 L 120.50195 130.49609 z M 140.5 130.49609 L 169.50391 130.49609 L 169.50391 139.50391 L 140.5 139.50391 L 140.5 130.49609 z M 170.5 130.49609 L 189.5 130.49609 L 189.5 139.50391 L 170.5 139.50391 L 170.5 130.49609 z M 190.49609 130.49609 L 199.99805 130.49609 L 219.5 130.49609 L 219.5 139.50391 L 199.99805 139.50391 L 190.49609 139.50391 L 190.49609 130.49609 z M 220.49609 130.49609 L 229.50391 130.49609 L 229.50391 139.50391 L 220.49609 139.50391 L 220.49609 130.49609 z M 230.5 130.49609 L 239.49805 130.49609 L 239.49805 139.50391 L 230.5 139.50391 L 230.5 130.49609 z M 240.50195 130.49609 L 249.5 130.49609 L 249.5 139.50391 L 240.50195 139.50391 L 240.50195 130.49609 z M 250.49609 130.49609 L 259.50391 130.49609 L 259.50391 139.50391 L 250.49609 139.50391 L 250.49609 130.49609 z M 260.5 130.49609 L 269.49805 130.49609 L 269.49805 139.50391 L 260.5 139.50391 L 260.5 130.49609 z M 270.50195 130.49609 L 279.5 130.49609 L 279.5 139.50391 L 270.50195 139.50391 L 270.50195 130.49609 z M 30.501953 140.5 L 49.503906 140.5 L 49.503906 149.49805 L 30.501953 149.49805 L 30.501953 140.5 z M 50.5 140.5 L 59.498047 140.5 L 59.498047 149.49805 L 50.5 149.49805 L 50.5 140.5 z M 60.501953 140.5 L 79.503906 140.5 L 79.503906 149.49805 L 60.501953 149.49805 L 60.501953 140.5 z M 80.5 140.5 L 100.00195 140.5 L 119.49805 140.5 L 119.49805 149.49805 L 100.00195 149.49805 L 80.5 149.49805 L 80.5 140.5 z M 120.50195 140.5 L 139.50391 140.5 L 139.50391 149.49805 L 120.50195 149.49805 L 120.50195 140.5 z M 140.5 140.5 L 169.50391 140.5 L 169.50391 149.49805 L 140.5 149.49805 L 140.5 140.5 z M 170.5 140.5 L 189.5 140.5 L 189.5 149.49805 L 170.5 149.49805 L 170.5 140.5 z M 190.49609 140.5 L 199.99805 140.5 L 219.5 140.5 L 219.5 149.49805 L 199.99805 149.49805 L 190.49609 149.49805 L 190.49609 140.5 z M 220.49609 140.5 L 229.50391 140.5 L 229.50391 149.49805 L 220.49609 149.49805 L 220.49609 140.5 z M 230.5 140.5 L 239.49805 140.5 L 239.49805 149.49805 L 230.5 149.49805 L 230.5 140.5 z M 240.50195 140.5 L 249.5 140.5 L 249.5 149.49805 L 240.50195 149.49805 L 240.50195 140.5 z M 250.49609 140.5 L 259.50391 140.5 L 259.50391 149.49805 L 250.49609 149.49805 L 250.49609 140.5 z M 260.5 140.5 L 269.49805 140.5 L 269.49805 149.49805 L 260.5 149.49805 L 260.5 140.5 z M 270.50195 140.5 L 279.5 140.5 L 279.5 149.49805 L 270.50195 149.49805 L 270.50195 140.5 z M 30.501953 150.50195 L 49.503906 150.50195 L 49.503906 169.50391 L 30.501953 169.50391 L 30.501953 150.50195 z M 50.5 150.50195 L 59.498047 150.50195 L 59.498047 169.50391 L 50.5 169.50391 L 50.5 150.50195 z M 60.501953 150.50195 L 79.503906 150.50195 L 79.503906 169.50391 L 60.501953 169.50391 L 60.501953 150.50195 z M 80.5 150.50195 L 100.00195 150.50195 L 119.49805 150.50195 L 119.49805 169.50391 L 100.00195 169.50391 L 80.5 169.50391 L 80.5 150.50195 z M 120.50195 150.50195 L 139.50391 150.50195 L 139.50391 169.50391 L 120.50195 169.50391 L 120.50195 150.50195 z M 140.5 150.50195 L 169.50391 150.50195 L 169.50391 169.50391 L 140.5 169.50391 L 140.5 150.50195 z M 170.5 150.50195 L 189.5 150.50195 L 189.5 169.50391 L 170.5 169.50391 L 170.5 150.50195 z M 190.49609 150.50195 L 199.99805 150.50195 L 219.5 150.50195 L 219.5 169.50391 L 199.99805 169.50391 L 190.49609 169.50391 L 190.49609 150.50195 z M 220.49609 150.50195 L 229.50391 150.50195 L 229.50391 169.50391 L 220.49609 169.50391 L 220.49609 150.50195 z M 230.5 150.50195 L 239.49805 150.50195 L 239.49805 169.50391 L 230.5 169.50391 L 230.5 150.50195 z M 240.50195 150.50195 L 249.5 150.50195 L 249.5 169.50391 L 240.50195 169.50391 L 240.50195 150.50195 z M 250.49609 150.50195 L 259.50391 150.50195 L 259.50391 169.50391 L 250.49609 169.50391 L 250.49609 150.50195 z M 260.5 150.50195 L 269.49805 150.50195 L 269.49805 169.50391 L 260.5 169.50391 L 260.5 150.50195 z M 270.50195 150.50195 L 279.5 150.50195 L 279.5 169.50391 L 270.50195 169.50391 L 270.50195 150.50195 z M 280.49609 150.50195 L 300 150.50195 L 309.5 150.50195 L 309.5 169.50391 L 300 169.50391 L 280.49609 169.50391 L 280.49609 150.50195 z M 310.49609 150.50195 L 319.50391 150.50195 L 319.50391 169.50391 L 310.49609 169.50391 L 310.49609 150.50195 z M 320.5 150.50195 L 329.49805 150.50195 L 329.49805 169.50391 L 320.5 169.50391 L 320.5 150.50195 z M 330.50195 150.50195 L 349.50391 150.50195 L 349.50391 169.50391 L 330.50195 169.50391 L 330.50195 150.50195 z M 350.5 150.50195 L 359.49805 150.50195 L 359.49805 169.50391 L 350.5 169.50391 L 350.5 150.50195 z M 360.50195 150.50195 L 389.49805 150.50195 L 389.49805 169.50391 L 360.50195 169.50391 L 360.50195 150.50195 z M 390.50195 150.50195 L 400.00195 150.50195 L 419.49805 150.50195 L 419.49805 159.5 L 400.00195 159.5 L 400.00195 160.49609 L 419.49805 160.49609 L 419.49805 169.50391 L 400.00195 169.50391 L 390.50195 169.50391 L 390.50195 150.50195 z M 420.50195 150.50195 L 439.50391 150.50195 L 439.50391 159.5 L 420.50195 159.5 L 420.50195 150.50195 z M 440.5 150.50195 L 449.49805 150.50195 L 449.49805 159.5 L 440.5 159.5 L 440.5 150.50195 z M 450.50195 150.50195 L 469.50391 150.50195 L 469.50391 159.5 L 450.50195 159.5 L 450.50195 150.50195 z M 470.5 150.50195 L 479.49805 150.50195 L 479.49805 159.5 L 470.5 159.5 L 470.5 150.50195 z M 480.50195 150.50195 L 489.5 150.50195 L 489.5 159.5 L 480.50195 159.5 L 480.50195 150.50195 z M 420.50195 160.49609 L 439.50391 160.49609 L 439.50391 169.50391 L 420.50195 169.50391 L 420.50195 160.49609 z M 440.5 160.49609 L 449.49805 160.49609 L 449.49805 169.50391 L 440.5 169.50391 L 440.5 160.49609 z M 450.50195 160.49609 L 469.50391 160.49609 L 469.50391 169.50391 L 450.50195 169.50391 L 450.50195 160.49609 z M 470.5 160.49609 L 479.49805 160.49609 L 479.49805 169.50391 L 470.5 169.50391 L 470.5 160.49609 z M 480.50195 160.49609 L 489.5 160.49609 L 489.5 169.50391 L 480.50195 169.50391 L 480.50195 160.49609 z M 30.501953 170.5 L 49.503906 170.5 L 49.503906 179.49805 L 30.501953 179.49805 L 30.501953 170.5 z M 50.5 170.5 L 59.498047 170.5 L 59.498047 179.49805 L 50.5 179.49805 L 50.5 170.5 z M 60.501953 170.5 L 79.503906 170.5 L 79.503906 179.49805 L 60.501953 179.49805 L 60.501953 170.5 z M 80.5 170.5 L 100.00195 170.5 L 119.49805 170.5 L 119.49805 179.49805 L 100.00195 179.49805 L 80.5 179.49805 L 80.5 170.5 z M 120.50195 170.5 L 139.50391 170.5 L 139.50391 179.49805 L 120.50195 179.49805 L 120.50195 170.5 z M 140.5 170.5 L 169.50391 170.5 L 169.50391 179.49805 L 140.5 179.49805 L 140.5 170.5 z M 170.5 170.5 L 189.5 170.5 L 189.5 179.49805 L 170.5 179.49805 L 170.5 170.5 z M 190.49609 170.5 L 199.99805 170.5 L 219.5 170.5 L 219.5 179.49805 L 199.99805 179.49805 L 190.49609 179.49805 L 190.49609 170.5 z M 220.49609 170.5 L 229.50391 170.5 L 229.50391 179.49805 L 220.49609 179.49805 L 220.49609 170.5 z M 230.5 170.5 L 239.49805 170.5 L 239.49805 179.49805 L 230.5 179.49805 L 230.5 170.5 z M 240.50195 170.5 L 249.5 170.5 L 249.5 179.49805 L 240.50195 179.49805 L 240.50195 170.5 z M 250.49609 170.5 L 259.50391 170.5 L 259.50391 179.49805 L 250.49609 179.49805 L 250.49609 170.5 z M 260.5 170.5 L 269.49805 170.5 L 269.49805 179.49805 L 260.5 179.49805 L 260.5 170.5 z M 270.50195 170.5 L 279.5 170.5 L 279.5 179.49805 L 270.50195 179.49805 L 270.50195 170.5 z M 280.49609 170.5 L 300 170.5 L 309.5 170.5 L 309.5 189.5 L 300 189.5 L 280.49609 189.5 L 280.49609 180.50195 L 300 180.50195 L 300 179.49805 L 280.49609 179.49805 L 280.49609 170.5 z M 310.49609 170.5 L 319.50391 170.5 L 319.50391 189.5 L 310.49609 189.5 L 310.49609 170.5 z M 320.5 170.5 L 329.49805 170.5 L 329.49805 189.5 L 320.5 189.5 L 320.5 170.5 z M 330.50195 170.5 L 349.50391 170.5 L 349.50391 189.5 L 330.50195 189.5 L 330.50195 170.5 z M 350.5 170.5 L 359.49805 170.5 L 359.49805 189.5 L 350.5 189.5 L 350.5 170.5 z M 360.50195 170.5 L 389.49805 170.5 L 389.49805 189.5 L 360.50195 189.5 L 360.50195 170.5 z M 390.50195 170.5 L 400.00195 170.5 L 419.49805 170.5 L 419.49805 189.5 L 400.00195 189.5 L 390.50195 189.5 L 390.50195 170.5 z M 420.50195 170.5 L 439.50391 170.5 L 439.50391 189.5 L 420.50195 189.5 L 420.50195 170.5 z M 440.5 170.5 L 449.49805 170.5 L 449.49805 189.5 L 440.5 189.5 L 440.5 170.5 z M 450.50195 170.5 L 469.50391 170.5 L 469.50391 189.5 L 450.50195 189.5 L 450.50195 170.5 z M 470.5 170.5 L 479.49805 170.5 L 479.49805 189.5 L 470.5 189.5 L 470.5 170.5 z M 480.50195 170.5 L 489.5 170.5 L 489.5 189.5 L 480.50195 189.5 L 480.50195 170.5 z M 120.50195 180.50195 L 139.50391 180.50195 L 139.50391 189.5 L 120.50195 189.5 L 120.50195 180.50195 z M 140.5 180.50195 L 169.50391 180.50195 L 169.50391 189.5 L 140.5 189.5 L 140.5 180.50195 z M 170.5 180.50195 L 189.5 180.50195 L 189.5 189.5 L 170.5 189.5 L 170.5 180.50195 z M 190.49609 180.50195 L 199.99805 180.50195 L 219.5 180.50195 L 219.5 189.5 L 199.99805 189.5 L 190.49609 189.5 L 190.49609 180.50195 z M 220.49609 180.50195 L 229.50391 180.50195 L 229.50391 189.5 L 220.49609 189.5 L 220.49609 180.50195 z M 230.5 180.50195 L 239.49805 180.50195 L 239.49805 189.5 L 230.5 189.5 L 230.5 180.50195 z M 240.50195 180.50195 L 249.5 180.50195 L 249.5 189.5 L 240.50195 189.5 L 240.50195 180.50195 z M 250.49609 180.50195 L 259.50391 180.50195 L 259.50391 189.5 L 250.49609 189.5 L 250.49609 180.50195 z M 260.5 180.50195 L 269.49805 180.50195 L 269.49805 189.5 L 260.5 189.5 L 260.5 180.50195 z M 270.50195 180.50195 L 279.5 180.50195 L 279.5 189.5 L 270.50195 189.5 L 270.50195 180.50195 z M 120.50195 190.49609 L 139.50391 190.49609 L 139.50391 199.99805 L 139.50391 219.5 L 120.50195 219.5 L 120.50195 199.99805 L 120.50195 190.49609 z M 140.5 190.49609 L 169.50391 190.49609 L 169.50391 199.99805 L 169.50391 219.5 L 140.5 219.5 L 140.5 199.99805 L 140.5 190.49609 z M 170.5 190.49609 L 189.5 190.49609 L 189.5 199.99805 L 190.49609 199.99805 L 190.49609 190.49609 L 199.99805 190.49609 L 219.5 190.49609 L 219.5 199.99805 L 219.5 219.5 L 199.99805 219.5 L 170.5 219.5 L 170.5 199.99805 L 170.5 190.49609 z M 220.49609 190.49609 L 229.50391 190.49609 L 229.50391 199.99805 L 229.50391 219.5 L 220.49609 219.5 L 220.49609 199.99805 L 220.49609 190.49609 z M 230.5 190.49609 L 239.49805 190.49609 L 239.49805 199.99805 L 240.50195 199.99805 L 240.50195 190.49609 L 249.5 190.49609 L 249.5 199.99805 L 250.49609 199.99805 L 250.49609 190.49609 L 259.50391 190.49609 L 259.50391 199.99805 L 260.5 199.99805 L 260.5 190.49609 L 269.49805 190.49609 L 269.49805 199.99805 L 270.50195 199.99805 L 270.50195 190.49609 L 279.5 190.49609 L 279.5 199.99805 L 279.5 219.5 L 230.5 219.5 L 230.5 199.99805 L 230.5 190.49609 z M 280.49609 190.49609 L 300 190.49609 L 309.5 190.49609 L 309.5 199.99805 L 309.5 209.49805 L 300 209.49805 L 300 210.50195 L 309.5 210.50195 L 309.5 219.5 L 300 219.5 L 280.49609 219.5 L 280.49609 199.99805 L 280.49609 190.49609 z M 310.49609 190.49609 L 319.50391 190.49609 L 319.50391 199.99805 L 319.50391 209.49805 L 310.49609 209.49805 L 310.49609 199.99805 L 310.49609 190.49609 z M 320.5 190.49609 L 329.49805 190.49609 L 329.49805 199.99805 L 329.49805 209.49805 L 320.5 209.49805 L 320.5 199.99805 L 320.5 190.49609 z M 330.50195 190.49609 L 349.50391 190.49609 L 349.50391 199.99805 L 349.50391 209.49805 L 330.50195 209.49805 L 330.50195 199.99805 L 330.50195 190.49609 z M 350.5 190.49609 L 359.49805 190.49609 L 359.49805 199.99805 L 359.49805 209.49805 L 350.5 209.49805 L 350.5 199.99805 L 350.5 190.49609 z M 360.50195 190.49609 L 389.49805 190.49609 L 389.49805 199.99805 L 389.49805 209.49805 L 360.50195 209.49805 L 360.50195 199.99805 L 360.50195 190.49609 z M 390.50195 190.49609 L 400.00195 190.49609 L 419.49805 190.49609 L 419.49805 199.99805 L 419.49805 219.5 L 400.00195 219.5 L 390.50195 219.5 L 390.50195 210.50195 L 400.00195 210.50195 L 400.00195 209.49805 L 390.50195 209.49805 L 390.50195 199.99805 L 390.50195 190.49609 z M 420.50195 190.49609 L 439.50391 190.49609 L 439.50391 199.99805 L 439.50391 219.5 L 420.50195 219.5 L 420.50195 199.99805 L 420.50195 190.49609 z M 440.5 190.49609 L 449.49805 190.49609 L 449.49805 199.99805 L 449.49805 219.5 L 440.5 219.5 L 440.5 199.99805 L 440.5 190.49609 z M -0.50195312 199.99805 L -0.50195312 249.78516 L 0.50195312 250.21484 L 0.50195312 199.99805 L -0.50195312 199.99805 z M 310.49609 210.50195 L 319.50391 210.50195 L 319.50391 219.5 L 310.49609 219.5 L 310.49609 210.50195 z M 320.5 210.50195 L 329.49805 210.50195 L 329.49805 219.5 L 320.5 219.5 L 320.5 210.50195 z M 330.50195 210.50195 L 349.50391 210.50195 L 349.50391 219.5 L 330.50195 219.5 L 330.50195 210.50195 z M 350.5 210.50195 L 359.49805 210.50195 L 359.49805 219.5 L 350.5 219.5 L 350.5 210.50195 z M 360.50195 210.50195 L 389.49805 210.50195 L 389.49805 219.5 L 360.50195 219.5 L 360.50195 210.50195 z M 100.49609 220.49609 L 119.49805 220.49609 L 119.49805 249.5 L 100.49609 249.5 L 100.49609 220.49609 z M 120.50195 220.49609 L 139.50391 220.49609 L 139.50391 249.5 L 120.50195 249.5 L 120.50195 220.49609 z M 140.5 220.49609 L 169.50391 220.49609 L 169.50391 249.5 L 140.5 249.5 L 140.5 220.49609 z M 170.5 220.49609 L 199.99805 220.49609 L 219.5 220.49609 L 219.5 249.5 L 199.99805 249.5 L 170.5 249.5 L 170.5 220.49609 z M 220.49609 220.49609 L 229.50391 220.49609 L 229.50391 249.5 L 220.49609 249.5 L 220.49609 220.49609 z M 230.5 220.49609 L 279.5 220.49609 L 279.5 249.5 L 230.5 249.5 L 230.5 220.49609 z M 280.49609 220.49609 L 300 220.49609 L 309.5 220.49609 L 309.5 229.50391 L 300 229.50391 L 300 230.5 L 309.5 230.5 L 309.5 249.5 L 300 249.5 L 280.49609 249.5 L 280.49609 220.49609 z M 310.49609 220.49609 L 319.50391 220.49609 L 319.50391 229.50391 L 310.49609 229.50391 L 310.49609 220.49609 z M 320.5 220.49609 L 329.49805 220.49609 L 329.49805 229.50391 L 320.5 229.50391 L 320.5 220.49609 z M 330.50195 220.49609 L 349.50391 220.49609 L 349.50391 229.50391 L 330.50195 229.50391 L 330.50195 220.49609 z M 350.5 220.49609 L 359.49805 220.49609 L 359.49805 229.50391 L 350.5 229.50391 L 350.5 220.49609 z M 360.50195 220.49609 L 389.49805 220.49609 L 389.49805 229.50391 L 360.50195 229.50391 L 360.50195 220.49609 z M 390.50195 220.49609 L 400.00195 220.49609 L 419.49805 220.49609 L 419.49805 229.50391 L 400.00195 229.50391 L 390.50195 229.50391 L 390.50195 220.49609 z M 420.50195 220.49609 L 439.50391 220.49609 L 439.50391 229.50391 L 420.50195 229.50391 L 420.50195 220.49609 z M 440.5 220.49609 L 449.49805 220.49609 L 449.49805 229.50391 L 440.5 229.50391 L 440.5 220.49609 z M 310.49609 230.5 L 319.50391 230.5 L 319.50391 249.5 L 310.49609 249.5 L 310.49609 230.5 z M 320.5 230.5 L 329.49805 230.5 L 329.49805 249.5 L 320.5 249.5 L 320.5 230.5 z M 330.50195 230.5 L 349.50391 230.5 L 349.50391 249.5 L 330.50195 249.5 L 330.50195 230.5 z M 350.5 230.5 L 359.49805 230.5 L 359.49805 249.5 L 350.5 249.5 L 350.5 230.5 z M 360.50195 230.5 L 389.49805 230.5 L 389.49805 249.5 L 360.50195 249.5 L 360.50195 230.5 z M 390.50195 230.5 L 400.00195 230.5 L 419.49805 230.5 L 419.49805 249.5 L 400.00195 249.5 L 390.50195 249.5 L 390.50195 230.5 z M 420.50195 230.5 L 439.50391 230.5 L 439.50391 249.5 L 420.50195 249.5 L 420.50195 230.5 z M 440.5 230.5 L 449.49805 230.5 L 449.49805 249.5 L 440.5 249.5 L 440.5 230.5 z M 310.49609 250.49609 L 319.50391 250.49609 L 319.50391 269.49805 L 310.49609 269.49805 L 310.49609 250.49609 z M 320.5 250.49609 L 329.49805 250.49609 L 329.49805 269.49805 L 320.5 269.49805 L 320.5 250.49609 z M 330.50195 250.49609 L 349.50391 250.49609 L 349.50391 269.49805 L 330.50195 269.49805 L 330.50195 250.49609 z M 350.5 250.49609 L 359.49805 250.49609 L 359.49805 269.49805 L 350.5 269.49805 L 350.5 250.49609 z M 360.50195 250.49609 L 389.49805 250.49609 L 389.49805 269.49805 L 360.50195 269.49805 L 360.50195 250.49609 z M 420.50195 250.49609 L 439.50391 250.49609 L 439.50391 259.50391 L 420.50195 259.50391 L 420.50195 250.49609 z M 440.5 250.49609 L 449.49805 250.49609 L 449.49805 259.50391 L 440.5 259.50391 L 440.5 250.49609 z M 420.50195 260.5 L 439.50391 260.5 L 439.50391 279.5 L 420.50195 279.5 L 420.50195 260.5 z M 440.5 260.5 L 449.49805 260.5 L 449.49805 279.5 L 440.5 279.5 L 440.5 260.5 z "
       style="color:#000000;font-style:normal;font-variant:normal;font-weight:normal;font-stretch:normal;font-size:medium;line-height:normal;font-family:sans-serif;font-variant-ligatures:normal;font-variant-position:normal;font-variant-caps:normal;font-variant-numeric:normal;font-variant-alternates:normal;font-feature-settings:normal;text-indent:0;text-align:start;text-decoration:none;text-decoration-line:none;text-decoration-style:solid;text-decoration-color:#000000;letter-spacing:normal;word-spacing:normal;text-transform:none;writing-mode:lr-tb;direction:ltr;text-orientation:mixed;dominant-baseline:auto;baseline-shift:baseline;text-anchor:start;white-space:normal;shape-padding:0;clip-rule:nonzero;display:inline;overflow:visible;visibility:visible;opacity:1;isolation:auto;mix-blend-mode:normal;color-interpolation:sRGB;color-interpolation-filters:linearRGB;solid-color:#000000;solid-opacity:1;vector-effect:none;fill:#e6e6e6;fill-opacity:1;fill-rule:nonzero;stroke:none;stroke-width:0.99999994px;stroke-linecap:butt;stroke-linejoin:miter;stroke-miterlimit:4;stroke-dasharray:none;stroke-dashoffset:0;stroke-opacity:1;color-rendering:auto;image-rendering:auto;shape-rendering:auto;text-rendering:auto;enable-background:accumulate" />
    <path
       id="path2965"
       transform="matrix(0.26458333,0,0,0.26458333,0,217.625)"
       d="M 99.5 0 L 99.5 99.5 L 12.5 99.5 L 14.160156 100.49609 L 99.5 100.49609 L 99.5 177.57227 L 100.49609 176.7168 L 100.49609 100.00195 L 100.49609 0 L 99.5 0 z M 299.49805 0 L 299.49805 91.0625 L 300.50195 91.4375 L 300.50195 0 L 299.49805 0 z "
       style="color:#000000;font-style:normal;font-variant:normal;font-weight:normal;font-stretch:normal;font-size:medium;line-height:normal;font-family:sans-serif;font-variant-ligatures:normal;font-variant-position:normal;font-variant-caps:normal;font-variant-numeric:normal;font-variant-alternates:normal;font-feature-settings:normal;text-indent:0;text-align:start;text-decoration:none;text-decoration-line:none;text-decoration-style:solid;text-decoration-color:#000000;letter-spacing:normal;word-spacing:normal;text-transform:none;writing-mode:lr-tb;direction:ltr;text-orientation:mixed;dominant-baseline:auto;baseline-shift:baseline;text-anchor:start;white-space:normal;shape-padding:0;clip-rule:nonzero;display:inline;overflow:visible;visibility:visible;opacity:1;isolation:auto;mix-blend-mode:normal;color-interpolation:sRGB;color-interpolation-filters:linearRGB;solid-color:#000000;solid-opacity:1;vector-effect:none;fill:#999999;fill-opacity:1;fill-rule:nonzero;stroke:none;stroke-width:0.99999994px;stroke-linecap:butt;stroke-linejoin:miter;stroke-miterlimit:4;stroke-dasharray:none;stroke-dashoffset:0;stroke-opacity:1;color-rendering:auto;image-rendering:auto;shape-rendering:auto;text-rendering:auto;enable-background:accumulate" />
  </g>
</svg>
