<?xml version="1.0" encoding="UTF-8" standalone="no"?>
<svg
   xmlns:dc="http://purl.org/dc/elements/1.1/"
   xmlns:cc="http://creativecommons.org/ns#"
   xmlns:rdf="http://www.w3.org/1999/02/22-rdf-syntax-ns#"
   xmlns:svg="http://www.w3.org/2000/svg"
   xmlns="http://www.w3.org/2000/svg"
   id="svg8"
   version="1.1"
   viewBox="0 0 210 297"
   height="297mm"
   width="210mm">
  <defs
     id="defs2" />
  <metadata
     id="metadata5">
    <rdf:RDF>
      <cc:Work
         rdf:about="">
        <dc:format>image/svg+xml</dc:format>
        <dc:type
           rdf:resource="http://purl.org/dc/dcmitype/StillImage" />
        <dc:title></dc:title>
      </cc:Work>
    </rdf:RDF>
  </metadata>
  <g
     id="layer1">
    <path
       id="rect853"
       d="M 27.445131,23.723099 V 148.03644 l 23.11125,-15.95768 c -0.790982,-4.24781 -1.206642,-8.62749 -1.206642,-13.10463 0,-27.888078 16.04537,-52.0252 39.405861,-63.694301 l 2.998785,-8.818584 9.492955,-8.948806 10.86962,-0.256315 14.85077,9.265065 3.25613,1.963706 c 15.28406,2.1063 29.56967,9.137428 40.60424,20.170346 8.23041,8.230108 14.23255,18.270821 17.62735,29.185298 V 38.464318 Z m 109.711129,35.246427 1.20561,5.907132 2.53886,2.538865 3.60805,13.096359 2.94039,5.612577 -1.48725,10.112044 c 1.36247,0.388607 2.52115,1.078844 3.47369,2.10013 1.57899,1.690447 2.36937,3.945537 2.36937,6.877617 v 0.22531 c 0,2.82011 -0.79038,5.07559 -2.36937,6.76806 -0.78065,0.90104 -1.75575,1.54406 -2.90421,1.95027 l 2.38745,12.05663 1.37046,2.12028 h 4.44779 l 0.1111,1.69085 c 1.12716,-1.35299 2.48275,-2.02978 4.28553,-2.03036 h 0.002 c 2.25612,6.1e-4 3.9471,0.90301 5.18779,2.48098 1.2396,1.57901 1.80403,3.9474 1.80403,6.766 v 0.22789 c 0,1.15772 -0.1163,2.21865 -0.33694,3.18637 l 15.23163,-7.00836 c 1.1559,-4.76619 1.75804,-9.68856 1.75804,-14.67404 0,-16.51549 -6.56011,-32.353884 -18.2392,-44.032968 -7.66398,-7.663984 -17.12073,-13.12395 -27.38489,-15.971636 z M 87.602183,66.102425 C 78.679047,71.669552 71.266922,79.432869 66.122356,88.635931 h 19.800342 l 2.171443,-13.866336 z m 74.916867,22.19606 c 0.78824,0 1.57843,0.112008 2.59261,0.337446 v 4.17339 c -0.33739,-0.111969 -0.78859,-0.11162 -1.35341,-0.11162 -1.69047,0 -2.59261,0.78812 -2.59261,2.255157 v 1.353924 h 3.49488 v 3.945498 h -3.49488 v 14.21102 h -5.52731 v -14.21102 h -2.59364 v -3.945498 h 2.59364 v -1.46761 c 0,-2.141818 0.56395,-3.721676 1.80506,-4.849317 1.12766,-1.128141 2.93183,-1.69137 5.07566,-1.69137 z m -16.93695,13.683405 0.36587,5.91282 c 0.14412,-0.60105 0.21859,-1.30494 0.21859,-2.11615 v -0.56431 c 0,-1.37508 -0.2022,-2.44708 -0.58446,-3.23236 z m -87.170901,12.3672 c -0.112122,1.52704 -0.171564,3.06937 -0.171564,4.62504 0,0.60365 0.01072,1.20449 0.0279,1.80403 h 8.736936 l 9.690364,-6.42907 z m 99.257501,18.04489 c -1.35305,0 -2.25544,0.5633 -2.70629,1.46503 v 1.70739 l 4.146,6.41563 c 0.89513,-0.66704 1.38079,-2.07051 1.38079,-4.17494 v -0.56224 c 0,-3.27145 -0.90209,-4.85087 -2.8205,-4.85087 z M 27.445131,185.76024 v 18.55132 l 5.436362,-2.50114 -0.753444,-5.35213 z"
       style="opacity:1;fill:#f73859;fill-opacity:1;stroke:none;stroke-width:0.02645833;stroke-miterlimit:4;stroke-dasharray:none;stroke-opacity:1" />
    <path
       id="path845"
       d="m 137.28202,220.42308 c -1.75702,-6.2312 -0.52947,-12.88638 -1.11631,-19.29656 -0.50509,-8.94361 -1.16955,-17.94765 -2.31167,-26.80121 -2.82375,-7.57796 -4.93695,-15.34096 -6.62055,-23.22977 -0.72046,-2.67313 -1.05023,3.81196 -1.89174,-1.22962 -0.5566,-2.85701 -1.78273,-11.60036 -2.06605,-11.22099 0.0742,2.67063 2.50088,13.38901 1.55885,11.09573 -1.85841,-6.23459 -1.7701,-21.09295 -4.84285,-21.95718 2.29577,0.0129 -5.57325,0.3662 -1.76445,3.70562 2.20452,3.02229 0.78119,10.09851 -1.12587,3.15835 -3.60462,-8.46819 3.05965,9.17712 -0.43631,0.7159 -0.67599,-6.35558 -8.93443,-13.37656 -11.46395,-4.34045 2.3891,4.15184 8.16859,12.13821 3.00532,15.94939 0.24771,-3.23089 -0.38549,-6.10404 -0.26509,-1.20691 0.20938,-0.87113 -0.98101,-8.73385 -3.46966,-11.8043 -4.0334,-8.24547 4.6987,8.29556 -0.99226,2.89865 -1.28143,-2.63838 -3.4619,-8.09624 -1.45064,-2.24625 4.88003,7.77565 -4.943299,-3.9244 -0.2336,-6.16295 0.35641,-1.2855 6.9124,-4.33876 7.96844,-7.80486 5.87853,-2.56129 10.17175,9.26998 14.88175,4.19315 3.21373,-4.13462 -0.86432,1.31889 2.05519,-1.92968 3.60473,1.03133 5.46819,5.84442 4.32393,-0.1547 -2.11275,-4.46409 -4.41836,-8.98184 -5.01657,-13.95174 0.0701,3.85129 -0.10634,15.31499 -4.61178,12.39585 0.38364,-3.89552 2.96418,-10.0936 2.17533,-12.44081 -0.78491,3.67597 -1.54434,12.19046 -2.9931,12.57055 1.16552,-5.00743 4.58426,-11.72856 0.21541,-15.05256 1.14996,-2.97959 6.60333,-9.107654 5.43755,-6.02834 3.12801,-4.218967 5.36223,-15.775903 11.31132,-9.511038 5.51785,0.08646 -0.0949,9.474118 5.26377,11.387988 2.69002,3.72561 2.77587,13.84305 3.47814,14.70376 0.1862,-0.10482 1.24203,8.54782 1.40312,12.139 -1.06066,4.82746 0.92534,6.34383 4.11548,10.77403 -4.80098,-5.332 4.9441,4.35561 0.82869,6.03214 -0.0149,7.24123 -9.60191,-8.32347 -5.03583,-0.45164 2.34733,6.89783 -4.70566,-6.85583 -5.80394,-4.1602 -2.92534,-5.01845 -4.08109,-11.92106 -9.15499,-14.99187 -5.11342,4.10703 4.85601,10.92909 5.05826,13.66477 -3.79307,-2.04776 -2.71646,-1.43115 -0.015,0.86396 -3.53073,-0.88697 -9.82424,-7.07231 -10.9822,-5.50333 0.77814,9.37161 3.62848,18.3546 5.7509,27.49256 1.84234,7.18078 5.94876,14.31502 4.43756,21.90305 1.10386,11.5278 1.68022,23.14305 1.57127,34.68217 l -0.4153,0.79024 -0.76096,0.3601 z m -0.19214,-3.48683 c -0.3768,-12.95144 -0.45707,-26.00553 -2.44457,-38.81294 1.42243,13.17134 1.91287,26.47443 2.29203,39.68515 0.17733,0.0187 0.38409,-1.45953 0.15254,-0.87221 z m 0.37857,-1.32376 -10e-4,0.44688 z m -0.10155,-3.04714 -0.002,0.34589 z m -0.0999,-2.39776 -0.002,0.34589 z m -0.0949,-8.39213 -9e-5,1.14817 z m -0.10757,-2.64752 -0.005,0.24373 z m -0.0978,-1.49235 -0.0183,0.18059 z m -0.10198,-1.60475 -0.005,0.24374 z m -0.0978,-1.29254 -0.0185,0.18054 z m -0.19981,-2.39775 -0.0185,0.18054 z m -0.0999,-0.99907 -0.0185,0.18054 z m -0.0999,-0.99906 -0.0185,0.18054 z m -0.0999,-0.89916 -0.0185,0.18054 z m -0.0999,-0.89915 -0.0185,0.18054 z m -0.0999,-0.89916 -0.0185,0.18054 z m -0.0999,-0.99907 -0.0185,0.18054 z m -0.0999,-0.79925 -0.0185,0.18054 z m -0.0321,-0.83047 c -0.0975,-0.53324 -0.22227,0.54653 0,0 z m -0.16671,-1.12205 -0.007,0.29496 z m -0.0999,-1.19887 -0.007,0.29496 z m -0.30278,-4.34783 -0.005,0.24378 z m -0.49771,-2.49766 c -2.19876,-7.66215 -5.07745,-15.12823 -6.50738,-22.98584 -0.57775,-2.91648 -3.42443,-12.44897 -1.47928,-4.77307 2.22166,8.1563 3.6764,16.46449 6.82995,24.32539 0.38573,1.1443 0.73168,2.30267 1.15671,3.43352 z m -8.60999,-24.15236 c -0.13164,-0.37891 -0.22394,0.38691 0,0 z m -0.0999,-0.49954 c -0.13162,-0.37874 -0.22422,0.38692 0,0 z m -0.19982,-1.09897 c -0.13164,-0.37891 -0.22394,0.38691 0,0 z m 0.71764,-1.21761 -0.0185,0.18054 z m 24.93091,-2.17883 c 0.83251,-0.72637 -1.35816,0.82497 0,0 z m -42.91406,-1.11808 -0.0185,0.18054 z m 43.33681,0.12555 c -0.01,-0.509 -0.32953,0.34293 0,0 z m -3.50396,-1.23076 c -0.44602,-1.00718 -2.30062,-2.91325 -0.70469,-0.84178 z m -1.38577,-1.35564 c -0.68093,-0.53552 -0.21024,0.4377 0,0 z m 2.0069,-0.13374 c -0.58056,-0.52773 0.53217,0.92135 0,0 z m 1.11586,-0.12696 c -0.86294,-1.1349 0.70432,1.17882 0,0 z m -4.68114,-1.20299 c -0.98072,-2.22594 -1.32116,0.66123 0,0 z m -0.52591,0.0803 c -0.56433,-0.98252 0.70821,0.76234 0,0 z m -0.60758,-0.82123 c 0.26116,-0.50402 0.39431,0.37535 0,0 z m 3.57412,0.51314 c -2.77044,-3.94438 0.89363,1.86978 0,0 z m -1.98852,0.42778 -0.34577,-0.46615 z m 2.896,-0.89028 c -2.13783,-2.77373 1.87898,2.7737 0,0 z m -2.70135,0.27697 c -2.02438,-2.66624 0.79941,1.4863 0,0 z m -37.9341,-0.0124 -0.007,0.29494 z m -0.42886,-1.59305 c -1.87244,-3.57275 1.30006,3.65267 0,0 z m 37.5248,1.06389 c -0.55347,-0.71752 -0.25996,0.5831 0,0 z m 6.16999,-0.59489 c -1.35254,-1.83784 0.99411,1.68327 0,0 z m -1.03421,-1.40029 c -1.61707,-2.05079 1.10518,1.70749 0,0 z m -16.76905,-0.94696 c -3.80261,-0.7154 -10.70129,-9.19468 -4.26441,-1.99752 1.29976,0.67389 2.7346,2.20079 4.26441,1.99752 z m 16.22897,0.2097 -0.30376,-0.25548 z m -0.29972,-0.39963 -0.30376,-0.25547 z m -0.49953,-0.69934 -0.30376,-0.25548 z m -44.22316,-0.67413 c -1.66602,-4.20101 -0.19699,0.93469 0,0 z m 28.33804,-0.42484 -0.30375,-0.25548 z m -1.13043,-0.58669 c -1.34814,-2.3301 -3.10473,-3.04463 0,0 z m -1.69291,-1.36807 c -2.12683,-2.03811 1.27467,1.99483 0,0 z m -26.75938,-0.24704 c -0.63755,-2.14059 -0.91643,-1.40151 -0.0679,0.1081 z m 43.63786,0.0228 -0.0185,0.18054 z m -24.77579,-1.05336 -0.007,0.29496 z m 24.47589,-0.4452 -0.0185,0.18054 z m -24.68919,-1.46489 c -0.61577,-4.79291 0.4158,4.73323 0,0 z m 16.37867,1.28381 c -0.17146,-4.16015 -4.16593,-5.61302 -0.67058,-0.91336 l 0.46601,0.78092 0.20457,0.13245 z m -1.51093,-2.82228 c 0.34571,-1.01034 0.41196,0.65208 0,0 z m 0.13722,-0.44089 0.24373,0.005 z m 9.58531,2.79052 -0.007,0.29496 z m -44.22258,-0.26279 c -0.4651,-0.9228 0.2813,1.05106 0,0 z m 12.93261,0.0361 c -0.13162,-0.37874 -0.22422,0.38692 0,0 z m -0.29815,-0.6922 c -0.46458,-1.10487 0.12728,1.18852 0,0 z m -0.25134,-0.66005 c -0.36462,-2.19059 -0.62739,0.41338 0,0 z m 7.08538,-1.07048 c 0.8795,-2.31507 -0.96624,-0.28692 0,0 z m 25.35352,-0.24787 -0.007,0.29496 z m -0.0985,-0.84994 -0.003,0.39651 z m -34.28859,0.32353 -0.32412,0.0691 z m 24.215,-0.53657 c -0.63705,-0.98116 0.32587,0.99244 0,0 z m -32.71212,-0.44065 c 4.66549,-2.53291 2.1641,-2.18227 0,0 z m 42.68401,-0.19668 -0.002,0.3459 z m -34.56362,-0.48496 -0.18333,0.006 z m 34.4631,-0.25809 -0.0185,0.18054 z m -0.10199,-0.9054 -0.005,0.24373 z m -0.0978,-0.5932 -0.0185,0.18051 z m -33.43697,-0.88042 c -0.22442,-0.3868 -0.13122,0.37867 0,0 z m 33.23716,-0.41836 -0.0185,0.18054 z m -33.7367,0.0355 c -2.19235,-2.87274 -1.28481,0.25635 0,0 z m 26.60958,-0.071 c -0.32182,-0.4003 0.11368,0.50095 0,0 z m 0.38346,-0.0673 c -0.40657,-0.11353 0.40459,0.44541 0,0 z m 2.67916,0.0775 -0.19533,-0.0573 z m 3.96251,-0.58036 -0.005,0.24373 z m -4.09206,-0.11897 c -0.9248,-4.0213 -0.92587,-11.91469 -2.96656,-13.44848 0.004,4.22943 0.35877,10.63397 2.96656,13.44848 z m -1.26242,-1.85418 0.23747,-0.37543 z m -0.1051,-0.47456 c 0.14954,-0.8282 0.13548,0.55123 0,0 z m -0.10143,-0.44567 c 0.20087,-1.03875 0.3732,0.25511 0,0 z m -0.0984,-0.39763 c 0.0979,-0.84863 0.17923,0.39626 0,0 z m -0.0999,-0.45548 c 0.14954,-0.8282 0.13549,0.5512 0,0 z m -0.0999,-0.49953 c 0.14954,-0.8282 0.13549,0.5512 0,0 z m -0.0999,-0.49364 c 0.10042,-1.01616 0.18363,0.52105 0,0 z m -0.0944,-0.55538 c 0.15525,-1.01118 0.10926,0.68237 0,0 z m -0.1054,-0.54359 c 0.10042,-1.01616 0.18363,0.52105 0,0 z m -0.0944,-0.49953 c 0.12322,-1.0096 0.14072,0.4988 0,0 z m -0.1054,-0.65529 c -0.0132,-0.95981 0.32317,0.46795 0,0 z m -0.0944,-0.59354 c 0.10961,-1.17352 0.15794,0.59057 0,0 z m -0.1054,-0.69934 c -0.0921,-1.12719 0.38611,0.42509 0,0 z m -0.0944,-0.59944 c 0.1096,-1.17351 0.15793,0.59056 0,0 z m -0.1006,-0.77518 c 0.24375,-0.87289 0.0197,0.89131 0,0 z m -0.10624,-0.8542 c 0.20004,-1.23693 0.0655,1.22738 0,0 z m 0.20285,-0.80424 c 0.0187,-0.73411 0.27649,0.67191 0,0 z m -0.29492,-0.045 c 0.0932,-2.03222 0.50621,-0.36565 0,0 z m -0.10621,-1.11805 c 0.0283,-1.88639 0.30515,1.14344 0,0 z m 0.51378,-0.97999 c 0.0866,-0.45471 0.0866,0.45473 0,0 z m -0.5969,13.36581 c -0.40657,-0.11354 0.40457,0.4454 0,0 z m 1.23865,-1.24941 c -1.04984,-2.78142 -1.82497,-12.1672 -2.02407,-10.61811 0.45345,3.39341 0.87624,8.17488 2.02407,10.61811 z m -0.73847,0.92139 c -0.20002,-1.23698 -0.0655,1.22733 0,0 z m 6.5432,-0.0687 -0.0185,0.18054 z m -7.11592,0.0256 c -0.009,-0.509 -0.3294,0.3429 0,0 z m 0.31315,-0.67511 c -0.7069,-3.13321 -0.0628,2.7949 0,0 z m 2.13883,0.31853 c -0.0975,-0.53324 -0.22227,0.54653 0,0 z m -4.78642,-1.45893 c -1.85669,-8.49689 -2.22478,-17.21231 -2.91837,-25.855318 0.22787,9.185158 0.86281,18.436188 3.16715,27.363238 -0.0829,-0.50264 -0.16587,-1.00528 -0.24878,-1.50792 z m 2.28876,1.30318 c -0.32633,-0.382 -0.14708,0.53607 0,0 z m -0.31558,0.0309 c -1.57622,-9.08472 -2.2925,-18.28586 -3.14346,-27.458391 -2.67372,5.739961 0.41923,12.792011 0.3586,19.083051 0.81126,2.95426 0.48108,8.10993 2.78486,8.37534 z m -1.18149,-0.94322 c 0.0979,-0.8486 0.17923,0.39627 0,0 z m -0.0999,-0.49953 c 0.0979,-0.8486 0.17923,0.39627 0,0 z m -0.10143,-0.47455 c -0.0584,-0.4351 0.33827,0.0869 0,0 z m -0.0999,-0.44958 c 0.13126,-0.72803 0.16935,0.50761 0,0 z m -0.0999,-0.49953 c 0.13126,-0.72803 0.16935,0.50761 0,0 z m -0.0999,-0.59944 c 0.13126,-0.72803 0.16935,0.50761 0,0 z m -0.0999,-0.59944 c 0.13126,-0.72803 0.16935,0.50761 0,0 z m -0.092,-0.51375 c 0.18443,-0.24286 -0.0108,0.45795 0,0 z m -0.0999,-0.59944 c 0.18444,-0.24285 -0.0108,0.45798 0,0 z m -0.0999,-0.69935 c 0.18444,-0.24285 -0.0108,0.45798 0,0 z m -0.0999,-0.59943 c 0.18432,-0.24276 -0.0111,0.45811 0,0 z m -0.1078,-0.68513 c 0.13128,-0.72803 0.16935,0.50762 0,0 z m -0.0841,-0.65529 c 0.0867,-0.45471 0.0866,0.45474 0,0 z m -0.10779,-0.75762 c 0.18444,-0.24285 -0.0108,0.45798 0,0 z m -0.0999,-0.69934 c 0.18443,-0.24286 -0.0108,0.45795 0,0 z m -0.0999,-0.69935 c 0.18444,-0.24285 -0.0108,0.45798 0,0 z m -0.092,-0.84088 c 0.0866,-0.45471 0.0866,0.45473 0,0 z m -0.0999,-0.79925 c 0.0866,-0.45471 0.0866,0.45473 0,0 z m -0.1078,-0.85753 c 0.18444,-0.24285 -0.0108,0.45798 0,0 z m -0.0883,-0.89083 c 0.13612,-0.45726 0.0255,0.63789 0,0 z m -0.0999,-0.99906 c 0.13624,-0.45732 0.0257,0.63758 0,0 z m -0.0999,-0.99907 c 0.13626,-0.45729 0.0257,0.63762 0,0 z m -0.0999,-0.99906 c 0.13631,-0.45729 0.0257,0.63776 0,0 z m -0.0942,-1.29878 c 0.11681,-0.63447 0.0376,0.81391 0,0 z m -0.0999,-1.4986 c 0.11682,-0.63444 0.0376,0.81392 0,0 z m -0.0999,-1.39869 c 0.11683,-0.63445 0.0376,0.81404 0,0 z m -0.10193,-1.348735 c 0.08,-0.628081 0.08,0.628075 0,0 z m -0.0999,-1.598502 c 0.08,-0.628079 0.08,0.628079 0,0 z m -0.0959,-1.898221 c 0.0763,-0.803806 0.0763,0.803806 0,0 z m -0.11923,-1.656781 c 0.18449,-0.242704 -0.011,0.458015 0,0 z m 6.78422,26.752359 c -0.1817,-0.4254 -0.0925,0.87444 0,0 z m 4.84946,-1.04312 c -0.0434,-3.68569 -0.63488,0.32567 0,0 z m -14.17088,0.006 -0.0185,0.18054 z m -20.74887,-0.12044 -0.23859,-0.067 z m 18.49113,-1.24373 c -1.49606,-3.31573 -2.91472,-13.40904 -3.5081,-12.35715 0.0235,4.15274 1.90475,9.50723 3.5081,12.35715 z m 1.78078,-0.20652 c -0.54486,-1.32053 0.38702,1.57754 0,0 z m -0.6219,-2.07763 c -0.90817,-3.16078 -3.71972,-13.21395 -1.5958,-4.88365 0.26592,0.69953 1.79046,6.69419 1.5958,4.88365 z m 14.38432,-0.15437 -0.005,0.24378 z m -0.0999,-0.89916 -0.005,0.24378 z m -13.48528,-1.69216 -0.0185,0.18054 z m -1.11863,-0.40587 c 0.3087,-1.94071 -1.52946,-10.06928 -1.3299,-4.1863 0.37666,1.41598 0.88195,2.79364 1.3299,4.1863 z m -0.89011,-3.42675 c -0.46374,-1.13836 0.6479,-0.71287 0,0 z m -0.25745,-0.9322 0.24291,-0.29016 z m -0.0999,-0.43419 c 0.2582,-0.83065 0.30448,0.28069 0,0 z m -0.19981,-0.72669 c 0.22227,-0.54653 0.0975,0.53324 0,0 z m -0.19981,-0.79925 c 0.22227,-0.54653 0.0975,0.53324 0,0 z m 2.5968,5.84136 c -0.60723,-1.92342 0.38868,2.13893 0,0 z m -3.50003,-1.10921 c -0.92697,-5.37745 -0.32689,-0.0213 0.0879,0.49261 l -0.0711,-0.39814 -0.0169,-0.0945 z m 16.75767,0.14019 -0.007,0.29496 z m -13.45669,-0.0709 -0.19532,-0.0572 z m -0.0999,-0.35557 c -0.22426,-0.38685 -0.13163,0.37879 0,0 z m 13.4557,-0.21854 -0.0185,0.18051 z m -13.55561,-0.18108 c -0.22425,-0.38686 -0.13162,0.3788 0,0 z m -0.20021,-0.39987 c -0.87206,-0.43841 -0.095,0.57096 0,0 z m 13.65591,-0.2183 -0.0185,0.18054 z m -0.20189,-1.40494 -0.005,0.24374 z m -0.0999,-0.59943 -0.005,0.24373 z m -5.19513,-0.59944 -0.005,0.24373 z m 5.09731,0.10615 -0.0185,0.18051 z m -0.0999,-0.39963 -0.0185,0.18051 z m -23.18353,-1.62972 c 2.08753,-2.92742 3.86204,-6.12931 0.61358,-1.53119 -0.20113,0.33606 -2.33247,3.83753 -0.61358,1.53119 z m 22.7839,0.0312 -0.0185,0.18054 z m -0.0999,-0.39962 -0.0185,0.18054 z m -16.88418,-0.0999 -0.0185,0.18054 z m 16.71555,-0.45206 c -0.32699,-0.43769 0.37487,1.09141 0,0 z m -0.78658,-2.19421 c -0.39119,-0.41124 0.34572,0.76973 0,0 z m -16.33068,-0.35717 -0.005,0.24378 z m 15.82389,-0.8645 c -0.83582,-1.43711 0.66682,1.55785 0,0 z m -2.57302,-6.00406 c -0.19153,0.121485 -0.40666,6.53499 -0.0771,1.36622 0.0257,-0.455394 0.0514,-0.91086 0.0771,-1.36622 z m -1.43981,87.70617 c -0.90331,-4.31485 7.78687,-8.23209 10.4953,-12.11618 -2.77099,2.47837 -6.90058,7.66929 -1.73887,2.12776 2.30417,-2.61567 8.93637,-3.04619 3.76501,0.84004 -1.86328,1.88149 -8.08008,5.29128 -2.25499,2.10971 2.15294,-1.71909 6.31941,-6.21824 2.38423,-1.5587 -4.36103,2.65201 -8.05873,6.3143 -12.65068,8.59737 z m 8.0541,-8.58032 c 0.47697,-0.7126 -0.76077,0.7829 0,0 z m 3.44677,-1.86907 -0.88299,0.84595 z m -0.88641,-0.70352 -0.0932,0.0528 z m 3.99625,-1.09897 -0.0932,0.0528 z m -1.55066,-23.00409 c 1.34991,-1.32876 1.58194,-0.34485 0,0 z m -1.89993,-0.88407 0.43608,0.0441 z m -1.23129,-1.03606 c -0.90911,-1.06232 0.57242,-0.011 0,0 z m -1.51159,-1.85277 c -1.04077,-1.87991 1.78301,2.58293 0,0 z m 0.55559,-0.0479 c -1.32182,-2.41791 1.73484,2.13455 0,0 z m -0.6293,-0.89084 c 0.37964,-0.36854 0.4971,0.38077 0,0 z m 6.12409,-1.88728 c 0.0405,-0.58142 0.30276,0.81604 0,0 z m -10.65675,-0.83613 c -0.48556,-1.31048 0.53058,0.78324 0,0 z m -15.38049,-4.01193 c 0.18443,-0.24285 -0.0108,0.45796 0,0 z m -0.39962,-2.09804 c 0.18444,-0.24285 -0.0108,0.45798 0,0 z M 95.586747,131.5874 c -2.332132,-2.34562 -5.62647,-13.19156 -6.453984,-4.34975 -5.877936,5.09942 -8.008672,-3.49692 -7.576893,-9.11115 -0.682872,-7.06013 1.331477,-13.96386 1.447109,-20.955659 -1.424518,3.602029 -1.738001,-6.731978 0.275511,-6.0263 1.957828,-6.848467 -0.05796,-13.819255 4.054778,-19.516615 0.741986,-6.353667 -3.064848,-12.301607 0.773644,-18.019472 -1.287969,-3.944536 2.371964,-8.114082 3.59876,-6.666669 -0.569069,-4.043823 5.188196,-8.02681 4.401415,-5.710367 2.659994,-5.080597 -1.173201,13.181173 0.515677,4.707001 -0.003,-3.54451 2.635677,-11.285135 0.838837,-3.492178 -1.766606,4.837691 0.46298,10.135006 1.07288,2.963243 0.79014,-2.844845 0.10833,-12.775533 2.712989,-7.897238 2.19375,-3.270449 10.95291,-5.559199 9.50906,0.907168 -1.49409,2.237049 2.72335,-5.008451 0.10693,0.846522 -1.51826,2.749337 -4.33771,12.607621 -0.38668,4.732046 0.45643,-2.61083 3.52783,-10.721377 5.51287,-6.369187 -1.99002,1.626158 -5.90779,8.341702 -5.41309,8.547497 2.05894,-3.923039 6.05377,-12.818568 11.27211,-7.514921 -2.19114,2.429016 -7.74164,13.987126 -3.1281,5.482563 1.09134,-2.173134 5.15208,-7.057719 1.83175,-2.158821 -1.61919,2.711372 -5.41324,9.841094 -5.59075,8.736472 4.24567,0.431605 -11.80928,0.357015 -3.70953,0.964477 2.6676,-0.262689 9.05988,-0.358592 2.96796,0.561597 -3.94583,0.880836 -7.56929,-0.508979 -8.35654,-1.67655 -2.65438,5.02168 -5.67412,-0.619377 -9.01588,3.658259 0.244861,0.918829 -6.487556,2.905169 -1.387358,2.240084 -7.876021,3.210593 -1.496196,12.634474 -2.959606,18.747023 -2.021777,7.687925 1.267604,14.35697 5.893235,20.25119 0.77821,6.722005 8.241499,9.341065 13.144089,13.463075 5.10686,2.05506 -4.64317,1.07438 1.08304,2.40251 -5.73996,0.71193 -9.89848,-5.9892 -12.994449,-8.11953 -2.14986,5.32093 3.450449,14.71698 -4.109677,16.21132 -0.811231,3.58215 7.227186,11.23027 0.691821,12.6847 l -0.426668,-0.16445 -0.19526,-0.35784 z m 0.674982,-0.36547 c -1.737164,-1.83402 -6.593883,-12.16948 -3.254956,-4.60101 0.678049,1.6057 2.349459,4.0295 3.254956,4.60101 z M 94.638251,128.319 c -0.480467,-0.75768 0.230237,0.69607 0,0 z m -8.791762,-0.69934 c -0.241112,-0.39233 -0.241112,0.39233 0,0 z m -0.799251,-0.34378 -0.195341,-0.0572 z m 4.164409,-1.27346 -0.01845,0.18052 z m 0.299719,-1.09897 -0.01845,0.18052 z m 3.140953,-0.24851 c -0.391158,-0.41127 0.345615,0.76966 0,0 z m -3.041047,-0.15111 -0.01845,0.18052 z m -3.698617,-0.40587 -0.0048,0.24377 z m 3.916046,-0.27474 c -0.447879,0.1911 0.124619,0.71105 0,0 z m 0.08229,-0.41836 -0.01845,0.18053 z m 0.731004,-0.82458 -0.195341,-0.0572 z m -2.928944,-1.27346 -0.01845,0.18053 z m 0.386811,-1.42991 c 0.01984,-1.24806 -0.381096,1.83275 0,0 z m 0.112721,-0.66812 -0.01845,0.18052 z m -0.801332,-1.00531 -0.0048,0.24378 z m 1.001145,0.10615 -0.01845,0.18053 z m 3.996255,-0.79925 -0.01845,0.18053 z m -4.375272,-1.36705 c 0.02411,-1.28956 -0.35683,1.95602 0,0 z m -6.01437,0.0121 -0.002,0.3459 z m 6.191493,-0.94911 -0.0048,0.24374 z m -1.09897,-0.79925 -0.0048,0.24374 z m 12.088669,0 -0.005,0.24374 z m -0.0956,-1.69841 -0.001,0.44688 z m -11.322466,-0.38714 c 0.3829,-1.94473 -0.543715,1.07505 0,0 z m 1.340655,-0.45145 -0.0661,0.2689 z m -1.109438,-0.90977 -0.002,0.3459 z m 10.993839,-0.85222 4.2e-4,0.89808 z m -11.262521,0.93305 c -0.14709,-0.5361 -0.326364,0.38202 0,0 z m -5.22679,-0.72398 -0.01845,0.18053 z m 16.489311,-4.50504 4.2e-4,0.89807 z m 4.059929,0.20282 c -3.085649,-3.57676 1.325,2.00573 0,0 z m -3.964779,-1.29253 -0.0185,0.18054 z m 0.0978,-1.10522 -0.005,0.24374 z m 2.631309,0.22585 c -1.82336,-3.33609 -2.454719,-2.111 0,0 z M 82.343212,97.810167 c -0.317866,0.497453 0.398029,0.757718 0,0 z m 0.172386,-0.586734 -0.0048,0.243756 z m 16.478523,0.04995 c -0.97285,-1.889461 0.0723,0.713437 0,0 z m -2.960429,-0.499532 c -1.297914,-1.933591 1.050789,1.987547 0,0 z m -0.646384,-1.123947 c -0.659442,-1.107643 0.409062,1.045854 0,0 z m 2.447703,-0.299719 c -0.48049,-0.757683 0.23029,0.696038 0,0 z m -15.419319,-0.724318 -0.0048,0.243756 z m 12.256794,-0.229098 c -0.321781,-0.400345 0.113732,0.500966 0,0 z m 2.363275,-0.44527 c -0.471636,-0.751186 0.21923,0.696021 0,0 z m -14.368372,-0.74229 c -0.06735,-1.056038 -0.146129,1.237879 0,0 z m 0.273023,-1.155931 -0.189044,0.440783 z m 12.696662,-0.499532 c -0.480467,-0.757691 0.230223,0.696039 0,0 z m -0.299719,-0.499532 c -0.480467,-0.757691 0.230223,0.696039 0,0 z m -2.8989,-5.298056 c -0.569943,-0.592215 0.473004,1.066686 0,0 z M 88.094143,75.069193 c -0.367913,-0.430423 -0.482316,0.445067 0,0 z m 0,-0.299719 c 0.312479,-1.994703 -0.943735,0.546555 0,0 z M 87.89433,73.470691 c 0.432298,-0.845426 -0.447791,-1.440675 0,0 z m 0.556459,-8.591948 c -2.226698,-6.930795 -2.397202,-1.1827 0,0 z m -1.20585,-1.798315 c 0.258401,-0.407437 0.342864,0.415608 0,0 z m -0.199813,-0.501821 c 0.299147,-0.523386 0.532915,0.09193 0,0 z m 0.215587,-0.497243 c 0.08661,-0.454711 0.08661,0.454711 0,0 z m 1.351255,3.078366 -0.01845,0.180472 z m 3.028489,-4.742624 c 0.898572,-1.056489 -1.677453,1.63597 0,0 z m -4.238691,0.03404 c 0.738671,-3.215051 -1.503646,1.26729 0,0 z m -0.35664,-0.773426 0.195346,0.05729 z m 0.590886,0.705241 -0.09832,0.284105 z m 1.237979,-6.1942 c 0.297076,-8.781911 -1.276733,2.415413 0,0 z m 14.808569,-2.078357 -0.34415,0.30648 z m 7.51493,-1.291333 -0.74795,2.83e-4 z m 1.04902,0.0066 -0.24378,0.0048 z m -0.88814,-2.381851 c 1.05061,-3.339868 8.2453,-9.207967 5.41774,-10.977705 -1.61971,2.691461 -7.4749,8.147101 -5.41774,10.977705 z m -0.63543,-0.349362 c -0.22442,-0.38684 -0.13122,0.378703 0,0 z m -2.82904,-0.518265 -0.0185,0.180486 z m 7.52464,-3.56885 -0.4698,-0.140257 z m -0.69935,-0.24811 -0.2386,-0.06701 z m -14.794689,-3.257646 -0.0984,0.284091 z m 10.082109,-0.349673 -0.0902,0.297306 z m -9.08152,-1.615153 c 0.35965,-1.317643 -0.49406,1.440833 0,0 z m 5.01508,-3.205329 -0.0932,0.05279 z M 84.797232,129.72147 c -2.879511,-0.72815 -0.434983,-0.89606 0,0 z m 63.298578,-0.26158 c 0.18444,-0.24285 -0.0108,0.45798 0,0 z m -0.0999,-1.01571 c 0.12906,-1.30921 0.12311,1.72981 0,0 z m -0.12491,-0.92414 c 0.0669,-1.40628 0.19375,1.41419 0,0 z m -0.0596,-0.79925 c 0.08,-0.6281 0.08,0.6281 0,0 z m -58.304724,-0.0499 c 0.317796,-0.58457 0.09123,0.55774 0,0 z m 0.167631,-0.39963 0.28314,-0.80828 z m 58.080613,-0.0166 c -0.59465,-2.53451 0.11309,-2.29849 0,0 z M 90.050205,124.9641 c 0.184305,-0.24284 -0.0106,0.45793 0,0 z m 0.100279,-0.34134 0.252162,-0.9655 z m 57.152796,-1.33879 c -0.39838,-2.93481 0.50452,2.37196 0,0 z m -19.34987,-0.76472 c 0.55062,-0.42456 0.95099,0.19552 0,0 z m -31.125103,-2.06758 c 0.239624,-1.75224 3.385783,0.0718 0,0 z m -1.182681,-0.37465 0.183639,-0.34124 z m -16.273815,-0.59944 c 0.135988,-0.45729 0.0265,0.63749 0,0 z m 16.465076,-0.0999 c 0.222222,-0.54651 0.0974,0.53322 0,0 z M 79.95966,119.26945 c 0.184305,-0.24284 -0.0106,0.45793 0,0 z m 0.111496,-2.58924 c 0.135988,-0.45729 0.0265,0.63749 0,0 z m 19.644545,-0.38222 c -0.0663,-0.62679 0.27203,0.38623 0,0 z m -0.0552,-0.5626 c 0.22057,-0.52976 0.0849,0.68739 0,0 z m 0.005,-0.90345 c 0.0714,-1.15722 0.0714,1.15725 0,0 z m -23.50998,0.009 c 0.881708,-1.66307 0.211539,1.42999 0,0 z m 0.311915,-0.17618 c -0.391167,-0.41126 0.345632,0.76969 0,0 z m 69.622544,0.21729 c 0.0664,-1.22726 0.19913,1.2369 0,0 z m -65.918728,-0.29971 c 0.135968,-0.45733 0.02653,0.63744 0,0 z m 65.731118,-1.12395 c -0.63172,-4.63454 0.70054,2.78261 0,0 z m -46.333849,-0.3247 c 0.0678,-1.51161 0.0678,1.51163 0,0 z m -22.087714,-0.27474 c -2.771613,-0.88016 3.516086,-13.142194 0.79924,-11.52536 -0.633863,3.82781 -2.158356,9.27246 -1.244453,2.07138 1.107897,-2.2043 0.886317,-14.539742 2.664362,-6.772225 -0.636342,5.674795 0.530622,11.794025 -2.060117,17.100415 -0.422525,-0.10155 -0.04586,-0.61372 -0.159032,-0.87421 z m -0.54533,-2.77504 -0.150528,0.23537 z m 0.610181,-1.69577 -0.183628,0.34128 z m 0.504544,-0.0949 -0.266267,0.48922 z m 0.44284,-2.06845 c 0.818653,-2.36457 0.241278,-3.94544 0,0 z m 0.128479,0.29636 -0.01845,0.18052 z m 0.09991,-0.59944 -0.01845,0.18052 z m 0.402038,-3.10218 -0.0034,0.39648 z m -0.09991,-0.99906 -0.0034,0.39648 z m 0.02925,-0.31996 -0.19535,-0.0573 z m -0.129306,-0.97999 -10e-4,0.44688 z m -0.403967,-1.098967 -0.0048,0.243756 z m 0.299719,-0.199813 -0.0048,0.243756 z m -1.756687,14.25331 c 0.184305,-0.24284 -0.0106,0.45793 0,0 z m 22.408103,-2.63919 c 0.0652,-1.86636 0.0652,1.86636 0,0 z m 46.158149,0.45541 c -0.30734,-1.08065 0.38546,0.41523 0,0 z m -32.10831,-0.54125 c -0.102,-1.25573 0.56327,0.0977 0,0 z m 31.93216,-0.57043 c -0.26145,-2.14505 0.416,1.64537 0,0 z m -68.810529,-0.39675 c -0.129215,-0.91732 0.924204,-0.9642 0,0 z m 3.0353,-0.39563 c 0.116777,-0.63443 0.03758,0.81398 0,0 z m 19.75627,-0.14986 c 0.22433,-0.38683 0.13153,0.37876 0,0 z m 45.857019,-0.14985 c 0.0705,-0.87116 0.21213,0.88457 0,0 z m -65.530025,-0.44958 c -0.176305,-1.88917 0.513339,0.62664 0,0 z m -2.88636,-0.05 c 0.135988,-0.45729 0.0265,0.63749 0,0 z m 68.324365,-0.008 c 0.18444,-0.24285 -0.0108,0.45798 0,0 z m -0.0733,-0.39561 c -0.12406,-0.68728 0.32319,0.53787 0,0 z m -68.162738,-0.10392 c 0.184305,-0.24284 -0.0106,0.45793 0,0 z m 0.107794,-0.44126 c 0.08662,-0.4547 0.0866,0.45474 0,0 z m 67.776254,-0.50508 c -0.51339,-2.6945 0.6746,2.41774 0,0 z m -67.626559,-0.24422 c 0.108619,-1.58424 0.145363,0.68921 0,0 z m 0.441856,-0.008 c 0.184305,-0.24284 -0.0106,0.45793 0,0 z m 21.808184,-0.79093 c 0.0811,-1.68457 0.0503,1.88368 0,0 z m -21.696689,0.29972 c 0.135988,-0.45729 0.0265,0.63749 0,0 z m 66.825578,-0.30882 c 0.18444,-0.24285 -0.0108,0.45798 0,0 z m -67.129202,-0.34135 c 0.08661,-0.4547 0.08661,0.4547 0,0 z m 66.884782,-0.53321 c -1.05758,-2.634 0.67722,1.14241 0,0 z m -63.783982,-0.0163 c 0.135968,-0.45733 0.02653,0.63744 0,0 z m -2.951105,-0.19982 c 0.108619,-1.58424 0.145363,0.68921 0,0 z m 21.911378,-0.42924 c 0.0835,-1.52193 0.0986,1.325 0,0 z m 44.322469,-0.68125 c -0.50533,-1.73336 0.69934,1.50102 0,0 z m -65.891897,-0.59624 c 0.184305,-0.24284 -0.0106,0.45793 0,0 z m 65.505937,-0.46273 c -0.58766,-1.58164 0.66207,1.19384 0,0 z m -65.398144,0.0215 c 0.0866,-0.45474 0.08662,0.4547 0,0 z m 1.907642,-0.34968 c 0.116777,-0.63443 0.03758,0.81398 0,0 z m 0.697328,-0.74929 c 0.07998,-0.62809 0.07999,0.62806 0,0 z m 29.618334,-0.57815 c -2.02558,-4.556665 11.20848,-2.140637 3.5581,-0.29906 -1.17706,0.18521 -2.36895,0.25216 -3.5581,0.29906 z m 2.00452,-0.44141 c 1.84628,-1.077688 -3.60094,1.02729 0,0 z m 3.57096,-0.726008 c 1.03832,-0.552415 -2.17909,0.698478 0,0 z m -33.718397,0.546688 c 0.241112,-0.39233 0.241112,0.39233 0,0 z m 0.03044,-1.02483 c -0.404619,-1.950221 0.619315,1.46596 0,0 z m 17.287678,-2.22303 c -0.12677,-0.713556 0.50795,1.008065 0,0 z m 9.114109,-0.100903 c 1.92456,-2.691911 3.10652,-0.626767 1.06669,-1.546564 3.52113,-2.63959 13.43412,1.13762 5.01831,1.314819 -2.02672,0.103538 -4.05499,0.231105 -6.085,0.231745 z m 8.99088,-0.670441 c -4.10847,-0.709605 -4.84235,0.358328 0,0 z m -1.87954,-0.645358 -0.3459,0.002 z m -33.716165,0.968026 c 0.07632,-0.80381 0.07632,0.803807 0,0 z m 17.144646,-0.124883 c -1.07706,-1.755573 0.58699,0.709087 0,0 z M 80.682075,95.500048 c 0.09826,-0.983753 0.04598,1.170347 0,0 z m -2.678476,0.349672 c 0.224245,-0.3869 0.131531,0.378827 0,0 z m 20.518732,-0.124883 c -1.12956,-1.808079 0.58965,0.669195 0,0 z M 79.989145,94.500984 c 0.07836,-1.860491 0.05064,2.061845 0,0 z m 17.616396,-0.324696 c -2.650563,-4.439046 1.69399,2.456093 0,0 z m 42.897379,0.116558 c 0.1845,-0.242711 -0.0109,0.458016 0,0 z m -30.14308,-0.117607 c -10.10429,-2.470743 5.20824,-8.497199 5.56552,-3.129768 -1.75023,1.700684 -2.43362,3.592728 -5.56552,3.129768 z m 30.2603,-0.673319 c 0.11682,-0.634446 0.0376,0.813935 0,0 z M 96.181919,91.728582 c -1.864343,-3.330924 1.897682,2.776373 0,0 z m -1.245627,-2.098034 c -0.669655,-1.384376 1.215923,1.996844 0,0 z m -0.598001,-0.974087 c -0.217802,-0.704952 0.469337,0.758484 0,0 z m -0.261628,-0.424602 c -1.010609,-1.311892 0.428041,0.180715 0,0 z m 40.531767,-0.634904 c -2.61613,-1.078784 2.81011,0.461991 0,0 z m -22.58395,-3.686047 c -2.38894,-3.728377 -0.0539,-12.178229 1.24115,-12.48279 -2.28508,3.702007 -2.2782,8.383002 -1.24115,12.48279 z m 0.53602,-0.09991 c -2.40174,-2.89564 -0.24523,-13.964672 2.18132,-11.874692 -2.61836,5.781131 4.21391,-2.294019 1.87625,3.106432 1.60632,1.917592 8.29137,7.770707 3.11579,6.071283 -2.75702,-3.052134 -5.33018,-5.120242 -1.08863,-0.975434 4.7585,5.298946 -4.76788,-2.691779 -4.92474,-4.664615 -1.5041,2.093506 1.45527,8.232265 -1.15999,8.337026 z m 8.15307,-2.085802 -0.30375,-0.255468 z m -0.59943,-0.892698 -0.55704,-0.521837 z m 0.99906,-1.002271 -0.45206,-0.40627 z m -1.04604,3.757805 c -3.57139,-1.766314 -5.36571,-5.579837 -1.15775,-1.110585 -0.37725,0.09113 2.62492,1.160538 1.15775,1.110585 z M 119.20742,81.8878 c -0.85052,-0.974586 0.97505,0.989758 0,0 z m 1.75663,0.17598 0.15266,0.06564 z m -2.74814,-1.050161 c -1.41333,-1.578278 1.70739,1.654081 0,0 z M 105.29467,78.21962 c -1.29064,-4.710332 0.56692,2.282835 -2.14966,-2.407873 -2.4754,-1.372847 -7.511564,-1.324849 -1.69743,-0.893088 5.20541,1.271121 -8.777785,-1.661228 -1.26979,-3.503924 4.70557,-3.816792 11.70501,5.716661 5.11688,6.804885 z m -0.71598,-2.750805 c -0.24109,-0.39235 -0.24109,0.39235 0,0 z m 1.56687,-1.32043 c -0.45846,-0.05776 0.36249,0.434932 0,0 z m 10.2593,3.942972 0.0932,0.05279 z m 8.00525,-3.677156 c -5.56662,-3.480816 7.24496,-2.025321 0.79545,0.585083 z m 1.05374,0.06319 c -2.16871,-1.282006 -0.8632,0.122025 0,0 z m -10.99638,-0.73196 c 0.17468,-2.071432 0.55134,1.155646 0,0 z m 23.44792,-1.023956 c -0.82371,-2.086039 -0.96369,-5.954484 -0.0873,-1.309545 z m 0.58929,-0.06472 c -3.99133,-5.316279 4.10044,-5.337538 0,0 z m -35.77425,-2.521286 0.43522,-0.04942 z M 126.0821,57.126225 c 3.6806,-4.280857 8.94769,-7.071258 12.51337,-11.201763 2.57523,0.742835 -6.05816,6.119721 -8.10817,8.338448 -1.48567,0.892372 -2.49398,2.899094 -4.4052,2.863315 z m -0.67293,-0.677344 0.30376,-0.255467 z m -0.5483,-0.198827 c -2.5653,-0.264081 -0.80467,-5.785327 -4.89489,-4.755934 -3.2143,-3.464578 2.54336,-13.025937 8.37192,-12.554016 6.17605,-0.01735 0.85816,8.311786 1.01651,7.993292 1.6598,-3.442071 12.28882,-8.545655 9.34199,-1.533004 -4.34737,3.514115 -8.38967,6.968288 -12.31349,10.456593 l -0.7761,0.350781 z m 0.5483,-1.212095 c 0.67249,-0.882309 -0.96094,0.955216 0,0 z m 3.79645,-2.114534 c 2.70371,-2.211224 11.35801,-9.580601 3.87196,-3.474755 -1.30576,1.048652 -8.42044,7.404884 -3.87196,3.474755 z m 0.49953,-1.899055 c 2.17024,-1.819296 9.86434,-8.237362 3.85438,-3.398353 -2.1245,1.505163 -11.64814,10.501108 -3.85438,3.398353 z m -0.71317,2.631551 c -0.12754,-0.508585 -0.3131,0.530553 0,0 z m 0.60184,-0.673099 c -0.49592,-0.247814 0.16216,0.494649 0,0 z m -6.33334,-0.491332 -0.15266,0.06564 z m 3.94701,-0.450723 c 0.67249,-0.882312 -0.96097,0.955228 0,0 z m 3.74222,-0.04305 c 0.0256,-0.475814 -0.2816,0.327351 0,0 z m 3.40108,-6.010507 c 1.88226,-1.836813 -9.66489,8.095209 -3.68835,3.090267 1.22385,-1.036727 2.44734,-2.074052 3.68835,-3.090267 z m -2.70173,5.411069 c 0.0256,-0.475814 -0.2816,0.327351 0,0 z m 0.49953,-0.513339 c -0.39526,-0.38957 -0.0381,0.524259 0,0 z m -12.08284,-0.585391 c -0.42809,-1.103754 0.165,1.157686 0,0 z m 13.53575,-0.562768 c -0.7995,-0.08109 -0.9941,1.373037 0,0 z m -8.05912,0.104473 c 3.0777,-1.770984 -0.90386,-1.108976 0,0 z m 8.50443,-0.554816 c -0.39527,-0.38954 -0.0381,0.524275 0,0 z M 119.5147,48.893716 c -0.13161,-0.378776 -0.22422,0.386951 0,0 z m 8.34847,-0.324696 c 1.02301,-1.07321 -1.20556,1.084304 0,0 z m 6.88298,0.117979 c -0.39531,-0.389528 -0.038,0.524266 0,0 z m -8.19385,-0.202287 c 2.91937,-2.883785 5.02928,-7.619695 0.72599,-1.900551 -0.0573,-0.325037 -1.99142,2.367134 -0.72599,1.900551 z m 3.1029,-4.586315 c 0.76376,-0.770327 -0.4777,0.694116 0,0 z m -1.04902,4.046208 c 0.67249,-0.882312 -0.96097,0.955228 0,0 z m -1.63842,-1.423666 c 4.26437,-5.340424 -2.20324,2.458282 0,0 z m 9.53924,0.804706 c -0.33852,-0.482326 -0.7804,1.105577 0,0 z m -7.20148,0.01952 c 0.67249,-0.882309 -0.96094,0.955216 0,0 z m 0.69935,-0.599439 c 0.67249,-0.882312 -0.96097,0.955228 0,0 z m 7.03913,0.156764 c 0.0256,-0.475814 -0.2816,0.327351 0,0 z m -6.33979,-0.756202 c 0.67249,-0.882309 -0.96094,0.955216 0,0 z m 0.69935,-0.599438 c 0.67249,-0.882312 -0.96097,0.955228 0,0 z m 0.54948,-0.449579 c 0.477,-0.712607 -0.76078,0.7829 0,0 z m -3.00146,-0.392722 c -0.009,-0.508985 -0.32938,0.342886 0,0 z m 3.65085,-0.156763 c 0.67249,-0.882309 -0.96094,0.955216 0,0 z m 0.54949,-0.449579 c 0.47697,-0.712608 -0.76077,0.782908 0,0 z m 5.65822,-0.145949 c 0.71158,-0.545946 -1.38514,0.69816 0,0 z m -9.55457,-0.253676 c 0.47697,-0.712611 -0.76077,0.782908 0,0 z m 4.39588,0 c 0.477,-0.712611 -0.76078,0.782891 0,0 z m 0.86195,-0.674368 c 0.28575,-0.428491 -0.68733,0.615968 0,0 z m -4.57484,-1.518815 -0.92764,0.878427 z m 0.56584,-0.254523 c 0.53562,-0.560146 -1.19044,0.702711 0,0 z m -5.62182,-2.208348 -0.18334,0.0057 z M 97.385431,53.988939 c 0.22442,-0.38684 0.13122,0.378703 0,0 z m 32.636749,-0.667673 c 2.00547,-1.820303 -0.79183,0.929228 0,0 z m -12.53059,-2.195863 0.24378,0.0048 z m -0.99906,-0.599438 0.24378,0.0048 z m 17.11449,-0.208577 0.52139,-0.44497 z m 0.69382,-0.600382 0.40107,-0.301222 z m 0.84921,-0.723377 c 0.76376,-0.770328 -0.4777,0.69412 0,0 z M 97.351261,47.29522 c 0.0866,-0.454708 0.0866,0.454711 0,0 z m -0.21406,-0.524508 c 0.14121,-0.568112 0.14246,0.84127 0,0 z m 31.778119,0.199813 0.79979,-0.660735 z m 1.28936,-1.076338 1.18202,-0.990544 z m -21.72428,0.07727 c 0.87035,-1.827808 0.31959,1.040426 0,0 z m -11.198979,0.01833 c -0.13238,-0.507353 0.32998,0.382537 0,0 z m 0.15397,-1.491949 c 0.0792,-0.697585 0.21778,0.712561 0,0 z m 34.297229,0.133931 1.06914,-0.904145 z M 97.543181,43.840121 c 0.18449,-0.242705 -0.011,0.458012 0,0 z m 35.531029,-0.346382 c 0.91076,-0.702617 -0.81219,0.797415 0,0 z m -35.439009,-0.30058 0.19533,0.05729 z m 35.966299,-0.112028 1.17411,-0.822437 z M 97.780951,42.69288 c -0.13238,-0.507352 0.32998,0.38254 0,0 z m 12.342549,-0.7985 0.19533,0.05729 z m 0.19981,-0.499532 0.19533,0.05729 z m 0.10144,-0.264907 0.22487,-0.252366 z m 0.39809,-1.033876 0.19533,0.05729 z m 0.29972,-0.799251 0.19533,0.05729 z m 0.19981,-0.499532 0.19533,0.05729 z m 0.59944,-1.598502 0.19533,0.05729 z m 0.29972,-0.799251 0.19533,0.05729 z m -10.91701,-1.799021 c 0.40086,-0.479201 -0.11193,0.677717 0,0 z m 5.24923,-0.362351 0.29488,0.0067 z"
       style="fill:#a9a9a9;fill-opacity:1;stroke-width:0.09990638" />
    <path
       id="path843"
       d="m 45.228159,268.12019 c -0.335819,-0.57118 1.159896,0.12274 0,0 z m 0.553601,-0.601 c -0.22542,-0.47818 0.691936,0.28273 0,0 z m -0.602233,-0.80378 c 0.116886,-2.05344 -0.937637,-3.67472 0.556407,-2.57111 1.132233,-1.01586 -0.100257,2.55494 -0.556407,2.57111 z m 0.806154,-1.38752 c -0.12407,-0.39385 -0.358488,0.38034 0,0 z m -1.09897,0.69935 c 0.256074,-0.37002 0.38407,0.35816 0,0 z m 0.799251,-2.81704 c -2.155717,-0.16619 -0.623735,-5.55688 -0.289837,-3.67106 0.389478,1.30064 0.235718,2.378 0.289837,3.67106 z m -0.399625,-0.57978 c -0.498447,-0.36264 -0.264942,0.38528 0,0 z m -0.924134,-1.96439 c -0.454611,-0.90759 1.193142,-0.42153 0,0 z m 89.693417,-1.4574 c 1.51584,-8.76954 2.82617,-16.29645 2.4152,-24.70186 -0.98388,5.49813 -2.88929,16.35169 -2.67798,18.58259 -0.53933,-10.35521 4.29404,-20.48759 2.87617,-31.05052 -0.80767,-5.45413 -0.90906,-19.23649 -0.17424,-20.05159 -1.06281,10.14887 1.70187,20.29615 0.93115,30.36249 -1.54662,8.90833 -0.0524,18.48008 -3.28273,27.07368 l -0.0873,-0.21475 z m 3.15597,-26.80355 c 0.84148,-4.82463 -1.04307,-12.38996 -0.35303,-2.88738 0.11445,0.79245 -0.30537,7.83373 0.35303,2.88738 z M 44.068557,258.9706 c 0.505472,-2.67853 -0.638376,-2.223 -0.735439,-5.45779 -0.281248,-1.84693 -0.715078,-4.82544 -0.900866,-6.23542 0.358098,-0.53863 -1.756622,-6.81525 -0.09321,-5.02786 0.655429,3.00543 1.617998,6.24606 1.970698,9.05611 -0.13076,1.64096 2.474032,6.34648 0.189083,7.54402 l -0.200348,0.27699 -0.23003,-0.15605 z m 0.373611,-3.03391 c -0.125261,-0.65989 -0.882995,0.21706 0,0 z m 0.294684,-1.28713 c -1.441833,-0.35201 -0.28325,0.15664 0,0 z m -0.399626,-1.5602 c -0.332918,-0.31378 -0.416425,0.61774 0,0 z m -0.699345,-2.3478 c -0.256074,-0.37002 -0.38407,0.35816 0,0 z m -0.399625,-0.68269 c -0.392214,-0.6112 -0.159424,0.36597 0,0 z m 0.299719,-0.52208 c -0.762909,-0.78337 -1.042674,0.35306 0,0 z m -0.450286,-1.49155 c -0.15033,-0.21382 -0.25688,0.38876 0,0 z m 0.310834,-0.67344 c -0.435889,0.23562 0.287552,0.28791 0,0 z m 5.534397,11.11251 c 0.270806,-0.46404 0.270853,0.46402 0,0 z m 77.06755,-0.44958 c 1.38133,-6.74895 1.959,-22.16068 2.31576,-23.21117 -0.6244,7.73976 -0.4526,15.64167 -2.31576,23.21117 z m -78.016661,-0.19981 c 0.255266,-0.35839 0.255266,0.35839 0,0 z m 107.806051,-0.79926 c 0.48107,-1.18382 -0.22873,0.92119 0,0 z m -0.31366,-1.0531 c -0.15823,-10.17308 -2.34706,-20.08718 -1.39787,-30.34166 0.71621,2.98526 -0.10908,11.5365 0.58769,16.90834 2.00988,6.72595 -0.71247,-12.62372 0.0248,-16.11647 0.42677,-12.87518 -0.70106,-25.74973 -2.01388,-38.53232 1.80109,8.85335 1.73867,17.831 2.44368,24.72683 -1.27271,9.97631 14.65574,-5.69686 14.14372,-5.03584 -10.69376,3.30359 6.35632,-3.81902 7.88682,-6.45718 4.77089,-3.99254 10.88049,-10.57892 9.80431,-18.32904 -4.70543,-8.21293 -11.24765,-15.34647 -16.68998,-23.20317 -3.739,-1.84045 -11.15078,-18.20055 -4.75504,-7.21832 7.12389,10.65367 -2.15744,-5.73287 -3.31359,-9.61976 -4.74407,-9.36352 4.04053,7.43796 4.94372,10.2192 2.00062,4.58563 5.62102,8.80239 1.40248,1.6984 -4.49041,-8.68588 -5.59116,-13.47685 -10.20043,-19.01471 -7.54001,-9.91618 3.34024,6.62251 4.57847,9.98041 3.35271,7.65646 0.84233,1.52447 -1.96814,-1.0178 1.03132,1.86748 -4.47008,-3.99461 -5.36414,-5.88623 -3.26925,-4.2288 -5.05919,-9.32727 -7.57473,-14.08345 1.98787,7.55812 8.8357,16.96939 12.58205,20.97561 -5.89456,-4.34479 -9.71528,-14.8565 -12.75438,-18.62781 -0.0171,4.14147 -1.89039,14.11776 -1.79257,4.34401 0.0117,-7.81872 -0.0844,-15.68104 -0.38712,-23.45519 1.21785,9.81022 3.79253,15.41034 10.20841,23.17958 3.61775,5.284 6.04779,8.58745 8.30461,13.26536 -0.8105,-1.64267 -1.63766,-3.29652 -2.51391,-4.85843 2.94968,4.97236 -1.81868,-4.63628 1.50841,0.82369 4.48825,8.83568 8.11332,18.27197 14.49069,26.01232 -3.16122,-0.7769 5.94155,9.66918 8.34591,13.67045 5.18335,7.74118 -2.67926,17.19261 -7.66832,22.75832 -7.33518,4.40868 -12.82749,12.02395 -21.40815,13.8922 -3.32819,4.31097 -1.30666,11.0328 -2.10076,13.18629 0.69671,8.32889 1.6461,19.44965 0.64724,26.15637 z m 19.72791,-90.63598 c -2.55751,-2.92609 1.8639,2.92969 0,0 z m 0.6732,0.24977 c -0.36369,-0.91252 -0.37735,0.13029 0,0 z m -0.43051,-0.49953 c -0.20376,-0.79014 -0.46663,-0.0632 0,0 z m -0.38327,-0.54949 c -0.14969,-0.85505 -0.16068,0.76039 0,0 z m -0.29972,-0.39963 c -0.14971,-0.85504 -0.16063,0.76041 0,0 z m -1.3478,-0.6749 c -3.3646,-4.78078 1.09408,2.32016 0,0 z m 1.01243,0.31604 c -0.20004,-0.7341 0.0272,0.57566 0,0 z m -0.24621,-0.39876 c -0.32132,-0.48483 -0.0422,0.49211 0,0 z m -0.22676,-0.34967 c -0.22962,-0.29986 -0.23014,0.29969 0,0 z m -0.27278,-0.36193 c -0.0937,-0.33459 -0.2111,0.26987 0,0 z m -0.19981,-0.29972 c -0.0937,-0.33459 -0.2111,0.26987 0,0 z m -0.19981,-0.29972 c -0.0937,-0.33459 -0.21109,0.26988 0,0 z m -0.19981,-0.29972 c -0.0937,-0.33459 -0.21109,0.26988 0,0 z m -0.19982,-0.29972 c -0.0937,-0.3346 -0.21111,0.26988 0,0 z m -0.19981,-0.29971 c -0.0937,-0.3346 -0.21111,0.26988 0,0 z m -0.4592,-0.64065 c -0.17374,-0.90334 0.0148,0.72083 0,0 z m -1.09897,-1.79832 c -0.17374,-0.90332 0.0148,0.72086 0,0 z m -0.24668,-0.63755 c -0.37112,-0.60309 -0.29597,0.44737 0,0 z m -1.00918,-1.67343 c -1.00883,-1.78479 0.78302,1.7722 0,0 z m -1.34874,-2.59757 c -0.83265,-1.43012 0.60682,1.41759 0,0 z m -1.04902,-1.99813 c -0.65724,-1.07592 0.43128,1.06336 0,0 z m -1.28696,-2.56375 c -0.52368,-0.83379 0.46435,1.07491 0,0 z m -0.42327,-1.08802 c -0.001,-0.32212 -0.31024,0.30772 0,0 z m -0.49953,-1.29878 c -0.001,-0.3221 -0.31049,0.30769 0,0 z m -0.42556,-0.91145 c -0.22479,0.1306 0.33438,0.45622 0,0 z m -0.21415,-0.63323 c -0.29249,-0.87293 -0.0472,0.24242 0,0 z m -4.42545,-1.5785 c -1.90775,-2.27562 1.10186,1.57241 0,0 z m -1.16717,-1.2501 c -0.67991,-0.74209 -0.78969,-0.61236 0,0 z m 1.22714,-0.59188 c -2.93645,-3.91309 -9.2536,-16.87953 -9.79047,-15.73143 2.27307,5.14434 7.07721,13.65245 9.79047,15.73143 z m -1.82657,-0.11265 c -0.33772,-0.40533 -0.47231,-0.27594 0,0 z m -10.09055,-17.34599 c -0.48317,-0.72269 0.25692,0.71017 0,0 z m -0.12412,-2.6537 c -0.83571,-1.35731 0.72558,1.54928 0,0 z M 46.43526,255.53707 c 0.256074,-0.37002 0.38407,0.35816 0,0 z m 87.73358,-0.49953 c 0.0874,-0.45034 0.0875,0.45032 0,0 z m -3.32821,-1.16112 c -4.37514,-7.20063 4.50019,2.5928 0,0 z m 19.97027,-7.73055 c -0.4588,-10.49111 -1.18352,-20.90275 -3.35991,-31.14469 -1.67297,-10.41857 -0.11296,-20.93442 0.83792,-31.38604 1.17872,-7.3491 -0.0249,-6.47556 -4.90039,-2.09876 0.98656,-0.7272 12.85629,-16.72106 3.34009,-6.21714 -6.14568,2.97944 7.20933,-5.33347 3.25975,-9.72584 -1.60525,-4.70658 -1.97009,-7.75289 -0.85529,-6.1481 -1.52514,-11.07782 3.42373,13.37241 1.59941,1.06953 -2.55539,-9.32502 -7.30691,-17.87373 -12.18688,-26.09643 5.67058,7.10497 9.65224,15.52313 12.78196,23.82977 1.66142,2.82367 -3.39642,-13.21344 0.12147,-2.74742 4.06969,10.08835 -1.504,20.54942 0.49537,30.90949 0.36937,2.77881 -1.2427,-5.41732 -0.93476,2.12984 0.64769,9.87552 -2.3214,19.52434 -1.94117,29.32144 3.03163,9.56138 2.73595,19.69345 1.9046,29.56587 l -0.16215,-1.2616 z m -2.8602,-36.8155 c 0.87039,-10.36397 2.30292,-20.74078 2.3304,-31.1708 -1.54253,8.72668 1.84123,-10.85794 -0.9606,-0.72705 0.36197,11.1947 -2.41277,22.26853 -1.6079,33.44644 l 0.23814,-1.54855 z m 1.39669,-28.77304 c 0.20836,-0.86675 0.28133,-0.043 0,0 z m 2.34317,-5.0203 c 0.16427,-4.22247 -1.09907,0.99194 0,0 z m -1.06669,-8.11739 c -0.43227,-3.82325 -0.22586,2.65299 0,0 z m -0.58753,-5.24509 c -0.91547,-2.3619 1.06142,3.89515 0,0 z M 41.42572,241.22548 c -0.84137,-4.00455 0.65173,-1.74618 0.189056,0.0234 l -0.189057,-0.0234 z m -0.329863,-3.20554 c -3.142712,-3.89491 1.777875,0.51096 0,0 z m -0.582509,-1.85893 c 0.04187,-0.97616 0.725852,0.91886 0,0 z m -0.154726,-0.86026 c 0.32289,-0.5924 0.338178,0.5565 0,0 z m 0.0323,-0.64412 c 0.120837,-0.36525 0.246392,0.35587 0,0 z m -0.283068,-0.86585 c -0.222908,-0.81518 0.627148,0.0684 0,0 z m -0.186161,-0.88251 c -0.558742,-1.16335 0.329025,-0.99122 0,0 z m -0.361947,-1.67343 c 0.323084,-0.78528 0.323084,0.78528 0,0 z m 88.739474,-2.44771 c 0.0694,-7.60625 -0.57579,-21.96643 -0.16085,-25.43369 0.23426,7.66316 0.74862,22.02873 0.16085,25.43369 z m -89.356941,-0.86828 c 0.1896,-0.50306 0.310319,0.36226 0,0 z m -0.149859,-0.45548 c 0.255266,-0.35839 0.255266,0.35839 0,0 z m 92.70083,-0.84988 c -5.03093,-5.17752 6.19533,2.11277 0,0 z m 2.11111,-13.38677 c 0.26669,-8.34776 1.96842,-16.42668 2.53519,-24.74543 0.499,8.89308 -2.32186,17.47303 -2.57896,26.34393 0.0146,-0.53283 0.0292,-1.06567 0.0438,-1.5985 z m -92.763859,0.7434 c 0.287755,-0.19051 0.233154,0.34317 0,0 z m -0.649392,-0.29383 c -2.371776,-0.9544 1.964584,-0.3898 0,0 z m -1.348736,-0.48884 c 0.428935,-0.55838 0.632375,0.38741 0,0 z m 0.943376,-0.85173 c -0.467105,-0.6766 0.841813,0.19533 0,0 z m 88.017141,-3.65475 c 0.0565,-4.88434 0.0565,4.88436 0,0 z m -0.11653,-3.89634 c 0.0765,-0.80175 0.0765,0.80175 0,0 z m -0.0519,-6.29411 c 0.16935,-7.34673 0.0889,6.67301 0,0 z m 3.52077,1.20039 c -4.88066,-3.1504 4.26551,-0.49711 0,-1e-5 z m 5.90309,-1.79982 c 0.17731,-6.35268 -2.34704,-19.95122 -2.06305,-22.07932 0.65728,6.74652 2.72149,18.12217 2.06305,22.07932 z m -59.454278,0.89538 c -1.062212,-5.48801 0.485926,-8.39487 2.503077,-13.40483 0.316359,-4.51487 -0.326224,1.9706 -2.101479,1.80248 1.45305,1.65561 -1.546116,2.8867 -0.749292,1.31573 0.09663,-1.31985 -2.312446,-1.56731 -0.762085,-2.60102 -3.24385,-1.52954 1.02313,-1.01537 -2.403791,-2.36544 1.057086,-1.19969 1.252542,-4.30008 1.836084,-6.27165 1.331536,-3.53395 2.066405,-6.98708 3.131919,-11.00063 0.844941,-4.25254 1.314561,-10.62087 1.749085,-15.78407 0.117605,-5.21117 0.724232,-10.46411 0.984327,-15.76253 0.688393,-1.99902 1.103805,-1.7701 1.423936,-3.35318 2.578389,2.32085 1.712253,0.32038 0.984023,-0.44159 3.930258,-0.0945 3.925522,4.01868 3.828601,8.5728 -0.902202,4.75145 -0.442994,10.18627 -1.466288,14.2515 0.868345,2.7036 -1.132994,7.72704 -0.07847,11.43918 1.318581,5.11317 1.672457,7.62796 -0.07552,0.87994 -1.040191,-4.60266 -1.146996,5.18583 -2.452291,6.80238 -1.157824,5.3617 -2.844711,21.10305 -4.080763,17.0358 -1.476642,2.44333 -0.957151,7.36101 -2.271068,8.88513 z m 0.701363,-10.4864 c -0.246394,-0.35587 -0.120834,0.36525 0,0 z m -0.748778,-1.39954 c -0.309269,-0.55553 -0.832513,-0.014 0,0 z m 0.548965,-0.44559 c -0.149251,-0.36719 -0.465552,0.39848 0,0 z m -0.378215,-0.52883 c -0.956811,0.10923 0.02318,0.37729 0,0 z m 0.478122,-0.38079 c -0.447034,-0.47274 -0.516544,0.546 0,0 z m 1.096072,-0.13863 c -1.603635,-0.54985 0.207813,-0.15753 0,0 z m -0.824507,-0.46902 c 0.798225,-1.59934 -1.377409,1.00251 0,0 z m -0.671191,-0.22833 c -0.65869,-0.45245 -0.595828,0.38753 0,0 z m -0.943726,-0.21441 c -0.04539,-0.75056 -0.890007,0.2148 0,0 z m 2.367392,-0.53943 c 0.526174,-1.04841 -3.283384,0.70922 0,0 z m -2.722449,-0.20706 c -0.225619,-0.58332 -0.408589,0.73968 0,0 z m 0.499532,-0.24387 c -0.246394,-0.35587 -0.120834,0.36525 0,0 z m 3.296281,-0.12489 c -1.341969,-1.79067 -1.162953,0.97094 0,0 z m -3.555688,-0.22522 c 0.185761,-0.76912 -0.996512,0.66538 0,0 z m 1.658096,-0.15256 c -1.158142,-1.4548 -1.791378,0.13937 0,0 z m -2.995187,-0.24905 c 0.411345,-0.6562 -0.866843,0.44194 0,0 z m 5.392941,-0.0475 c -0.546048,-0.36573 -0.371703,0.37514 0,0 z m -1.031644,-0.37772 c -1.861045,-0.88728 0.694443,1.01829 0,0 z m -1.965548,-0.42154 c -0.120834,-0.36525 -0.246394,0.35587 0,0 z m 1.948174,-0.49953 c -0.255266,-0.35839 -0.255266,0.35839 0,0 z m -4.046208,-0.34378 c -0.233154,-0.34317 -0.287755,0.19051 0,0 z m 2.55026,-0.13646 c -0.416685,-0.10296 -0.0143,0.35211 0,0 z m 2.471834,-0.61873 c 0.636128,-0.74541 -1.551793,0.76801 0,0 z m -3.623405,-0.19981 c -0.255266,-0.35839 -0.255266,0.35839 0,0 z m 0.999064,-0.0999 c -0.256073,-0.37002 -0.384065,0.35816 0,0 z m 1.198877,-0.71113 c -0.346772,-0.17234 -0.164804,0.46642 0,0 z m -2.697473,-2.48587 c -0.255266,-0.35839 -0.255266,0.35839 0,0 z m 4.196069,0 c -0.161088,-0.42135 -0.601216,0.34218 0,0 z M 79.604188,175.612 c -0.246394,-0.35587 -0.120834,0.36525 0,0 z m 0.399625,-0.89916 c -0.255266,-0.35839 -0.255266,0.35839 0,0 z m 1.198877,-0.79925 c -0.255266,-0.35839 -0.255266,0.35839 0,0 z m -1.198877,-3.09709 c -0.120834,-0.36525 -0.246394,0.35587 0,0 z m -0.826305,-3.35728 c -0.395686,-0.2101 -0.09321,0.22511 0,0 z m 1.52565,-2.18163 c -0.233183,-0.34313 -0.28776,0.1902 0,0 z m 5.694664,-7.1492 c -0.255266,-0.35839 -0.255266,0.35839 0,0 z m -3.996255,-22.97847 c -0.384065,-0.35816 -0.256073,0.37002 0,0 z m 0.296822,-0.79535 c 0.470346,-0.51741 -1.172824,0.30709 0,0 z m 71.549941,61.21673 c -0.35748,-3.4818 -3.16947,-18.96456 -1.90159,-16.49263 0.52619,4.45528 2.63393,15.24564 1.90159,16.49263 z m -26.4329,-1.62648 c 0.33984,-11.16391 0.33622,-22.3937 -2.66428,-33.25104 0.4594,-0.90963 3.02694,12.66317 2.98426,17.76864 0.0903,3.96946 0.07,15.08933 -0.31998,15.4824 z m -52.607123,-0.14986 c 0.389953,-0.36495 0.389953,0.36495 0,0 z m -0.802229,-0.39406 c -0.701012,-1.27491 -2.598977,-1.67501 -1.476073,-3.26272 0.681764,-1.13009 2.694976,1.09074 0.443448,-1.37493 -1.278274,-1.86971 2.395171,0.8118 3.455657,1.04202 -1.310928,2.34146 -2.128254,0.48915 -0.184467,3.07851 0.197767,-0.42787 -2.096028,0.36335 -2.238565,0.51712 z m -0.01569,-1.37927 c -0.64139,-0.72641 -0.601133,0.65489 0,0 z m 1.017736,-2.03732 c -0.601272,-0.28275 -0.459974,0.6684 0,0 z m -1.292464,-0.64279 c 0.250744,-0.79015 -1.052313,0.60355 0,0 z m -0.33934,3.7874 c -0.343406,-0.79699 1.163985,0.10484 0,0 z m 3.276153,-1.53854 c -0.225444,-0.47818 0.691928,0.28273 0,0 z m 0.85331,-1.89158 c 0.262847,-0.86868 1.237286,-0.62702 0,0 z m -2.228526,-0.76323 c -0.03276,-0.64485 0.537761,0.15901 0,0 z m 109.574983,-0.8294 c 3.11157,-9.52773 1.03751,0.75483 0,0 z m -109.156376,0.49314 c -0.239158,-1.3119 1.684972,-0.0851 0,0 z m -2.486055,-0.39237 c 1.095764,-1.65543 0.588402,1.09093 0,0 z m 1.074172,-0.0883 c -0.678612,-1.05874 2.134643,0.52328 0,0 z m -0.365677,-0.99155 c -2.17525,-1.99064 1.578626,-2.23589 0.140713,-0.92467 -0.881727,0.17971 2.123151,1.19359 -0.140713,0.92467 z m 0.549431,-2.6087 c 0.364747,-1.10569 0.716395,0.48461 0,0 z m 59.193315,-5.66775 c 0.14435,-0.26621 0.0443,0.43079 0,0 z m -0.0806,-1.0407 c 0.0765,-0.80175 0.0765,0.80175 0,0 z m -27.14559,-0.25782 c -3.22652,-0.75457 -19.536751,-2.27353 -17.001203,-4.64273 6.507565,2.11169 14.721243,5.69116 21.091153,1.93756 6.64997,-2.68201 -2.40906,2.2709 -4.08995,2.70517 z m 26.98478,-0.81617 c -1.01561,-8.33795 0.22494,-4.22647 0,0 z m -3.04496,-1.02298 c -5.88739,-9.268 3.6156,2.70769 0,0 z m -98.729318,-1.08208 c -1.193217,-1.1434 -3.640502,-4.27868 -2.519038,-4.44364 2.428942,0.83642 2.444621,1.34641 3.841148,3.20672 -0.534228,0.60544 -0.98175,0.99905 -1.32211,1.23692 z m -1.588463,-3.02167 c 0.656543,-1.50259 -1.237281,0.94485 0,0 z m 3.714834,2.43368 c -0.86684,-0.50829 1.338911,0.0222 0,0 z m 99.435947,-2.80496 c -0.9091,-3.93289 -5.27955,-16.26483 -1.51413,-5.9823 0.25974,0.4309 2.6546,9.67718 1.51413,5.9823 z m -100.79862,0.82013 c 0.06481,-0.42089 0.697177,0.38947 0,0 z m -1.559588,-1.44139 c 0.256074,-0.37002 0.384072,0.35816 0,0 z M 121.37032,169.755 c -1.34811,-3.62928 -5.07847,-19.90382 -1.50877,-8.00936 0.59197,2.64479 1.35315,5.29262 1.50877,8.00936 z m 55.3928,-3.03467 c -0.0898,-0.64137 0.78669,0.67745 0,0 z m -52.09635,-6.2626 c -1.71566,-4.16918 -5.758,-11.37468 -1.34603,-3.37836 0.26063,0.14307 2.83265,6.89746 1.34603,3.37836 z m -5.53414,-2.85078 c -3.31205,-8.07435 -13.33878,-11.72826 -21.13527,-12.5873 -4.504988,1.26213 -15.524476,-0.0151 -4.350105,-0.20549 7.859215,-0.9403 6.035867,-1.64447 12.975705,2.47602 4.99309,3.07604 8.17691,0.26361 8.69034,3.07168 1.25159,0.30987 6.31784,7.7503 0.34225,0.87335 -1.81895,-1.7118 6.51698,10.52388 3.47708,6.37174 z m -106.540676,0.9548 c -0.559639,-0.97161 1.610624,0.48573 0,0 z m -1.02404,-0.22286 c 0.09879,-0.44898 1.014804,0.37118 0,0 z m 2.179208,-0.0789 c 0.43809,-0.14299 0.04303,0.19262 0,0 z m -2.312417,-0.6977 c -0.153526,-0.70148 0.596487,0.16013 0,0 z m 2.587385,-0.0228 c 0.07333,-0.50528 1.294362,0.28624 0,0 z m -1.629949,-0.13241 c 1.926427,-0.53884 0.232741,-0.15817 0,0 z m -1.504424,-0.28518 c 0.337391,-0.38901 0.337391,0.38901 0,0 z m 118.277893,-0.0508 c 0.14435,-0.26621 0.0443,0.43079 0,0 z M 14.764936,156.79184 c 0.71087,-1.37465 0.979288,0.81379 0,0 z m -1.387865,-0.068 c 0.83508,-0.41931 -0.407419,-0.3127 0,0 z m 106.039799,-0.0477 c -1.47053,-0.44074 1.81469,0.31204 0,0 z m 9.51624,-0.68322 c -1.07964,-2.98213 -4.40206,-13.23649 -4.61499,-13.67671 0.24981,6.33477 -1.04709,-8.12542 -1.66837,-10.78771 -3.09865,-4.54957 2.70487,-6.04216 6.15685,-9.36351 0.95973,3.74803 6.66864,13.80266 4.44716,4.09719 -5.21236,-4.52902 -5.71338,-20.5552 -6.3164,-20.77567 0.34118,5.09854 -3.10497,19.71259 -1.22533,7.27086 -1.62734,4.42306 0.71582,-9.1432 1.72659,-13.473925 4.49446,-3.92006 6.22761,-19.751457 6.43278,-18.432723 -3.11249,5.272612 3.59916,7.42331 4.07945,1.350682 0.92955,0.974172 2.9267,-9.28306 3.25244,-11.960333 1.22717,4.472054 9.08698,15.389737 8.39021,15.854735 -1.59544,1.996155 1.96305,15.607334 4.02289,18.382724 -1.31577,-0.38666 -2.96339,9.72493 -5.87609,4.9662 9.6302,2.00006 -2.42838,-17.717274 -0.54244,-8.96244 0.62585,-8.945813 -3.20346,20.1901 -4.61779,5.80496 -0.46442,-4.2948 -4.84136,4.95766 -2.40857,8.03208 1.17633,5.44857 -2.02272,0.0278 -1.80866,-2.22302 -1.11369,-3.28164 -0.31504,-20.157715 -0.86501,-8.36686 -0.33989,5.31423 2.95509,20.1862 0.11838,6.51592 -0.96581,-11.233536 -0.37985,8.36089 2.1974,11.84313 2.94534,6.57379 -0.41921,6.24815 -2.01939,-0.11788 -4.41348,-10.22713 5.85658,13.83395 0.0561,1.60418 -0.19189,-5.31038 -5.97608,-8.36344 -1.97475,-1.07489 0.4638,4.70381 10.23738,11.73246 8.74239,13.77223 -3.54253,-3.37938 2.22895,2.73988 -2.1673,-1.26655 -3.72884,-4.42771 -6.01391,-5.83049 -0.63953,-0.29753 4.42798,4.04277 -1.07306,-0.15564 2.83628,5.52872 3.57953,2.69084 9.1785,9.29259 2.33594,3.03555 -3.40984,-2.76314 6.13364,15.17975 3.63227,11.92387 -3.82714,-9.7993 -9.50341,-18.23204 -14.81595,-27.20182 -3.28374,-4.62874 -7.9588,-19.11878 -7.88429,-18.18666 -0.10159,9.37333 8.06877,14.22915 6.52282,22.05953 -4.27693,0.21492 -5.23751,-14.90081 -10.30092,-5.17352 -3.50512,6.35712 2.35625,15.94218 3.03382,23.09238 0.24295,0.12315 2.64227,8.88516 1.76205,6.20681 z m -4.70244,-15.06725 c -0.19245,0.0434 0.14324,0.43805 0,0 z m 18.32564,-3.683 c -3.31322,-6.56853 -4.33601,-4.26867 -0.25566,0.51516 l 0.69973,0.76656 z m 0.78814,-1.53112 c -0.33774,-0.40536 -0.47227,-0.27592 0,0 z m -1.79831,-2.39129 c -0.81325,-0.87335 -0.92062,-0.74991 0,0 z m -0.89916,-1.00552 c -0.33772,-0.40534 -0.4723,-0.27594 0,0 z m -0.59944,-0.69935 c -0.33775,-0.40536 -0.47227,-0.2759 0,0 z m -2.39775,-2.01577 c -2.41677,-2.961 -6.63954,-12.73569 -2.68012,-3.70745 0.86255,1.0578 1.4405,3.18763 2.68012,3.70745 z m 3.24696,-2.14257 c -0.12094,-0.36524 -0.2464,0.35586 0,0 z m -9.10207,-8.56698 c -1.47024,-4.3334 -2.99315,-8.60596 -3.84253,-13.14301 0.10983,4.5225 2.03024,9.03619 3.84253,13.14301 z m 4.62457,-0.74305 c -0.19245,0.0434 0.14323,0.43805 0,0 z m -1.68497,-0.73057 c 2.48522,-1.65967 -1.99684,-0.26053 -4e-5,0 z m 5.11345,-1.04901 c -0.25524,-0.35839 -0.25524,0.35839 0,0 z m -4.86177,-0.14986 c -1.5729,-1.8306 -1.81192,0.0938 0,0 z m -0.33336,-0.94911 c -0.63855,-0.23499 0.0729,0.33026 0,0 z m -0.99907,-0.54949 c -0.23719,-0.52421 -0.0866,0.52772 0,0 z m 1.09897,-0.18912 c -0.49913,-0.86715 -0.71742,0.6649 0,0 z m -1.35441,-1.3844 c -0.55348,-0.8559 -0.0616,0.82962 0,0 z m 1.25298,-0.85804 c -1.15637,0.70822 0.054,0.41505 0,0 z m -1.59698,-0.26001 c -0.23332,-0.34324 -0.28756,0.19055 0,0 z m -5.32877,-7.57381 c -0.17488,0.0999 0.16218,0.55017 0,0 z m 0.0337,-0.73466 c 1.56713,-5.032687 0.14538,-7.71674 -0.29283,-0.5891 -1.16259,0.37046 0.63988,1.64538 0.29283,0.5891 z m 10.45643,-4.360565 c -0.17489,0.09985 0.16218,0.550166 0,0 z m 0.10198,-1.991883 c -0.19246,0.04331 0.14326,0.437986 0,0 z m 1.3739,-2.668587 c -0.50279,0.187127 -0.25776,4.125178 0,0 z m -7.53796,-1.424466 c -0.88914,-0.155228 -0.0444,0.599251 0,0 z m -0.56301,-0.137436 c -0.2728,-0.511392 0.0245,0.636579 0,0 z m 6.52726,-0.664924 c -0.19246,0.04331 0.14326,0.437986 0,0 z m -0.24825,-0.538971 c 0.25393,-1.780619 -1.04977,2.035896 0,0 z m 0.46142,-0.299224 c -0.13096,-1.126016 -0.3835,1.489566 0,0 z m 0.45486,-0.866458 c 0.28858,-1.23094 -0.52291,0.874203 0,0 z m 0.13221,-0.947209 c -0.16576,0.127923 0.14779,0.658573 0,0 z M 139.2822,87.8422 c -0.0508,-1.362271 -0.34049,2.503026 0,0 z M 16.010665,156.32501 c 0.200561,-0.47595 0.286526,0.3236 0,0 z m 103.578425,-0.0126 c -0.017,-0.95216 1.09349,0.44095 0,0 z m -107.856008,-0.0691 c -0.230197,-0.90546 1.263536,0.41488 0,0 z m 0.600799,-0.27967 c -0.144854,-0.97412 1.132205,0.54568 0,0 z m 4.329276,-0.28896 c 0.115568,-0.35153 0.266765,0.32748 0,0 z m -3.188926,-0.0965 c -1.493754,-1.31164 1.668692,0.32936 0,0 z m 2.489582,0.0597 c -0.66844,-0.51513 0.991047,0.15927 0,0 z M 120.14864,155.4981 c -0.0208,-0.60317 0.24591,0.41293 0,0 z M 14.193205,155.4185 c -0.217197,-1.67012 1.06329,0.59785 0,0 z M 12.6336,155.16434 c 0.358068,-0.84425 0.887767,-0.0534 0,0 z m 4.529089,-0.2284 c -0.02863,-1.56313 0.937318,0.0505 0,0 z M 16.024741,154.751 c -3.813943,-2.35767 2.254012,0.25451 0,0 z m 103.654969,-2.15402 c -1.07543,-4.0974 -1.24127,-19.33658 -0.48717,-6.49547 -0.21824,0.97923 1.52577,11.7844 0.48717,6.49547 z m -103.715897,0.99938 c 0.350624,-1.11853 1.007013,0.50785 0,0 z m -1.132272,-0.0305 c -0.307694,-0.45247 0.439534,0.0855 0,0 z m 2.955516,-0.15818 c 0.8037,-0.42976 0.134098,0.43797 0,0 z m 0.621766,-0.27911 c -0.260647,-0.49257 1.009123,-0.0189 0,0 z m -2.610347,-0.24971 c -0.235987,-0.66754 0.811507,0.48164 0,0 z m 107.814464,-0.0334 c -5.35841,-5.02401 3.52387,0.72207 0,0 z M 17.718644,152.34424 c 0.533289,-0.61875 0.352909,0.42143 0,0 z m -1.155393,-0.11037 c 0.38407,-0.35816 0.256074,0.37002 0,0 z m 2.264545,-0.0666 c -0.133973,-0.91424 0.66997,0.33475 0,0 z m 0.599438,-0.39962 c -0.269259,-0.95392 1.38514,0.19213 0,0 z m -1.122525,-0.64391 c 0.537292,-0.86935 1.322497,0.62039 0,0 z m -1.13248,-0.0828 c -0.23838,-0.34181 0.633305,-0.0736 0,0 z m 0.550804,-0.48786 c -0.105497,-0.45381 0.376306,0.12697 0,0 z m 3.517086,-0.48544 c 0.43809,-0.14299 0.04303,0.19262 0,0 z m -1.979396,-1.03073 c 0.255266,-0.35839 0.255266,0.35839 0,0 z m 1.873245,-0.008 c -0.461289,-0.86382 0.636623,0.43976 0,0 z m 0.788277,-0.26106 c -0.04818,-0.83578 1.100302,0.10409 0,0 z m 139.292705,-3.90204 c -0.30266,-0.46469 0.55124,0.60554 0,0 z m -42.89401,-6.34898 c -1.83226,-4.10985 -8.74259,-20.6866 -2.95004,-7.81275 0.51573,1.35101 5.31601,13.17682 2.95004,7.81275 z m 40.41635,-1.43222 c -0.81615,-1.19882 0.96966,0.91994 0,0 z m 1.25557,-0.55919 c -0.72421,-2.52859 1.76138,1.57936 0,0 z m -15.00096,0.12146 c -1.46588,-0.89968 0.21219,-0.0548 0,0 z m 14.67059,-0.0439 c 0.0937,-0.3346 0.2111,0.26989 0,0 z m -40.45942,-4.84522 c -2.26758,-4.11155 -1.26735,-3.22409 1.08493,-0.61782 1.75314,-2.84072 0.50466,1.97971 -1.08493,0.61782 z m -37.201137,-0.0939 c 0.688301,-0.68839 0.322426,0.33021 0,0 z m -23.137256,-0.66008 c -1.013789,-1.34623 1.242992,0.24018 0,0 z m -0.877871,0.07 c 0.249611,-0.64869 0.787841,0.2092 0,0 z m 2.035722,-0.11258 c 0.152827,-1.19005 0.834938,0.96507 0,0 z m 22.179218,-0.007 c 0.256073,-0.37002 0.384065,0.35816 0,0 z m -24.821165,-0.0909 c -0.806322,-1.58842 0.95559,-0.1228 0,0 z m 28.280423,-0.0887 c 0.221483,-0.91802 0.636938,0.34933 0,0 z m -31.849876,-0.41897 c 0.201284,-2.0619 0.458902,-1.04818 1.465817,-2.99806 2.816035,-2.48468 3.952504,-2.82345 6.107923,-5.11251 1.800101,-1.46284 4.736019,-3.77927 6.182743,-4.82345 1.349021,-0.33333 1.900615,-2.36851 3.735107,-2.05783 -0.356542,-1.46133 3.151531,-0.95285 3.505965,-0.38291 0.648632,0.74741 0.178513,1.82968 1.523026,2.00257 -1.026395,1.99327 -3.111828,3.07553 -5.219558,4.47375 -2.24416,1.90937 -0.820381,0.4039 -3.200065,1.75815 -2.591941,2.55541 -1.722888,1.42194 -4.192997,3.05395 -0.347336,0.77053 -3.792571,0.78871 -5.883163,2.76933 -1.167781,0.12077 -3.617343,1.90967 -4.024798,1.31701 z m 8.009715,-4.84042 c -0.233355,-0.34325 -0.287578,0.19055 0,0 z m -1.049017,-1.25473 c -0.358488,-0.38034 -0.12407,0.39385 0,0 z m 5.087055,-0.0606 c 0.605159,-0.55888 -1.056288,0.003 0,0 z m 1.382895,-1.22763 c -0.151916,-0.35822 -0.86262,0.44796 0,0 z m -5.620745,-0.21032 c -0.255266,-0.35839 -0.255266,0.35839 0,0 z m 3.29691,-0.59944 c -0.120834,-0.36525 -0.246398,0.35587 0,0 z m 0.699345,-0.64266 c -0.91818,-0.72468 -0.518833,0.59782 0,0 z m 5.095226,-0.19586 c -0.740188,-0.35985 -0.179838,0.23161 0,0 z m -1.149478,-0.66069 c -0.593311,-0.58095 0.09529,0.72181 0,0 z m 2.048635,-0.0993 c -0.255266,-0.35839 -0.255266,0.35839 0,0 z m -7.093353,-0.0393 c -0.04552,-0.26839 -0.590769,0.0896 0,0 z m 1.09897,-0.2438 c -0.465741,-0.4576 -0.532433,0.35409 0,0 z m 2.997192,-0.51619 c -0.546054,-0.36573 -0.371698,0.37514 0,0 z m 3.827987,-0.11981 c 4.603697,-1.50965 -2.151411,-0.0828 0,0 z m -1.82986,-0.32387 c -0.233154,-0.34317 -0.287755,0.19051 0,0 z m 1.298783,-0.15575 c -0.255266,-0.35839 -0.255266,0.35839 0,0 z m -3.996255,-0.19982 c -0.255266,-0.35839 -0.255266,0.35839 0,0 z m 6.593821,-0.19667 c -0.400431,-0.17747 -0.390033,0.32586 0,0 z m -8.071425,-0.12202 c -0.946867,-0.58804 -0.09177,0.46944 0,0 z m 9.619974,-1.37972 c -0.256074,-0.37002 -0.38407,0.35816 0,0 z m -0.549485,-0.99906 c -0.255266,-0.35839 -0.255266,0.35839 0,0 z m -3.699324,-1.05238 c -0.887746,-0.28256 0.510616,0.66919 0,0 z m 12.898115,15.45116 c -0.526349,-0.9702 2.233975,-0.23213 0,0 z m 1.790911,-0.10627 c 0.779842,-0.20029 0.479775,0.31446 0,0 z m -25.824793,-0.20734 c 0.308681,-0.29433 0.07815,0.35661 0,0 z m 58.494183,-0.1066 c 0.36454,-0.61266 0.33763,0.70383 0,0 z m 0.96784,0.14361 c -0.18106,-0.8271 0.81797,0.10443 0,0 z m -61.859776,-0.23356 c 0.09653,-0.92183 0.392057,0.33549 0,0 z m 1.813959,0.0317 c 0.125048,-0.98023 0.454999,0.26131 0,0 z m -0.395272,-0.23312 c -1.742638,-0.60841 1.054647,-0.0851 0,0 z m -1.969179,-0.34967 c 0.651965,-0.54941 0.651965,0.54941 0,0 z m 62.279638,0.005 c -0.0733,-0.78839 0.72418,0.53219 0,0 z m -59.806955,-0.0627 c -0.760368,-1.00725 1.5172,0.3157 0,0 z m 25.723816,-0.0107 c 0.590603,-0.38569 0.08427,0.40968 0,0 z m 33.005929,0.0451 c -0.35133,-0.77024 0.86747,-0.1899 0,0 z m -65.698216,-0.28451 c 0.19509,-0.47983 0.25838,0.59582 0,0 z m 8.545211,0.0781 c 0.398436,-0.81381 0.755194,0.21936 0,0 z m 22.625581,-0.0698 c 0.517749,-0.54496 0.517749,0.54496 0,0 z m -23.609406,-0.1655 c 0.44316,-0.75968 0.152923,-0.30893 0,0 z m -2.166441,-0.0843 c 0.490685,-0.37758 0.699513,0.36997 0,0 z m 0.47442,-0.32097 c 1.595503,-2.14294 1.884397,0.44936 0,0 z m 3.64982,-0.17049 c 0.713019,-0.87393 0.0025,0.66527 0,0 z m -1.466356,-0.067 c -0.01783,-0.9212 1.05333,0.25999 0,0 z m 24.31684,0.059 c 0.246394,-0.35587 0.120834,0.36525 0,0 z m 12.653648,-0.18271 c 2.954049,-3.17402 12.246169,-8.2497 14.110439,-8.20396 11.47911,6.08721 -2.63078,-3.11622 -4.0973,-4.18031 4.0141,6.24338 -6.11874,-10.35409 -4.9925,0.43401 0.0237,-9.6477 -2.02212,-5.47913 -3.877279,-0.27005 -1.185403,0.56481 -1.406365,-13.29662 0.230594,-15.15113 1.396335,1.14635 -9.287093,-20.724567 -3.727348,-10.562173 1.75148,4.128611 1.714525,4.533157 -0.157118,0.201846 1.344991,5.275987 5.779611,9.293784 8.750931,13.098417 -5.325152,-5.532668 -4.23803,-3.19778 -1.30442,2.05382 1.62873,9.06994 12.42586,11.99101 17.76051,18.59759 2.66153,-2.35405 0.53087,4.77848 -2.8069,-0.53712 -8.52131,-8.7741 -10.76815,6.33341 -19.889609,4.51906 z m 4.423319,-19.77359 c -0.11625,-1.22328 -0.29522,0.72554 0,0 z m -2.27692,-4.82829 c -2.758032,-6.642653 0.92966,3.18749 0,0 z m -2.818589,-8.100299 c -0.932975,-1.019638 1.060828,1.487949 0,0 z M 62.320375,128.15643 c 0.255266,-0.35839 0.255266,0.35839 0,0 z m 0.962176,-0.35165 c 0.379798,-0.47731 0.493816,0.46795 0,0 z m -0.823587,-0.19118 c 0.380992,-1.36078 0.980779,0.56512 0,0 z m -0.638121,-0.10656 c 0.27083,-0.46405 0.27083,0.46405 0,0 z m 36.851798,-0.77479 c -5.17211,-7.55868 -6.747336,-4.44722 -2.477754,-11.76094 1.246586,-4.21832 4.484003,-7.66047 1.159306,-0.83031 -6.98488,6.38942 2.190949,8.73412 1.318448,12.59125 z m -33.954512,0.0255 c 0.2419,-0.38397 0.715217,0.0178 0,0 z m 0.09991,-0.65253 c -1.543991,-1.06353 0.85355,0.0528 0,0 z m 20.79968,0.0456 c 0.337383,-0.38901 0.337383,0.38901 0,0 z m -19.400991,-0.99157 c 0.255266,-0.35839 0.255266,0.35839 0,0 z m 0.557489,-0.18686 c -0.15056,-0.42945 0.701556,-0.10027 0,0 z m 19.473742,-0.41258 c 0.246393,-0.35587 0.120832,0.36525 0,0 z m -18.632541,-0.49953 c 0.192956,-0.46584 0.192956,0.46584 0,0 z m 55.546922,-0.95035 c 3.77747,-2.35181 8.11567,-1.67255 0,0 z m 1.64652,-2.04684 c 0.86629,-5.49773 4.07374,-8.60492 1.1711,-1.35576 l -0.9214,1.25585 -0.24731,0.25821 -0.002,-0.15831 z m -3.84222,-1.41666 c 0.74228,-4.323 5.08365,-17.6556 2.31451,-6.51755 -0.59212,2.22999 -1.24582,4.46125 -2.31451,6.51755 z M 93.883949,117.0918 c 2.238769,-4.93301 4.011966,-17.758254 2.115753,-5.67015 0.681713,0.97589 -4.218487,10.55359 -2.115753,5.67015 z m 40.868551,1.37371 c 0.54606,-0.36573 0.37171,0.37514 0,0 z m 5.55573,-1.13754 c 0.98753,-0.51963 -0.11529,-0.13291 0,0 z M 68.264805,116.6672 c 0.246398,-0.35587 0.120834,0.36525 0,0 z m 8.242277,-0.0999 c 0.817647,-0.2919 0.05463,0.3486 0,0 z m 45.560368,-2.14799 c 0.0814,-0.55794 0.35007,-0.13606 0,0 z m -9.78145,-6.04734 c -1.19605,-1.02963 15.60261,-3.24409 3.83341,0.12839 l -1.548,0.0554 -2.28541,-0.18371 z m 8.5115,-1.72479 c 2.0109,-4.90994 10.92779,-10.77986 2.60329,-3.5027 -1.00265,0.84915 -1.80041,3.00096 -2.60329,3.5027 z m -9.22328,-5.60141 c 2.1354,-1.537538 4.70651,0.66437 0,0 z m 0.79925,-0.75258 c 0.24234,-1.055014 1.03589,0.40743 0,0 z m -0.26175,-0.755144 c 1.74017,-2.649424 5.54829,0.405407 0,0 z m -6.38202,-2.069633 c 0.50868,-1.081752 19.23063,-1.809457 12.01031,-0.697768 -4.11612,0.05857 -7.84515,0.538529 -12.01031,0.697768 z M 81.210565,96.427828 c 0.144214,-0.266079 0.04451,0.430758 0,0 z M 98.083611,95.83146 c -0.680958,-1.372582 0.86968,1.250181 0,0 z m -16.749572,0.05521 c 0.639532,-3.815247 0.224346,1.2142 0,0 z m 28.891451,-5.235391 c -1.68975,-0.857079 13.8218,-3.585608 2.94297,-0.554989 l -1.47665,0.583996 -1.46632,-0.02901 z m -3.44677,-0.07372 c -2.43659,-1.589457 1.51517,0.378701 0,0 z m 0.97408,-0.05209 c 0.55018,-0.162154 0.0999,0.174856 0,0 z m 0.52451,-0.130698 c 0.95182,-0.311608 0.77216,0.155878 0,0 z M 84.337055,86.278985 c 3.630313,-8.433971 6.087374,-17.19997 2.712965,-26.243865 1.607472,-6.3905 2.660072,-16.294272 5.818702,-17.155142 -1.115007,3.45468 -5.264818,14.784634 -3.944246,18.433815 0.338444,-8.271725 -2.10399,-4.932306 -0.866253,1.254095 2.645187,8.287948 0.672819,16.463353 -3.721168,23.711097 z m 5.342464,-34.051406 c -0.491193,0.618707 -0.07447,0.964775 0,0 z m 0.271226,-1.923198 c 2.212204,-4.349891 -0.701752,-1.76429 -0.518984,0.849204 z m 1.80342,-3.843365 c -1.242405,2.062692 -0.482898,1.897951 0,0 z m -0.06666,-1.216897 c -0.02782,-0.810873 -0.432596,0.652446 0,0 z m 42.565465,39.7434 c 0.52718,-0.307709 0.52829,0.17146 0,0 z M 92.617056,81.804087 C 91.333893,77.539702 92.189157,68.017429 91.648344,73.183635 87.76903,68.304605 91.79347,56.94025 91.635079,67.625624 92.722144,72.10225 92.290921,77.96078 92.617056,81.804087 Z M 91.030813,68.28753 c -0.762473,-2.705301 0.113801,2.563167 0,0 z m 0.06107,-2.053977 c -0.178609,-1.085686 -0.254197,0.867451 0,0 z m 45.817237,15.15869 c -3.57943,-3.093839 -4.07076,-12.446905 -3.45639,-12.914122 -3.33607,2.924886 3.01925,10.398049 -1.49571,4.981347 -0.018,-6.660222 -4.38064,-10.621441 -5.43526,-16.086708 -3.94114,-0.683629 -4.31534,-6.696513 -6.91794,-6.108675 -3.23366,0.995921 3.07074,-6.892543 -2.35275,-0.726092 -2.76517,-1.589381 5.88383,-4.189295 2.44376,-0.693996 0.83511,-1.826656 4.10755,4.73967 3.04255,1.70497 0.39872,-4.709645 5.94511,-8.388109 4.87591,-6.598886 5.49584,-4.172721 -3.80607,5.779734 2.91025,1.012103 9.25417,-2.466012 -7.72154,6.607364 -3.6638,8.147328 1.27839,-3.551845 11.87626,-11.436293 3.70294,-2.510868 -4.95394,9.748863 0.76613,-1.751775 4.11851,-3.841831 -2.42351,3.051721 -9.02788,15.005972 -2.56846,5.920307 3.27448,-6.26917 6.85511,-4.727355 5.70323,1.035494 -0.77684,5.59509 1.64254,4.422364 0.98265,7.978058 -2.79536,3.974596 5.11501,5.171867 -1.38695,4.13701 -6.24663,3.338374 -0.59951,12.5687 -0.50261,14.564599 z m 0.98226,-15.138506 c 0.58616,-0.833716 -0.65819,0.170195 0,0 z m -1.0314,-0.500223 c 3.21954,-1.788426 -0.37285,-2.063216 0,0 z m -2.44063,-2.205047 c 8.45291,-5.530389 -3.38999,0.706875 -1.15172,1.459847 l 1.15168,-1.459847 z m 2.50688,0.09034 c 3.05051,-4.333483 -1.8932,1.152925 0,0 z m -3.36076,-2.692726 c 4.7594,-2.246087 4.8778,-8.770597 1.03114,-1.996427 -0.0445,0.314876 -2.97548,3.655846 -1.03114,1.996427 z m 3.777,-1.467148 c -0.3231,-2.721624 -1.55796,1.814719 0,0 z m -1.96973,-4.687551 c 6.4543,-5.681024 -3.02963,0.623797 -1.71681,1.574376 0.55957,-0.53841 1.10492,-1.092054 1.71681,-1.574376 z m 0.17901,-2.411942 c 4.40927,-1.530817 0.45261,-3.411293 0,0 z m -11.6995,-0.493241 c 0.84774,-3.010419 -1.47735,-0.01146 0,0 z m -3.88011,27.373021 c 3.07161,-2.031051 5.08968,-0.596409 0,0 z m -4.80351,-0.756265 c -3.73787,-4.465181 1.26428,-0.461624 0,0 z m -13.78486,-0.842569 c -1.743062,-2.53918 -3.794093,-0.584078 -3.764539,-2.737948 3.452939,-1.309319 6.378419,0.492697 3.764539,2.737948 z m 6.89658,-0.413765 c -1.87411,-6.178224 0.67579,-3.388091 0,0 z m 10.36162,-0.584733 c -7.60913,-3.590394 12.01548,-2.959144 2.93689,-2.216026 -1.85658,-0.657127 -0.0346,3.448782 -2.93689,2.216026 z m -0.39377,-1.538626 c -0.86125,-2.733513 -0.96648,2.281689 0,0 z m -2.77763,0.887117 c 1.37643,-1.678713 0.59379,0.127537 0,0 z m -9.87872,-1.403773 c -0.90073,-1.315976 1.07248,1.08058 0,0 z m -2.66408,-0.661538 c -7.038791,-0.04317 -2.92152,-1.836065 0.7795,0.282396 l -0.7795,-0.282384 z m 13.84158,-0.901737 c 3.88115,-2.395492 7.59095,0.422646 0,-2e-6 z m -21.679683,-1.48387 c 0.97174,-0.934581 1.036339,0.196732 0,0 z m 8.146213,-0.103753 c -2.86698,-0.423366 -4.977308,-0.934516 -7.123312,-0.754558 1.808122,-1.911044 6.429832,-1.053678 8.447032,-0.218253 0.54801,0.629588 -0.88503,1.616974 -1.32372,0.972811 z m 11.87042,-0.292345 c -4.29613,-1.772267 3.80997,-2.688776 3.80506,-2.508821 2.92766,-1.524149 2.65991,0.335425 5.63877,0.447008 1.21478,0.122292 1.74007,1.033731 -1.66313,0.132776 -2.80288,-0.656588 -5.18926,2.079403 -7.7807,1.929037 z m 8.80636,-2.251421 c -0.2497,-0.472302 -0.409,0.336102 0,0 z m -0.67437,-0.268681 c -0.77381,-0.155476 -0.14857,0.160697 0,0 z m 65.16394,1.867183 c 0.19055,-0.449866 0.70703,0.384329 0,0 z M 137.76547,58.221962 c 0.0874,-0.450321 0.0874,0.450321 0,0 z M 99.956701,53.558754 c -2.884538,-7.301659 -1.396488,-7.789636 -0.185708,-7.501099 2.043977,5.050298 2.825727,9.778719 0.187218,1.878011 0.190549,1.564365 3.310579,6.181788 -0.0015,5.623088 z m -0.0715,-5.882812 c -0.115514,-0.351522 -0.266898,0.327443 0,0 z m 4.897379,4.573323 c -2.92098,-3.417895 -0.91405,-16.363378 1.95875,-15.030126 -4.01544,4.055538 0.73041,12.704707 -1.95875,15.030126 z m 2.85854,-1.148351 c -1.0979,-2.266087 -0.58753,-6.63791 -1.35442,-2.891923 -4.13563,-5.794534 6.85349,-18.853929 2.53429,-7.392314 0.5459,3.580179 2.8432,15.8809 -0.42594,5.805638 -2.15196,-7.209833 1.12317,3.384626 -0.31318,4.694809 l -0.44078,-0.216208 z m 4.92101,-0.721567 c -5.32649,-6.202248 11.89849,-18.636331 2.67079,-8.043997 -2.82822,1.366873 -0.015,8.099544 -2.67079,8.043997 z m 1.97004,-0.607646 c -1.47862,-5.601043 12.71842,-14.505725 3.90685,-6.43389 -1.71633,1.489392 -2.02939,5.914713 -3.90685,6.43389 z m 23.27573,-0.816235 c -3.79641,-4.470802 -1.57805,-3.373481 0.20365,0.446063 l -0.2036,-0.446065 z m -1.75659,-0.324517 c -0.6308,-1.061539 0.86188,1.074549 0,0 z m -0.49954,-0.699344 c -0.63078,-1.061542 0.86189,1.074559 0,0 z M 101.9097,47.083327 c -2.316165,-3.918573 2.62509,-16.994085 0.85338,-5.417835 -0.49919,0.346716 0.0174,7.948612 -0.85338,5.417835 z m 33.2297,0.273816 c -0.30264,-0.464689 0.55123,0.605491 0,0 z m -2.67424,-2.923269 c -8.15536,-6.649113 -2.22904,-2.443722 0,0 z M 92.911201,44.285022 c 0.10889,-0.474466 0.05861,0.601779 0,0 z"
       style="fill:#2f4f4f;fill-opacity:1;stroke-width:0.09990638" />
  </g>
</svg>
