<?xml version="1.0" encoding="UTF-8" standalone="no"?>
<svg
   xmlns:dc="http://purl.org/dc/elements/1.1/"
   xmlns:cc="http://creativecommons.org/ns#"
   xmlns:rdf="http://www.w3.org/1999/02/22-rdf-syntax-ns#"
   xmlns:svg="http://www.w3.org/2000/svg"
   xmlns="http://www.w3.org/2000/svg"
   xmlns:sodipodi="http://sodipodi.sourceforge.net/DTD/sodipodi-0.dtd"
   xmlns:inkscape="http://www.inkscape.org/namespaces/inkscape"
   width="360"
   height="868.55469"
   viewBox="0 0 95.249998 229.8051"
   version="1.1"
   id="svg8"
   sodipodi:docname="heroBackgr2.svg"
   inkscape:version="0.92.4 5da689c313, 2019-01-14">
  <sodipodi:namedview
     pagecolor="#ffffff"
     bordercolor="#666666"
     borderopacity="1"
     objecttolerance="10"
     gridtolerance="10"
     guidetolerance="10"
     inkscape:pageopacity="0"
     inkscape:pageshadow="2"
     inkscape:window-width="1366"
     inkscape:window-height="718"
     id="namedview822"
     showgrid="false"
     inkscape:snap-page="true"
     inkscape:snap-smooth-nodes="true"
     inkscape:snap-bbox="true"
     inkscape:snap-bbox-edge-midpoints="true"
     inkscape:snap-global="true"
     inkscape:zoom="0.8390625"
     inkscape:cx="-0.36047145"
     inkscape:cy="712.83634"
     inkscape:window-x="0"
     inkscape:window-y="25"
     inkscape:window-maximized="1"
     inkscape:current-layer="svg8"
     fit-margin-top="0"
     fit-margin-left="0"
     fit-margin-right="0"
     fit-margin-bottom="0" />
  <defs
     id="defs2" />
  <metadata
     id="metadata5">
    <rdf:RDF>
      <cc:Work
         rdf:about="">
        <dc:format>image/svg+xml</dc:format>
        <dc:type
           rdf:resource="http://purl.org/dc/dcmitype/StillImage" />
        <dc:title></dc:title>
      </cc:Work>
    </rdf:RDF>
  </metadata>
  <path
     id="path834"
     d="M 95.250002,32.717384 A 72.110171,24.036724 0 0 1 47.625001,38.745957 72.110171,24.036724 0 0 1 0,32.729785 V 47.31701 48.758783 59.342117 80.002871 169.33334 H 95.250002 V 80.002871 59.342117 48.758783 47.376954 Z"
     style="opacity:1;fill:#232931;fill-opacity:1;stroke:none;stroke-width:2.04811931;stroke-linecap:round;stroke-linejoin:miter;stroke-miterlimit:4;stroke-dasharray:none;stroke-opacity:1"
     inkscape:connector-curvature="0" />
  <path
     style="opacity:1;fill:#dd1438;fill-opacity:1;stroke:none;stroke-width:0.38547185;stroke-linecap:round;stroke-linejoin:miter;stroke-miterlimit:4;stroke-dasharray:none;stroke-opacity:1"
     d="M 60.471763,108.86157 A 60.471948,60.471948 0 0 0 0,169.33334 60.471948,60.471948 0 0 0 60.471763,229.8051 60.471948,60.471948 0 0 0 95.250002,218.71327 V 119.90483 A 60.471948,60.471948 0 0 0 60.471763,108.86157 Z"
     id="path824"
     inkscape:connector-curvature="0" />
  <path
     id="path1835"
     d="m 25.303669,135.76347 4.430742,6.3e-4 v -12.8009 l -4.430742,6.3e-4 z m 9.264736,4.32002 c 1.076692,1.07605 2.493896,1.75205 4.073416,1.75204 l 56.607553,1e-5 6.3e-4,-24.79467 -1.605452,-0.002 -55.116595,0.002 -0.111985,0.0163 c -3.199721,0.45709 -5.906601,2.95642 -5.906607,6.11547 l -3e-6,12.64488 0.01951,0.11387 c 0.22855,1.59986 0.962836,3.076 2.039533,4.15206 z m 2.313826,-2.40441 c -0.568777,-0.56942 -1.032247,-1.3491 -1.160056,-2.1729 l -2e-6,-12.33537 c -7e-6,-1.01192 1.458387,-2.66448 3.119072,-2.92027 l 7.905255,-2e-5 6.28e-4,18.37535 h -8.105307 c -0.509212,0 -1.182711,-0.36926 -1.75959,-0.94679 z m 27.095911,0.94679 -6.3e-4,-18.37408 28.060318,0.001 0.0011,18.37283 z"
     style="color:#000000;font-style:normal;font-variant:normal;font-weight:normal;font-stretch:normal;font-size:medium;line-height:normal;font-family:sans-serif;font-variant-ligatures:normal;font-variant-position:normal;font-variant-caps:normal;font-variant-numeric:normal;font-variant-alternates:normal;font-feature-settings:normal;text-indent:0;text-align:start;text-decoration:none;text-decoration-line:none;text-decoration-style:solid;text-decoration-color:#000000;letter-spacing:normal;word-spacing:normal;text-transform:none;writing-mode:lr-tb;direction:ltr;text-orientation:mixed;dominant-baseline:auto;baseline-shift:baseline;text-anchor:start;white-space:normal;shape-padding:0;clip-rule:nonzero;display:inline;overflow:visible;visibility:visible;opacity:1;isolation:auto;mix-blend-mode:normal;color-interpolation:sRGB;color-interpolation-filters:linearRGB;solid-color:#000000;solid-opacity:1;vector-effect:none;fill:#232931;fill-opacity:1;fill-rule:nonzero;stroke:none;stroke-width:3.21090388;stroke-linecap:butt;stroke-linejoin:miter;stroke-miterlimit:10;stroke-dasharray:none;stroke-dashoffset:0;stroke-opacity:1;color-rendering:auto;image-rendering:auto;shape-rendering:auto;text-rendering:auto;enable-background:accumulate"
     inkscape:connector-curvature="0" />
  <path
     id="path1841"
     d="M 9.4113116,123.38523 C 6.5923392,123.42195 3.3941901,124.30342 0,126.65325 v 8.21552 c 1.1315101,-0.48928 2.2941528,-1.12779 3.4814412,-1.94975 6.6143188,-4.52559 11.1395488,-0.69591 11.4876708,-0.34779 1.392488,1.39249 3.481116,1.39249 4.873604,0 0.696244,-0.69624 1.044381,-1.74082 1.044381,-2.43706 0,-0.69624 -0.347797,-1.74047 -1.392163,-2.78484 -1.740611,-1.74061 -5.385334,-4.02529 -10.0836224,-3.9641 z"
     style="fill:#dd1438;fill-opacity:1;stroke-width:4.92318869"
     inkscape:connector-curvature="0" />
</svg>
