<?xml version="1.0" encoding="UTF-8" standalone="no"?>
<!-- Created with Inkscape (http://www.inkscape.org/) -->

<svg
   xmlns:dc="http://purl.org/dc/elements/1.1/"
   xmlns:cc="http://creativecommons.org/ns#"
   xmlns:rdf="http://www.w3.org/1999/02/22-rdf-syntax-ns#"
   xmlns:svg="http://www.w3.org/2000/svg"
   xmlns="http://www.w3.org/2000/svg"
   xmlns:sodipodi="http://sodipodi.sourceforge.net/DTD/sodipodi-0.dtd"
   xmlns:inkscape="http://www.inkscape.org/namespaces/inkscape"
   width="100"
   height="100"
   viewBox="0 0 26.458333 26.458331"
   version="1.1"
   id="svg2918"
   sodipodi:docname="iconGrid.svg"
   inkscape:version="0.92.4 5da689c313, 2019-01-14">
  <defs
     id="defs2912" />
  <sodipodi:namedview
     id="base"
     pagecolor="#ededed"
     bordercolor="#666666"
     borderopacity="1.0"
     inkscape:pageopacity="1"
     inkscape:pageshadow="2"
     inkscape:zoom="3.959798"
     inkscape:cx="27.819393"
     inkscape:cy="32.274945"
     inkscape:document-units="mm"
     inkscape:current-layer="layer1"
     showgrid="false"
     fit-margin-top="0"
     fit-margin-left="0"
     fit-margin-right="0"
     fit-margin-bottom="0"
     units="px"
     inkscape:snap-page="true"
     inkscape:snap-global="true"
     inkscape:window-width="1366"
     inkscape:window-height="718"
     inkscape:window-x="0"
     inkscape:window-y="25"
     inkscape:window-maximized="1" />
  <metadata
     id="metadata2915">
    <rdf:RDF>
      <cc:Work
         rdf:about="">
        <dc:format>image/svg+xml</dc:format>
        <dc:type
           rdf:resource="http://purl.org/dc/dcmitype/StillImage" />
        <dc:title></dc:title>
      </cc:Work>
    </rdf:RDF>
  </metadata>
  <g
     inkscape:label="Layer 1"
     inkscape:groupmode="layer"
     id="layer1"
     transform="translate(-97.613995,-196.57928)">
    <rect
       style="opacity:0.37900002;fill:#ff0000;fill-opacity:1;stroke:none;stroke-width:0.1581921;stroke-linecap:round;stroke-linejoin:miter;stroke-miterlimit:4;stroke-dasharray:none;stroke-opacity:1"
       id="rect3992"
       width="8.8194447"
       height="8.8194447"
       x="60.379887"
       y="221.40929" />
    <rect
       y="221.40929"
       x="69.199333"
       height="8.8194447"
       width="8.8194447"
       id="rect3994"
       style="opacity:0.37900002;fill:#808000;fill-opacity:1;stroke:none;stroke-width:0.1581921;stroke-linecap:round;stroke-linejoin:miter;stroke-miterlimit:4;stroke-dasharray:none;stroke-opacity:1" />
    <rect
       style="opacity:0.37900002;fill:#0000ff;fill-opacity:1;stroke:none;stroke-width:0.1581921;stroke-linecap:round;stroke-linejoin:miter;stroke-miterlimit:4;stroke-dasharray:none;stroke-opacity:1"
       id="rect3996"
       width="8.8194447"
       height="8.8194447"
       x="78.018761"
       y="221.40929" />
    <rect
       y="239.04817"
       x="60.379894"
       height="8.8194447"
       width="8.8194447"
       id="rect3998"
       style="opacity:0.37900002;fill:#ff0000;fill-opacity:1;stroke:none;stroke-width:0.1581921;stroke-linecap:round;stroke-linejoin:miter;stroke-miterlimit:4;stroke-dasharray:none;stroke-opacity:1" />
    <rect
       style="opacity:0.37900002;fill:#808000;fill-opacity:1;stroke:none;stroke-width:0.1581921;stroke-linecap:round;stroke-linejoin:miter;stroke-miterlimit:4;stroke-dasharray:none;stroke-opacity:1"
       id="rect4000"
       width="8.8194447"
       height="8.8194447"
       x="69.199341"
       y="239.04817" />
    <rect
       y="239.04817"
       x="78.018761"
       height="8.8194447"
       width="8.8194447"
       id="rect4002"
       style="opacity:0.37900002;fill:#0000ff;fill-opacity:1;stroke:none;stroke-width:0.1581921;stroke-linecap:round;stroke-linejoin:miter;stroke-miterlimit:4;stroke-dasharray:none;stroke-opacity:1" />
    <rect
       style="opacity:0.37900002;fill:#ff0000;fill-opacity:1;stroke:none;stroke-width:0.1581921;stroke-linecap:round;stroke-linejoin:miter;stroke-miterlimit:4;stroke-dasharray:none;stroke-opacity:1"
       id="rect4004"
       width="8.8194447"
       height="8.8194447"
       x="60.379917"
       y="230.22873" />
    <rect
       y="230.22873"
       x="69.199364"
       height="8.8194447"
       width="8.8194447"
       id="rect4006"
       style="opacity:0.37900002;fill:#808000;fill-opacity:1;stroke:none;stroke-width:0.1581921;stroke-linecap:round;stroke-linejoin:miter;stroke-miterlimit:4;stroke-dasharray:none;stroke-opacity:1" />
    <rect
       style="opacity:0.37900002;fill:#0000ff;fill-opacity:1;stroke:none;stroke-width:0.1581921;stroke-linecap:round;stroke-linejoin:miter;stroke-miterlimit:4;stroke-dasharray:none;stroke-opacity:1"
       id="rect4008"
       width="8.8194447"
       height="8.8194447"
       x="78.018784"
       y="230.22873" />
    <g
       id="g4015"
       transform="matrix(1.386565,0,0,1.386565,-39.438799,-77.695311)"
       style="fill:#e1e1e1;fill-opacity:1">
      <path
         style="fill:#e1e1e1;stroke-width:0.26458332;fill-opacity:1"
         inkscape:connector-curvature="0"
         id="path1937"
         d="m 102.27507,198.56807 v 0.97896 h -0.5027 v -0.97896 c 0,-0.13229 0.10583,-0.23813 0.23812,-0.23813 v 0 c 0.15875,0 0.26458,0.10584 0.26458,0.23813 z" />
      <polygon
         style="fill:#e1e1e1;fill-opacity:1"
         transform="matrix(0.26458333,0,0,0.26458333,60.232783,173.45911)"
         id="polygon1939"
         points="150.4,112.6 156.4,96.5 157.4,96.5 151.5,112.3 150.9,114.1 " />
      <polygon
         style="fill:#e1e1e1;fill-opacity:1"
         transform="matrix(0.26458333,0,0,0.26458333,60.232783,173.45911)"
         id="polygon1941"
         points="165.5,112.6 159.5,96.5 158.5,96.5 164.4,112.3 165,114.1 " />
      <path
         inkscape:connector-curvature="0"
         id="path1943"
         d="m 101.30859,199.83789 c 0,0.40506 0.32345,0.72852 0.72852,0.72852 0.40507,0 0.72656,-0.32346 0.72656,-0.72852 h -0.13086 c 0,0.33576 -0.25993,0.5957 -0.5957,0.5957 -0.33577,0 -0.5957,-0.25994 -0.5957,-0.5957 z"
         style="color:#000000;font-style:normal;font-variant:normal;font-weight:normal;font-stretch:normal;font-size:medium;line-height:normal;font-family:sans-serif;font-variant-ligatures:normal;font-variant-position:normal;font-variant-caps:normal;font-variant-numeric:normal;font-variant-alternates:normal;font-feature-settings:normal;text-indent:0;text-align:start;text-decoration:none;text-decoration-line:none;text-decoration-style:solid;text-decoration-color:#000000;letter-spacing:normal;word-spacing:normal;text-transform:none;writing-mode:lr-tb;direction:ltr;text-orientation:mixed;dominant-baseline:auto;baseline-shift:baseline;text-anchor:start;white-space:normal;shape-padding:0;clip-rule:nonzero;display:inline;overflow:visible;visibility:visible;opacity:1;isolation:auto;mix-blend-mode:normal;color-interpolation:sRGB;color-interpolation-filters:linearRGB;solid-color:#000000;solid-opacity:1;vector-effect:none;fill:#e1e1e1;fill-opacity:1;fill-rule:nonzero;stroke:none;stroke-width:0.13229166;stroke-linecap:butt;stroke-linejoin:miter;stroke-miterlimit:10;stroke-dasharray:none;stroke-dashoffset:0;stroke-opacity:1;color-rendering:auto;image-rendering:auto;shape-rendering:auto;text-rendering:auto;enable-background:accumulate" />
      <rect
         style="fill:#e1e1e1;stroke-width:0.26458332;fill-opacity:1"
         id="rect1945"
         height="1.42875"
         width="0.26458332"
         y="199.46765"
         x="101.90466" />
    </g>
    <g
       id="g4058"
       transform="matrix(1.386565,0,0,1.386565,-42.847559,-81.104677)"
       style="fill:#e1e1e1;fill-opacity:1">
      <path
         inkscape:connector-curvature="0"
         id="path1835"
         d="m 111.0625,209.10938 c -0.13896,-0.10426 -0.33698,-0.11225 -0.45703,0.008 l -2.15235,2.15234 0.94336,0.94141 0.0606,-0.0606 2.09375,-2.0957 0.004,-0.004 c 0.10425,-0.13896 0.11224,-0.33697 -0.008,-0.45703 l -0.48047,-0.48047 z m -0.33594,0.13085 c 0.0384,-0.0384 0.15761,-0.0452 0.23047,0.008 6.2e-4,4.5e-4 10e-4,-4.6e-4 0.002,0 l 0.4668,0.46875 c 0.0384,0.0384 0.0452,0.15565 -0.008,0.22851 -4.5e-4,6.2e-4 4.6e-4,0.001 0,0.002 l -2.02149,2.01953 -0.69921,-0.69727 z"
         style="color:#000000;font-style:normal;font-variant:normal;font-weight:normal;font-stretch:normal;font-size:medium;line-height:normal;font-family:sans-serif;font-variant-ligatures:normal;font-variant-position:normal;font-variant-caps:normal;font-variant-numeric:normal;font-variant-alternates:normal;font-feature-settings:normal;text-indent:0;text-align:start;text-decoration:none;text-decoration-line:none;text-decoration-style:solid;text-decoration-color:#000000;letter-spacing:normal;word-spacing:normal;text-transform:none;writing-mode:lr-tb;direction:ltr;text-orientation:mixed;dominant-baseline:auto;baseline-shift:baseline;text-anchor:start;white-space:normal;shape-padding:0;clip-rule:nonzero;display:inline;overflow:visible;visibility:visible;opacity:1;isolation:auto;mix-blend-mode:normal;color-interpolation:sRGB;color-interpolation-filters:linearRGB;solid-color:#000000;solid-opacity:1;vector-effect:none;fill:#e1e1e1;fill-opacity:1;fill-rule:nonzero;stroke:none;stroke-width:0.17256124;stroke-linecap:butt;stroke-linejoin:miter;stroke-miterlimit:10;stroke-dasharray:none;stroke-dashoffset:0;stroke-opacity:1;color-rendering:auto;image-rendering:auto;shape-rendering:auto;text-rendering:auto;enable-background:accumulate" />
      <rect
         style="fill:#e1e1e1;stroke-width:0.26458079;fill-opacity:1"
         id="rect1837"
         height="0.2381227"
         width="0.68791002"
         transform="rotate(45)"
         y="68.94207"
         x="226.40431" />
      <rect
         style="fill:#e1e1e1;stroke-width:0.26458079;fill-opacity:1"
         id="rect1839"
         height="0.92603278"
         width="1.1376975"
         transform="rotate(45)"
         y="70.094475"
         x="226.16531" />
      <g
         style="fill:#e1e1e1;fill-opacity:1"
         transform="matrix(0.26458333,0,0,0.26458333,100.37375,174.80921)"
         id="g1843">
        <path
           style="fill:#e1e1e1;fill-opacity:1"
           inkscape:connector-curvature="0"
           id="path1841"
           d="m 42.9,128.8 c -0.1,-0.1 -0.2,-0.3 -0.2,-0.5 0,-0.4 0.3,-0.7 0.7,-0.7 0.1,0 1.3,-0.1 1.6,-1.7 0.4,-2.2 2.1,-2.7 2.9,-2.7 0.4,0 0.7,0.3 0.7,0.7 0,0.4 -0.3,0.6 -0.6,0.7 -0.1,0 -1.3,0.1 -1.6,1.7 -0.4,2.2 -2.1,2.7 -2.9,2.7 -0.3,0 -0.5,-0.1 -0.6,-0.2 z" />
      </g>
    </g>
    <path
       d="m 113.34213,197.5752 c -0.17426,-0.004 -0.33949,0.0594 -0.46789,0.18774 l -4.40235,4.40234 0.14689,0.14689 1.76122,-1.76122 c 0.0953,-0.0953 0.22018,-0.13838 0.34896,-0.13471 l -3.10042,3.0696 v 0.91716 l 3.57476,-3.57475 c 0.0171,0.14126 -0.0205,0.29223 -0.12683,0.41988 l -1.76051,1.76122 0.14689,0.14689 4.40234,-4.40234 c 0.25681,-0.25681 0.25681,-0.69762 0,-0.95442 -0.16509,-0.14674 -0.3488,-0.21968 -0.52306,-0.22428 z m -1.14644,1.43522 c 0.10086,0 0.20177,0.037 0.27513,0.11033 0.14676,0.14676 0.14676,0.40355 0,0.5503 l -0.43994,0.43995 c -0.14674,0.14674 -0.40355,0.14674 -0.55029,0 -0.0165,-0.0165 -0.0244,-0.0383 -0.0373,-0.0573 -1.7e-4,-2.7e-4 -5.2e-4,-4.5e-4 -7.1e-4,-7.1e-4 -0.0282,-0.042 -0.0473,-0.0883 -0.0573,-0.13614 -10e-5,-4.6e-4 9e-5,-9.9e-4 0,-0.001 -0.01,-0.0482 -0.011,-0.0978 -0.002,-0.14761 0.013,-0.0764 0.041,-0.15061 0.0975,-0.20707 l 0.43994,-0.43995 c 0.0734,-0.0734 0.17426,-0.11034 0.27515,-0.11034 z"
       id="polygon1913"
       style="fill:#e1e1e1;stroke-width:0.36686197;fill-opacity:1"
       inkscape:connector-curvature="0" />
    <g
       id="g4051"
       transform="matrix(1.386565,0,0,1.386565,-46.26086,-84.502472)"
       style="fill:#e1e1e1;fill-opacity:1">
      <path
         id="rect1825"
         transform="matrix(0.26458333,0,0,0.26458333,97.613995,196.57928)"
         d="m 82.027344,83.533203 -6.292969,6.292969 0.0059,0.0078 -0.699218,2.09961 1.40039,-1.400391 6.292969,-6.292969 z"
         style="fill:#e1e1e1;fill-opacity:1;stroke-width:0.99999034"
         inkscape:connector-curvature="0" />
      <path
         inkscape:connector-curvature="0"
         id="path1829"
         d="m 120.84766,216.33594 c -0.2612,-1.4e-4 -0.52493,0.10306 -0.72852,0.30664 l -0.17578,0.17578 1.43555,1.4375 0.0703,-0.0703 0.10351,-0.10352 c 0.41066,-0.38132 0.41106,-1.0302 0.006,-1.4375 -0.19097,-0.20565 -0.44974,-0.30845 -0.71093,-0.30859 z m 0.56445,0.44336 0.002,0.002 0.002,0.002 c 0.33367,0.33367 0.33147,0.84637 0.002,1.15235 l -0.002,0.002 -0.0371,0.0371 -1.15625,-1.15625 0.0371,-0.0352 c 0.33367,-0.33366 0.84636,-0.33341 1.15234,-0.004 z"
         style="color:#000000;font-style:normal;font-variant:normal;font-weight:normal;font-stretch:normal;font-size:medium;line-height:normal;font-family:sans-serif;font-variant-ligatures:normal;font-variant-position:normal;font-variant-caps:normal;font-variant-numeric:normal;font-variant-alternates:normal;font-feature-settings:normal;text-indent:0;text-align:start;text-decoration:none;text-decoration-line:none;text-decoration-style:solid;text-decoration-color:#000000;letter-spacing:normal;word-spacing:normal;text-transform:none;writing-mode:lr-tb;direction:ltr;text-orientation:mixed;dominant-baseline:auto;baseline-shift:baseline;text-anchor:start;white-space:normal;shape-padding:0;clip-rule:nonzero;display:inline;overflow:visible;visibility:visible;opacity:1;isolation:auto;mix-blend-mode:normal;color-interpolation:sRGB;color-interpolation-filters:linearRGB;solid-color:#000000;solid-opacity:1;vector-effect:none;fill:#e1e1e1;fill-opacity:1;fill-rule:nonzero;stroke:none;stroke-width:0.1984375;stroke-linecap:butt;stroke-linejoin:miter;stroke-miterlimit:10;stroke-dasharray:none;stroke-dashoffset:0;stroke-opacity:1;color-rendering:auto;image-rendering:auto;shape-rendering:auto;text-rendering:auto;enable-background:accumulate" />
      <path
         inkscape:connector-curvature="0"
         id="path1831"
         d="m 120.12695,216.74805 -0.14062,0.14062 c 0.0751,0.0751 0.0977,0.14834 0.0977,0.23047 0,0.0821 -0.0284,0.17213 -0.0703,0.25586 -0.0837,0.16746 -0.21289,0.29883 -0.21289,0.29883 l -0.81055,0.81055 0.69532,0.69726 0.8125,-0.8125 c 0,0 0.12941,-0.12916 0.29687,-0.21289 0.0837,-0.0419 0.17568,-0.0703 0.25781,-0.0703 0.0821,0 0.15541,0.0245 0.23047,0.0996 l 0.14063,-0.14063 c -0.11015,-0.11014 -0.24487,-0.15625 -0.3711,-0.15625 -0.12622,0 -0.24422,0.0411 -0.3457,0.0918 -0.20295,0.10148 -0.34961,0.25 -0.34961,0.25 l -0.66992,0.66992 -0.41602,-0.41601 0.66993,-0.66993 c 0,0 0.14852,-0.14665 0.25,-0.34961 0.0507,-0.10147 0.0918,-0.21947 0.0918,-0.3457 0,-0.12623 -0.0461,-0.26095 -0.15625,-0.37109 z"
         style="color:#000000;font-style:normal;font-variant:normal;font-weight:normal;font-stretch:normal;font-size:medium;line-height:normal;font-family:sans-serif;font-variant-ligatures:normal;font-variant-position:normal;font-variant-caps:normal;font-variant-numeric:normal;font-variant-alternates:normal;font-feature-settings:normal;text-indent:0;text-align:start;text-decoration:none;text-decoration-line:none;text-decoration-style:solid;text-decoration-color:#000000;letter-spacing:normal;word-spacing:normal;text-transform:none;writing-mode:lr-tb;direction:ltr;text-orientation:mixed;dominant-baseline:auto;baseline-shift:baseline;text-anchor:start;white-space:normal;shape-padding:0;clip-rule:nonzero;display:inline;overflow:visible;visibility:visible;opacity:1;isolation:auto;mix-blend-mode:normal;color-interpolation:sRGB;color-interpolation-filters:linearRGB;solid-color:#000000;solid-opacity:1;vector-effect:none;fill:#e1e1e1;fill-opacity:1;fill-rule:nonzero;stroke:none;stroke-width:0.1984375;stroke-linecap:butt;stroke-linejoin:miter;stroke-miterlimit:10;stroke-dasharray:none;stroke-dashoffset:0;stroke-opacity:1;color-rendering:auto;image-rendering:auto;shape-rendering:auto;text-rendering:auto;enable-background:accumulate" />
    </g>
    <g
       id="g4035"
       transform="matrix(1.386565,0,0,1.386565,-39.438766,-81.104597)"
       style="fill:#e1e1e1;fill-opacity:1">
      <path
         style="fill:#e1e1e1;stroke-width:0.26458332;fill-opacity:1"
         d="m 102.76455,208.00928 c 0.10584,0 0.21167,0.0529 0.29104,0.10583 l 0.66146,0.66146 c 0.15875,0.15875 0.15875,0.39688 0,0.55563 l -2.14312,2.14312 c -0.0794,0.0794 -0.18521,0.10583 -0.29104,0.10583 -0.10584,0 -0.21167,-0.0529 -0.29105,-0.10583 l -0.66145,-0.66146 c -0.15875,-0.15875 -0.15875,-0.39687 0,-0.55562 l 2.14312,-2.14313 c 0.10583,-0.0529 0.18521,-0.10583 0.29104,-0.10583 m 0,-0.21167 c -0.15875,0 -0.3175,0.0529 -0.42333,0.18521 l -2.14313,2.14313 c -0.238121,0.23812 -0.238121,0.60854 0,0.84666 l 0.66146,0.66146 c 0.10584,0.10583 0.26459,0.18521 0.42334,0.18521 0.15875,0 0.3175,-0.0529 0.42333,-0.18521 l 2.14312,-2.14312 c 0.23813,-0.23813 0.23813,-0.60855 0,-0.84667 l -0.66145,-0.66146 c -0.10584,-0.10583 -0.26459,-0.18521 -0.42334,-0.18521 z"
         id="path1903"
         inkscape:connector-curvature="0" />
      <rect
         style="fill:#e1e1e1;stroke-width:0.26458079;fill-opacity:1"
         x="-77.27375"
         y="219.44005"
         transform="rotate(-45)"
         width="2.1166463"
         height="2.1166463"
         id="rect1907" />
    </g>
    <g
       id="g4046"
       transform="matrix(1.386565,0,0,1.386565,-42.847492,-84.51377)"
       style="fill:#e1e1e1;fill-opacity:1">
      <path
         style="fill:#e1e1e1;stroke-width:0.26458332;fill-opacity:1"
         inkscape:connector-curvature="0"
         id="path1895"
         d="m 112.65555,217.10985 h -3.54541 c -0.0529,0 -0.0794,-0.0529 -0.0794,-0.0794 v -0.87312 c 0,-0.0529 0.0529,-0.0794 0.0794,-0.0794 h 3.51895 c 0.0529,0 0.0794,0.0529 0.0794,0.0794 v 0.87312 c 0.0265,0.0529 -0.0265,0.0794 -0.0529,0.0794 z" />
      <path
         inkscape:connector-curvature="0"
         id="path1897"
         d="m 110.52539,217.32812 -0.006,0.0918 -0.21289,3.12305 0.002,-0.002 c -0.0317,0.34933 0.25641,0.63671 0.60157,0.63671 0.34516,0 0.60156,-0.28975 0.60156,-0.6289 v -0.004 l -0.27344,-3.2168 z m 0.18555,0.19922 h 0.3457 l 0.25586,3.02149 c 0,0.24293 -0.16542,0.42969 -0.40234,0.42969 -0.23692,0 -0.42541,-0.18718 -0.4043,-0.41993 v -0.002 z"
         style="color:#000000;font-style:normal;font-variant:normal;font-weight:normal;font-stretch:normal;font-size:medium;line-height:normal;font-family:sans-serif;font-variant-ligatures:normal;font-variant-position:normal;font-variant-caps:normal;font-variant-numeric:normal;font-variant-alternates:normal;font-feature-settings:normal;text-indent:0;text-align:start;text-decoration:none;text-decoration-line:none;text-decoration-style:solid;text-decoration-color:#000000;letter-spacing:normal;word-spacing:normal;text-transform:none;writing-mode:lr-tb;direction:ltr;text-orientation:mixed;dominant-baseline:auto;baseline-shift:baseline;text-anchor:start;white-space:normal;shape-padding:0;clip-rule:nonzero;display:inline;overflow:visible;visibility:visible;opacity:1;isolation:auto;mix-blend-mode:normal;color-interpolation:sRGB;color-interpolation-filters:linearRGB;solid-color:#000000;solid-opacity:1;vector-effect:none;fill:#e1e1e1;fill-opacity:1;fill-rule:nonzero;stroke:none;stroke-width:0.1984375;stroke-linecap:butt;stroke-linejoin:miter;stroke-miterlimit:10;stroke-dasharray:none;stroke-dashoffset:0;stroke-opacity:1;color-rendering:auto;image-rendering:auto;shape-rendering:auto;text-rendering:auto;enable-background:accumulate" />
      <path
         inkscape:connector-curvature="0"
         id="path1899"
         d="m 108.79297,216.50781 c -0.0463,0 -0.0772,0.0137 -0.11133,0.041 -0.0342,0.0273 -0.0684,0.0791 -0.0684,0.13867 v 0.66016 c 0,0.0463 0.0156,0.0772 0.043,0.11132 0.0273,0.0342 0.0772,0.0684 0.13672,0.0684 h 4.10156 c 0.0464,0 0.0772,-0.0156 0.11133,-0.043 0.0342,-0.0273 0.0664,-0.0771 0.0664,-0.13672 v -0.66016 c 0,-0.0463 -0.0137,-0.0791 -0.041,-0.11328 -0.0273,-0.0342 -0.0772,-0.0664 -0.13672,-0.0664 h -0.47656 -3.14844 z m 0.0195,0.19922 h 0.45703 3.14844 0.45508 v 0.62109 h -4.06055 z"
         style="color:#000000;font-style:normal;font-variant:normal;font-weight:normal;font-stretch:normal;font-size:medium;line-height:normal;font-family:sans-serif;font-variant-ligatures:normal;font-variant-position:normal;font-variant-caps:normal;font-variant-numeric:normal;font-variant-alternates:normal;font-feature-settings:normal;text-indent:0;text-align:start;text-decoration:none;text-decoration-line:none;text-decoration-style:solid;text-decoration-color:#000000;letter-spacing:normal;word-spacing:normal;text-transform:none;writing-mode:lr-tb;direction:ltr;text-orientation:mixed;dominant-baseline:auto;baseline-shift:baseline;text-anchor:start;white-space:normal;shape-padding:0;clip-rule:nonzero;display:inline;overflow:visible;visibility:visible;opacity:1;isolation:auto;mix-blend-mode:normal;color-interpolation:sRGB;color-interpolation-filters:linearRGB;solid-color:#000000;solid-opacity:1;vector-effect:none;fill:#e1e1e1;fill-opacity:1;fill-rule:nonzero;stroke:none;stroke-width:0.1984375;stroke-linecap:butt;stroke-linejoin:miter;stroke-miterlimit:10;stroke-dasharray:none;stroke-dashoffset:0;stroke-opacity:1;color-rendering:auto;image-rendering:auto;shape-rendering:auto;text-rendering:auto;enable-background:accumulate" />
    </g>
    <g
       id="g4041"
       transform="matrix(1.386565,0,0,1.386565,-39.438703,-84.514049)"
       style="fill:#e1e1e1;fill-opacity:1">
      <rect
         style="fill:#e1e1e1;stroke-width:0.26458332;fill-opacity:1"
         id="rect1873"
         height="0.52916664"
         width="2.6458333"
         y="216.5939"
         x="100.72713" />
      <rect
         style="fill:#e1e1e1;stroke-width:0.26458332;fill-opacity:1"
         id="rect1875"
         height="0.26458332"
         width="1.5875"
         y="217.12308"
         x="101.2563" />
      <path
         inkscape:connector-curvature="0"
         id="path1877"
         d="m 101.2832,217.55273 c -0.23646,0 -0.46315,0.0874 -0.63672,0.20313 -0.34713,0.23142 -0.55211,0.63926 -0.49414,1.07422 l 0.19532,1.83203 h 0.0879 3.26562 l 0.19336,-1.83203 c 0.0589,-0.41233 -0.14187,-0.84069 -0.49219,-1.07422 -0.19999,-0.14237 -0.4111,-0.20313 -0.63867,-0.20313 z m 0,0.19922 h 1.48047 c 0.19514,0 0.35546,0.0446 0.52539,0.16602 l 0.002,0.002 c 0.28468,0.18979 0.45318,0.5543 0.40625,0.88281 v 0.002 l -0.17579,1.6582 h -2.99609 l -0.17578,-1.6582 v -0.002 c -0.0478,-0.3588 0.11839,-0.69091 0.40625,-0.88281 0.14393,-0.096 0.34049,-0.16797 0.52734,-0.16797 z"
         style="color:#000000;font-style:normal;font-variant:normal;font-weight:normal;font-stretch:normal;font-size:medium;line-height:normal;font-family:sans-serif;font-variant-ligatures:normal;font-variant-position:normal;font-variant-caps:normal;font-variant-numeric:normal;font-variant-alternates:normal;font-feature-settings:normal;text-indent:0;text-align:start;text-decoration:none;text-decoration-line:none;text-decoration-style:solid;text-decoration-color:#000000;letter-spacing:normal;word-spacing:normal;text-transform:none;writing-mode:lr-tb;direction:ltr;text-orientation:mixed;dominant-baseline:auto;baseline-shift:baseline;text-anchor:start;white-space:normal;shape-padding:0;clip-rule:nonzero;display:inline;overflow:visible;visibility:visible;opacity:1;isolation:auto;mix-blend-mode:normal;color-interpolation:sRGB;color-interpolation-filters:linearRGB;solid-color:#000000;solid-opacity:1;vector-effect:none;fill:#e1e1e1;fill-opacity:1;fill-rule:nonzero;stroke:none;stroke-width:0.1984375;stroke-linecap:butt;stroke-linejoin:miter;stroke-miterlimit:10;stroke-dasharray:none;stroke-dashoffset:0;stroke-opacity:1;color-rendering:auto;image-rendering:auto;shape-rendering:auto;text-rendering:auto;enable-background:accumulate" />
      <polygon
         style="fill:#e1e1e1;fill-opacity:1"
         transform="matrix(0.26458333,0,0,0.26458333,68.447971,176.21849)"
         id="polygon1879"
         points="132.5,161.6 131.9,166.6 121.9,166.6 121.5,161.6 " />
    </g>
    <g
       id="g4025"
       transform="matrix(1.386565,0,0,1.386565,-46.257369,-77.69532)"
       style="fill:#e1e1e1;fill-opacity:1">
      <rect
         style="fill:#e1e1e1;stroke-width:0.26458332;fill-opacity:1"
         height="4.1275001"
         width="0.26458332"
         y="198.3454"
         x="119.53633"
         id="XMLID_1_" />
      <rect
         style="fill:#e1e1e1;stroke-width:0.26459041;fill-opacity:1"
         height="4.3128238"
         width="0.26459041"
         transform="rotate(8.9687543)"
         y="178.33031"
         x="148.69757"
         id="XMLID_2_" />
      <rect
         style="fill:#e1e1e1;stroke-width:0.26459041;fill-opacity:1"
         height="4.3128238"
         width="0.26459041"
         transform="rotate(171.03125)"
         y="-219.92464"
         x="-87.705994"
         id="XMLID_3_" />
      <polygon
         style="fill:#e1e1e1;fill-opacity:1"
         transform="matrix(0.26458333,0,0,0.26458333,69.662372,173.47456)"
         points="192.6,109 192.7,109.6 185.3,109.6 185.4,109 "
         id="XMLID_74_" />
      <rect
         style="fill:#e1e1e1;stroke-width:0.26458332;fill-opacity:1"
         height="2.1960416"
         width="0.15875"
         transform="rotate(90)"
         y="-120.76146"
         x="201.7406"
         id="XMLID_73_" />
      <polygon
         style="fill:#e1e1e1;fill-opacity:1"
         transform="matrix(0.26458333,0,0,0.26458333,69.662372,173.47456)"
         points="191.1,99.5 186.9,99.5 187,98.9 191,98.9 191.1,99.4 "
         id="XMLID_72_" />
      <polygon
         style="fill:#e1e1e1;fill-opacity:1"
         transform="matrix(0.26458333,0,0,0.26458333,69.662372,173.47456)"
         points="185.4,109 186.9,99.5 187,98.9 187.1,98.2 187.2,97.7 187.8,97.8 187.7,98.3 187.6,98.9 187.5,99.5 186,109 185.9,109.6 185.2,113.9 184.6,113.9 185.3,109.6 "
         id="XMLID_71_" />
      <polygon
         style="fill:#e1e1e1;fill-opacity:1"
         transform="matrix(0.26458333,0,0,0.26458333,69.662372,173.47456)"
         points="190.3,98.3 190.2,97.8 190.8,97.7 190.9,98.3 191,98.9 191.1,99.4 191.1,99.5 192.6,109 192.7,109.6 193.4,113.9 192.8,113.9 192.1,109.6 192,109 190.5,99.5 190.4,98.9 "
         id="XMLID_70_" />
    </g>
    <g
       id="g4031"
       transform="matrix(1.386565,0,0,1.386565,-46.256721,-81.104798)"
       style="fill:#e1e1e1;fill-opacity:1">
      <path
         inkscape:connector-curvature="0"
         id="path1847"
         d="m 119.66211,207.17773 -0.0859,0.12305 c 0,0 -0.41866,0.59716 -0.83789,1.3125 -0.20961,0.35767 -0.41929,0.74621 -0.57812,1.10547 -0.15884,0.35926 -0.26954,0.68631 -0.26954,0.94922 0,0.95705 0.78764,1.77148 1.77149,1.77148 0.98385,0 1.77148,-0.81443 1.77148,-1.77148 0,-0.25722 -0.11075,-0.58157 -0.26953,-0.93945 -0.15878,-0.35789 -0.36856,-0.74427 -0.57812,-1.10352 -0.41913,-0.7185 -0.83789,-1.32422 -0.83789,-1.32422 z m 0,0.37696 c 0.0727,0.1061 0.37252,0.53871 0.74414,1.17578 0.20715,0.35512 0.41265,0.73742 0.56641,1.08398 0.15375,0.34657 0.25195,0.66094 0.25195,0.85352 0,0.84213 -0.69427,1.5625 -1.5625,1.5625 -0.86823,0 -1.5625,-0.72037 -1.5625,-1.5625 0,-0.20011 0.0983,-0.51757 0.25195,-0.86524 0.15371,-0.34767 0.36125,-0.72863 0.56836,-1.08203 0.37128,-0.63353 0.66913,-1.06052 0.74219,-1.16601 z"
         style="color:#000000;font-style:normal;font-variant:normal;font-weight:normal;font-stretch:normal;font-size:medium;line-height:normal;font-family:sans-serif;font-variant-ligatures:normal;font-variant-position:normal;font-variant-caps:normal;font-variant-numeric:normal;font-variant-alternates:normal;font-feature-settings:normal;text-indent:0;text-align:start;text-decoration:none;text-decoration-line:none;text-decoration-style:solid;text-decoration-color:#000000;letter-spacing:normal;word-spacing:normal;text-transform:none;writing-mode:lr-tb;direction:ltr;text-orientation:mixed;dominant-baseline:auto;baseline-shift:baseline;text-anchor:start;white-space:normal;shape-padding:0;clip-rule:nonzero;display:inline;overflow:visible;visibility:visible;opacity:1;isolation:auto;mix-blend-mode:normal;color-interpolation:sRGB;color-interpolation-filters:linearRGB;solid-color:#000000;solid-opacity:1;vector-effect:none;fill:#e1e1e1;fill-opacity:1;fill-rule:nonzero;stroke:none;stroke-width:0.20931187;stroke-linecap:butt;stroke-linejoin:miter;stroke-miterlimit:10;stroke-dasharray:none;stroke-dashoffset:0;stroke-opacity:1;color-rendering:auto;image-rendering:auto;shape-rendering:auto;text-rendering:auto;enable-background:accumulate" />
      <path
         style="fill:#e1e1e1;stroke-width:0.26458332;fill-opacity:1"
         inkscape:connector-curvature="0"
         id="path1849"
         d="m 118.7101,210.19166 v 0.34396 h 0.39687 v -0.34396 h 0.10584 v 0.82021 h -0.10584 v -0.37042 h -0.39687 v 0.37042 h -0.10584 v -0.82021 z" />
      <path
         style="fill:#e1e1e1;stroke-width:0.26458332;fill-opacity:1"
         inkscape:connector-curvature="0"
         id="path1851"
         d="m 119.45093,211.01187 v -0.0529 l 0.0529,-0.0529 c 0.13229,-0.13229 0.18521,-0.18521 0.18521,-0.26459 0,-0.0529 -0.0265,-0.10583 -0.10584,-0.10583 -0.0529,0 -0.0794,0.0265 -0.10583,0.0529 l -0.0265,-0.0529 c 0.0265,-0.0265 0.0794,-0.0529 0.13229,-0.0529 0.10584,0 0.15875,0.0794 0.15875,0.15875 0,0.10584 -0.0794,0.15875 -0.18521,0.26459 l -0.0529,0.0265 v 0 h 0.23812 v 0.0529 h -0.29104 z" />
      <path
         style="fill:#e1e1e1;stroke-width:0.26458332;fill-opacity:1"
         inkscape:connector-curvature="0"
         id="path1853"
         d="m 120.69447,210.58854 c 0,0.29104 -0.15875,0.42333 -0.37041,0.42333 -0.21167,0 -0.37042,-0.15875 -0.37042,-0.42333 0,-0.26459 0.15875,-0.42334 0.37042,-0.42334 0.23812,0.0265 0.37041,0.18521 0.37041,0.42334 z m -0.635,0.0265 c 0,0.1852 0.10584,0.3175 0.26459,0.3175 0.15875,0 0.26458,-0.15875 0.26458,-0.34396 0,-0.15875 -0.0794,-0.34396 -0.26458,-0.34396 -0.15875,0.0265 -0.26459,0.18521 -0.26459,0.37042 z" />
    </g>
  </g>
</svg>
