<?xml version="1.0" encoding="UTF-8"?>
<svg width="100" height="100" version="1.1" viewBox="0 0 26.458 26.458" xmlns="http://www.w3.org/2000/svg" xmlns:cc="http://creativecommons.org/ns#" xmlns:dc="http://purl.org/dc/elements/1.1/" xmlns:rdf="http://www.w3.org/1999/02/22-rdf-syntax-ns#">
<metadata>
<rdf:RDF>
<cc:Work rdf:about="">
<dc:format>image/svg+xml</dc:format>
<dc:type rdf:resource="http://purl.org/dc/dcmitype/StillImage"/>
<dc:title/>
</cc:Work>
</rdf:RDF>
</metadata>
<g transform="translate(-97.614 -196.58)">
<rect x="60.38" y="221.41" width="8.8194" height="8.8194" fill="#f00" opacity=".379"/>
<rect x="69.199" y="221.41" width="8.8194" height="8.8194" fill="#808000" opacity=".379"/>
<rect x="78.019" y="221.41" width="8.8194" height="8.8194" fill="#00f" opacity=".379"/>
<rect x="60.38" y="239.05" width="8.8194" height="8.8194" fill="#f00" opacity=".379"/>
<rect x="69.199" y="239.05" width="8.8194" height="8.8194" fill="#808000" opacity=".379"/>
<rect x="78.019" y="239.05" width="8.8194" height="8.8194" fill="#00f" opacity=".379"/>
<rect x="60.38" y="230.23" width="8.8194" height="8.8194" fill="#f00" opacity=".379"/>
<rect x="69.199" y="230.23" width="8.8194" height="8.8194" fill="#808000" opacity=".379"/>
<rect x="78.019" y="230.23" width="8.8194" height="8.8194" fill="#00f" opacity=".379"/>
<g transform="matrix(1.3866 0 0 1.3866 -39.439 -77.695)" fill="#e1e1e1">
<path d="m102.28 198.57v0.97896h-0.5027v-0.97896c0-0.13229 0.10583-0.23813 0.23812-0.23813 0.15875 0 0.26458 0.10584 0.26458 0.23813z" stroke-width=".26458"/>
<polygon transform="matrix(.26458 0 0 .26458 60.233 173.46)" points="150.4 112.6 156.4 96.5 157.4 96.5 151.5 112.3 150.9 114.1"/>
<polygon transform="matrix(.26458 0 0 .26458 60.233 173.46)" points="165.5 112.6 159.5 96.5 158.5 96.5 164.4 112.3 165 114.1"/>
<path d="m101.31 199.84c0 0.40506 0.32345 0.72852 0.72852 0.72852s0.72656-0.32346 0.72656-0.72852h-0.13086c0 0.33576-0.25993 0.5957-0.5957 0.5957s-0.5957-0.25994-0.5957-0.5957z" color="#000000" color-rendering="auto" dominant-baseline="auto" image-rendering="auto" shape-rendering="auto" solid-color="#000000" style="font-feature-settings:normal;font-variant-alternates:normal;font-variant-caps:normal;font-variant-ligatures:normal;font-variant-numeric:normal;font-variant-position:normal;isolation:auto;mix-blend-mode:normal;shape-padding:0;text-decoration-color:#000000;text-decoration-line:none;text-decoration-style:solid;text-indent:0;text-orientation:mixed;text-transform:none;white-space:normal"/>
<rect x="101.9" y="199.47" width=".26458" height="1.4288" stroke-width=".26458"/>
</g>
<g transform="matrix(1.3866 0 0 1.3866 -42.848 -81.105)" fill="#e1e1e1">
<path d="m111.06 209.11c-0.13896-0.10426-0.33698-0.11225-0.45703 8e-3l-2.1524 2.1523 0.94336 0.94141 0.0606-0.0606 2.0938-2.0957 4e-3 -4e-3c0.10425-0.13896 0.11224-0.33697-8e-3 -0.45703l-0.48047-0.48047zm-0.33594 0.13085c0.0384-0.0384 0.15761-0.0452 0.23047 8e-3 6.2e-4 4.5e-4 1e-3 -4.6e-4 2e-3 0l0.4668 0.46875c0.0384 0.0384 0.0452 0.15565-8e-3 0.22851-4.5e-4 6.2e-4 4.6e-4 1e-3 0 2e-3l-2.0215 2.0195-0.69921-0.69727z" color="#000000" color-rendering="auto" dominant-baseline="auto" image-rendering="auto" shape-rendering="auto" solid-color="#000000" style="font-feature-settings:normal;font-variant-alternates:normal;font-variant-caps:normal;font-variant-ligatures:normal;font-variant-numeric:normal;font-variant-position:normal;isolation:auto;mix-blend-mode:normal;shape-padding:0;text-decoration-color:#000000;text-decoration-line:none;text-decoration-style:solid;text-indent:0;text-orientation:mixed;text-transform:none;white-space:normal"/>
<rect transform="rotate(45)" x="226.4" y="68.942" width=".68791" height=".23812" stroke-width=".26458"/>
<rect transform="rotate(45)" x="226.17" y="70.094" width="1.1377" height=".92603" stroke-width=".26458"/>
<g transform="matrix(.26458 0 0 .26458 100.37 174.81)">
<path d="m42.9 128.8c-0.1-0.1-0.2-0.3-0.2-0.5 0-0.4 0.3-0.7 0.7-0.7 0.1 0 1.3-0.1 1.6-1.7 0.4-2.2 2.1-2.7 2.9-2.7 0.4 0 0.7 0.3 0.7 0.7s-0.3 0.6-0.6 0.7c-0.1 0-1.3 0.1-1.6 1.7-0.4 2.2-2.1 2.7-2.9 2.7-0.3 0-0.5-0.1-0.6-0.2z" fill="#e1e1e1"/>
</g>
</g>
<path d="m113.34 197.58c-0.17426-4e-3 -0.33949 0.0594-0.46789 0.18774l-4.4024 4.4023 0.14689 0.14689 1.7612-1.7612c0.0953-0.0953 0.22018-0.13838 0.34896-0.13471l-3.1004 3.0696v0.91716l3.5748-3.5748c0.0171 0.14126-0.0205 0.29223-0.12683 0.41988l-1.7605 1.7612 0.14689 0.14689 4.4023-4.4023c0.25681-0.25681 0.25681-0.69762 0-0.95442-0.16509-0.14674-0.3488-0.21968-0.52306-0.22428zm-1.1464 1.4352c0.10086 0 0.20177 0.037 0.27513 0.11033 0.14676 0.14676 0.14676 0.40355 0 0.5503l-0.43994 0.43995c-0.14674 0.14674-0.40355 0.14674-0.55029 0-0.0165-0.0165-0.0244-0.0383-0.0373-0.0573-1.7e-4 -2.7e-4 -5.2e-4 -4.5e-4 -7.1e-4 -7.1e-4 -0.0282-0.042-0.0473-0.0883-0.0573-0.13614-1e-4 -4.6e-4 9e-5 -9.9e-4 0-1e-3 -0.01-0.0482-0.011-0.0978-2e-3 -0.14761 0.013-0.0764 0.041-0.15061 0.0975-0.20707l0.43994-0.43995c0.0734-0.0734 0.17426-0.11034 0.27515-0.11034z" fill="#e1e1e1" stroke-width=".36686"/>
<g transform="matrix(1.3866 0 0 1.3866 -46.261 -84.502)" fill="#e1e1e1">
<path transform="matrix(.26458 0 0 .26458 97.614 196.58)" d="m82.027 83.533-6.293 6.293 0.0059 0.0078-0.69922 2.0996 7.6934-7.6934z" stroke-width=".99999"/>
<path d="m120.85 216.34c-0.2612-1.4e-4 -0.52493 0.10306-0.72852 0.30664l-0.17578 0.17578 1.4356 1.4375 0.0703-0.0703 0.10351-0.10352c0.41066-0.38132 0.41106-1.0302 6e-3 -1.4375-0.19097-0.20565-0.44974-0.30845-0.71093-0.30859zm0.56445 0.44336 4e-3 4e-3c0.33367 0.33367 0.33147 0.84637 2e-3 1.1524l-0.0391 0.0391-1.1562-1.1562 0.0371-0.0352c0.33367-0.33366 0.84636-0.33341 1.1523-4e-3z" color="#000000" color-rendering="auto" dominant-baseline="auto" image-rendering="auto" shape-rendering="auto" solid-color="#000000" style="font-feature-settings:normal;font-variant-alternates:normal;font-variant-caps:normal;font-variant-ligatures:normal;font-variant-numeric:normal;font-variant-position:normal;isolation:auto;mix-blend-mode:normal;shape-padding:0;text-decoration-color:#000000;text-decoration-line:none;text-decoration-style:solid;text-indent:0;text-orientation:mixed;text-transform:none;white-space:normal"/>
<path d="m120.13 216.75-0.14062 0.14062c0.0751 0.0751 0.0977 0.14834 0.0977 0.23047 0 0.0821-0.0284 0.17213-0.0703 0.25586-0.0837 0.16746-0.21289 0.29883-0.21289 0.29883l-0.81055 0.81055 0.69532 0.69726 0.8125-0.8125s0.12941-0.12916 0.29687-0.21289c0.0837-0.0419 0.17568-0.0703 0.25781-0.0703 0.0821 0 0.15541 0.0245 0.23047 0.0996l0.14063-0.14063c-0.11015-0.11014-0.24487-0.15625-0.3711-0.15625-0.12622 0-0.24422 0.0411-0.3457 0.0918-0.20295 0.10148-0.34961 0.25-0.34961 0.25l-0.66992 0.66992-0.41602-0.41601 0.66993-0.66993s0.14852-0.14665 0.25-0.34961c0.0507-0.10147 0.0918-0.21947 0.0918-0.3457s-0.0461-0.26095-0.15625-0.37109z" color="#000000" color-rendering="auto" dominant-baseline="auto" image-rendering="auto" shape-rendering="auto" solid-color="#000000" style="font-feature-settings:normal;font-variant-alternates:normal;font-variant-caps:normal;font-variant-ligatures:normal;font-variant-numeric:normal;font-variant-position:normal;isolation:auto;mix-blend-mode:normal;shape-padding:0;text-decoration-color:#000000;text-decoration-line:none;text-decoration-style:solid;text-indent:0;text-orientation:mixed;text-transform:none;white-space:normal"/>
</g>
<g transform="matrix(1.3866 0 0 1.3866 -39.439 -81.105)" fill="#e1e1e1">
<path d="m102.76 208.01c0.10584 0 0.21167 0.0529 0.29104 0.10583l0.66146 0.66146c0.15875 0.15875 0.15875 0.39688 0 0.55563l-2.1431 2.1431c-0.0794 0.0794-0.18521 0.10583-0.29104 0.10583-0.10584 0-0.21167-0.0529-0.29105-0.10583l-0.66145-0.66146c-0.15875-0.15875-0.15875-0.39687 0-0.55562l2.1431-2.1431c0.10583-0.0529 0.18521-0.10583 0.29104-0.10583m0-0.21167c-0.15875 0-0.3175 0.0529-0.42333 0.18521l-2.1431 2.1431c-0.23812 0.23812-0.23812 0.60854 0 0.84666l0.66146 0.66146c0.10584 0.10583 0.26459 0.18521 0.42334 0.18521s0.3175-0.0529 0.42333-0.18521l2.1431-2.1431c0.23813-0.23813 0.23813-0.60855 0-0.84667l-0.66145-0.66146c-0.10584-0.10583-0.26459-0.18521-0.42334-0.18521z" stroke-width=".26458"/>
<rect transform="rotate(-45)" x="-77.274" y="219.44" width="2.1166" height="2.1166" stroke-width=".26458"/>
</g>
<g transform="matrix(1.3866 0 0 1.3866 -42.847 -84.514)" fill="#e1e1e1">
<path d="m112.66 217.11h-3.5454c-0.0529 0-0.0794-0.0529-0.0794-0.0794v-0.87312c0-0.0529 0.0529-0.0794 0.0794-0.0794h3.519c0.0529 0 0.0794 0.0529 0.0794 0.0794v0.87312c0.0265 0.0529-0.0265 0.0794-0.0529 0.0794z" stroke-width=".26458"/>
<path d="m110.53 217.33-6e-3 0.0918-0.21289 3.123 2e-3 -2e-3c-0.0317 0.34933 0.25641 0.63671 0.60157 0.63671s0.60156-0.28975 0.60156-0.6289v-4e-3l-0.27344-3.2168zm0.18555 0.19922h0.3457l0.25586 3.0215c0 0.24293-0.16542 0.42969-0.40234 0.42969s-0.42541-0.18718-0.4043-0.41993v-2e-3z" color="#000000" color-rendering="auto" dominant-baseline="auto" image-rendering="auto" shape-rendering="auto" solid-color="#000000" style="font-feature-settings:normal;font-variant-alternates:normal;font-variant-caps:normal;font-variant-ligatures:normal;font-variant-numeric:normal;font-variant-position:normal;isolation:auto;mix-blend-mode:normal;shape-padding:0;text-decoration-color:#000000;text-decoration-line:none;text-decoration-style:solid;text-indent:0;text-orientation:mixed;text-transform:none;white-space:normal"/>
<path d="m108.79 216.51c-0.0463 0-0.0772 0.0137-0.11133 0.041-0.0342 0.0273-0.0684 0.0791-0.0684 0.13867v0.66016c0 0.0463 0.0156 0.0772 0.043 0.11132 0.0273 0.0342 0.0772 0.0684 0.13672 0.0684h4.1016c0.0464 0 0.0772-0.0156 0.11133-0.043 0.0342-0.0273 0.0664-0.0771 0.0664-0.13672v-0.66016c0-0.0463-0.0137-0.0791-0.041-0.11328-0.0273-0.0342-0.0772-0.0664-0.13672-0.0664h-3.625zm0.0195 0.19922h4.0606v0.62109h-4.0606z" color="#000000" color-rendering="auto" dominant-baseline="auto" image-rendering="auto" shape-rendering="auto" solid-color="#000000" style="font-feature-settings:normal;font-variant-alternates:normal;font-variant-caps:normal;font-variant-ligatures:normal;font-variant-numeric:normal;font-variant-position:normal;isolation:auto;mix-blend-mode:normal;shape-padding:0;text-decoration-color:#000000;text-decoration-line:none;text-decoration-style:solid;text-indent:0;text-orientation:mixed;text-transform:none;white-space:normal"/>
</g>
<g transform="matrix(1.3866 0 0 1.3866 -39.439 -84.514)" fill="#e1e1e1">
<rect x="100.73" y="216.59" width="2.6458" height=".52917" stroke-width=".26458"/>
<rect x="101.26" y="217.12" width="1.5875" height=".26458" stroke-width=".26458"/>
<path d="m101.28 217.55c-0.23646 0-0.46315 0.0874-0.63672 0.20313-0.34713 0.23142-0.55211 0.63926-0.49414 1.0742l0.19532 1.832h3.3535l0.19336-1.832c0.0589-0.41233-0.14187-0.84069-0.49219-1.0742-0.19999-0.14237-0.4111-0.20313-0.63867-0.20313zm0 0.19922h1.4805c0.19514 0 0.35546 0.0446 0.52539 0.16602l2e-3 2e-3c0.28468 0.18979 0.45318 0.5543 0.40625 0.88281v2e-3l-0.17579 1.6582h-2.9961l-0.17578-1.6582v-2e-3c-0.0478-0.3588 0.11839-0.69091 0.40625-0.88281 0.14393-0.096 0.34049-0.16797 0.52734-0.16797z" color="#000000" color-rendering="auto" dominant-baseline="auto" image-rendering="auto" shape-rendering="auto" solid-color="#000000" style="font-feature-settings:normal;font-variant-alternates:normal;font-variant-caps:normal;font-variant-ligatures:normal;font-variant-numeric:normal;font-variant-position:normal;isolation:auto;mix-blend-mode:normal;shape-padding:0;text-decoration-color:#000000;text-decoration-line:none;text-decoration-style:solid;text-indent:0;text-orientation:mixed;text-transform:none;white-space:normal"/>
<polygon transform="matrix(.26458 0 0 .26458 68.448 176.22)" points="132.5 161.6 131.9 166.6 121.9 166.6 121.5 161.6"/>
</g>
<g transform="matrix(1.3866 0 0 1.3866 -46.257 -77.695)" fill="#e1e1e1">
<rect x="119.54" y="198.35" width=".26458" height="4.1275" stroke-width=".26458"/>
<rect transform="rotate(8.9688)" x="148.7" y="178.33" width=".26459" height="4.3128" stroke-width=".26459"/>
<rect transform="rotate(171.03)" x="-87.706" y="-219.92" width=".26459" height="4.3128" stroke-width=".26459"/>
<polygon transform="matrix(.26458 0 0 .26458 69.662 173.47)" points="192.6 109 192.7 109.6 185.3 109.6 185.4 109"/>
<rect transform="rotate(90)" x="201.74" y="-120.76" width=".15875" height="2.196" stroke-width=".26458"/>
<polygon transform="matrix(.26458 0 0 .26458 69.662 173.47)" points="191.1 99.5 186.9 99.5 187 98.9 191 98.9 191.1 99.4"/>
<polygon transform="matrix(.26458 0 0 .26458 69.662 173.47)" points="185.4 109 186.9 99.5 187 98.9 187.1 98.2 187.2 97.7 187.8 97.8 187.7 98.3 187.6 98.9 187.5 99.5 186 109 185.9 109.6 185.2 113.9 184.6 113.9 185.3 109.6"/>
<polygon transform="matrix(.26458 0 0 .26458 69.662 173.47)" points="190.3 98.3 190.2 97.8 190.8 97.7 190.9 98.3 191 98.9 191.1 99.4 191.1 99.5 192.6 109 192.7 109.6 193.4 113.9 192.8 113.9 192.1 109.6 192 109 190.5 99.5 190.4 98.9"/>
</g>
<g transform="matrix(1.3866 0 0 1.3866 -46.257 -81.105)" fill="#e1e1e1">
<path d="m119.66 207.18-0.0859 0.12305s-0.41866 0.59716-0.83789 1.3125c-0.20961 0.35767-0.41929 0.74621-0.57812 1.1055-0.15884 0.35926-0.26954 0.68631-0.26954 0.94922 0 0.95705 0.78764 1.7715 1.7715 1.7715s1.7715-0.81443 1.7715-1.7715c0-0.25722-0.11075-0.58157-0.26953-0.93945-0.15878-0.35789-0.36856-0.74427-0.57812-1.1035-0.41913-0.7185-0.83789-1.3242-0.83789-1.3242zm0 0.37696c0.0727 0.1061 0.37252 0.53871 0.74414 1.1758 0.20715 0.35512 0.41265 0.73742 0.56641 1.084 0.15375 0.34657 0.25195 0.66094 0.25195 0.85352 0 0.84213-0.69427 1.5625-1.5625 1.5625s-1.5625-0.72037-1.5625-1.5625c0-0.20011 0.0983-0.51757 0.25195-0.86524 0.15371-0.34767 0.36125-0.72863 0.56836-1.082 0.37128-0.63353 0.66913-1.0605 0.74219-1.166z" color="#000000" color-rendering="auto" dominant-baseline="auto" image-rendering="auto" shape-rendering="auto" solid-color="#000000" style="font-feature-settings:normal;font-variant-alternates:normal;font-variant-caps:normal;font-variant-ligatures:normal;font-variant-numeric:normal;font-variant-position:normal;isolation:auto;mix-blend-mode:normal;shape-padding:0;text-decoration-color:#000000;text-decoration-line:none;text-decoration-style:solid;text-indent:0;text-orientation:mixed;text-transform:none;white-space:normal"/>
<path d="m118.71 210.19v0.34396h0.39687v-0.34396h0.10584v0.82021h-0.10584v-0.37042h-0.39687v0.37042h-0.10584v-0.82021z" stroke-width=".26458"/>
<path d="m119.45 211.01v-0.0529l0.0529-0.0529c0.13229-0.13229 0.18521-0.18521 0.18521-0.26459 0-0.0529-0.0265-0.10583-0.10584-0.10583-0.0529 0-0.0794 0.0265-0.10583 0.0529l-0.0265-0.0529c0.0265-0.0265 0.0794-0.0529 0.13229-0.0529 0.10584 0 0.15875 0.0794 0.15875 0.15875 0 0.10584-0.0794 0.15875-0.18521 0.26459l-0.0529 0.0265h0.23812v0.0529h-0.29104z" stroke-width=".26458"/>
<path d="m120.69 210.59c0 0.29104-0.15875 0.42333-0.37041 0.42333-0.21167 0-0.37042-0.15875-0.37042-0.42333 0-0.26459 0.15875-0.42334 0.37042-0.42334 0.23812 0.0265 0.37041 0.18521 0.37041 0.42334zm-0.635 0.0265c0 0.1852 0.10584 0.3175 0.26459 0.3175s0.26458-0.15875 0.26458-0.34396c0-0.15875-0.0794-0.34396-0.26458-0.34396-0.15875 0.0265-0.26459 0.18521-0.26459 0.37042z" stroke-width=".26458"/>
</g>
</g>
</svg>
