<?xml version="1.0" encoding="UTF-8"?>
<svg class="svg-inline--fa fa-instagram-square fa-w-14" aria-hidden="true" data-icon="instagram-square" data-prefix="fab" focusable="false" role="img" version="1.1" viewBox="0 0 448 448" xmlns="http://www.w3.org/2000/svg" xmlns:cc="http://creativecommons.org/ns#" xmlns:dc="http://purl.org/dc/elements/1.1/" xmlns:rdf="http://www.w3.org/1999/02/22-rdf-syntax-ns#">
<metadata>
<rdf:RDF>
<cc:Work rdf:about="">
<dc:format>image/svg+xml</dc:format>
<dc:type rdf:resource="http://purl.org/dc/dcmitype/StillImage"/>
<dc:title/>
</cc:Work>
</rdf:RDF>
</metadata>
<path d="m0 0v48 352 48h48 352 48v-48-352-48h-48-352-48zm224.03 64.102c26.398 0 52.795 0.37414 66 1.1191 25.63 1.29 48.33 7.1496 67 25.85 18.67 18.7 24.632 41.419 25.852 67.049 1.49 26.32 1.49 105.44 0 131.88-1.29 25.63-7.1416 48.34-25.852 67s-41.4 24.63-67 25.85c-26.41 1.49-105.59 1.49-132 0-25.63-1.29-48.26-7.1496-67-25.85-18.74-18.7-24.63-41.42-25.85-67-1.49-26.42-1.49-105.61 0-132 1.29-25.63 7.0696-48.34 25.85-67 18.78-18.66 41.47-24.559 67-25.779 13.205-0.745 39.602-1.1191 66-1.1191zm-27.986 28.525c-23.741-0.008862-51.875 0.87555-66.354 6.623a54 54 0 0 0-30.41 30.41c-8.28 21-6.4297 71.05-6.4297 94.33s-1.8493 73.27 6.4707 94.34a54 54 0 0 0 30.41 30.41c21 8.29 70.999 6.4297 94.309 6.4297s73.241 1.9303 94.301-6.4297a54 54 0 0 0 30.41-30.41c8.35-21 6.4297-71.05 6.4297-94.33s1.9203-73.26-6.4297-94.33l-0.03906-0.00976a54 54 0 0 0-30.41-30.41c-21-8.29-71.001-6.4297-94.301-6.4297-7.2812 0-17.166-0.18933-27.957-0.19336zm112.52 26.811a19.14 19.14 0 0 1 19.945 19.123 19.1 19.1 0 0 1-19.09 19.18l-0.03906-0.04101a19.14 19.14 0 0 1-0.81641-38.262zm-87.975 22.633a82 82 0 0 1 85.41 81.93 81.9 81.9 0 0 1-82 82 82 82 0 0 1-3.4102-163.93zm3.4102 28.59a53.34 53.34 0 1 0 53.359 53.34 53.38 53.38 0 0 0-53.359-53.34z" fill="#fff"/>
</svg>
