<?xml version="1.0" encoding="UTF-8" standalone="no"?>
<svg
   xmlns:dc="http://purl.org/dc/elements/1.1/"
   xmlns:cc="http://creativecommons.org/ns#"
   xmlns:rdf="http://www.w3.org/1999/02/22-rdf-syntax-ns#"
   xmlns:svg="http://www.w3.org/2000/svg"
   xmlns="http://www.w3.org/2000/svg"
   viewBox="0 0 500 500.00001"
   height="500"
   width="500"
   xml:space="preserve"
   version="1.1"
   id="svg4205"><metadata
     id="metadata4211"><rdf:RDF><cc:Work
         rdf:about=""><dc:format>image/svg+xml</dc:format><dc:type
           rdf:resource="http://purl.org/dc/dcmitype/StillImage" /><dc:title></dc:title></cc:Work></rdf:RDF></metadata><defs
     id="defs4209" /><path
     id="path4243"
     d="M 250 8.1777344 C 116.44271 8.1777344 8.1738281 116.44833 8.1738281 250.00391 C 8.1738281 383.55267 116.44271 491.82227 250 491.82227 C 314.13575 491.82227 375.64406 466.35008 420.99805 420.99609 C 466.34692 375.64892 491.82617 314.13967 491.82617 250.00391 C 491.82617 185.86134 466.34692 124.35107 420.99805 79.003906 C 375.64406 33.656738 314.13575 8.1777344 250 8.1777344 z M 250 38.388672 C 306.12347 38.388672 359.9502 60.682619 399.63281 100.36523 C 439.32225 140.05466 461.61523 193.87873 461.61523 250.00391 C 461.61523 306.1291 439.32225 359.95216 399.63281 399.63477 C 359.9502 439.31738 306.12347 461.61133 250 461.61133 C 167.15683 461.61133 95.447452 414.00275 60.703125 344.66211 L 134.83203 344.66211 L 134.83203 256.13477 L 38.480469 256.13477 C 38.422477 254.09736 38.384766 252.05534 38.384766 250.00391 C 38.384766 244.71722 38.585814 239.47649 38.966797 234.28711 L 135.21094 234.28711 L 135.21094 146.9043 L 65.171875 146.9043 C 101.36084 82.16621 170.56115 38.388672 250 38.388672 z M 392.76172 145.75781 C 385.47628 145.75781 379.34383 147.67204 375.51172 151.50586 C 371.29402 155.33796 369.37891 160.70772 369.37891 167.98633 L 369.37891 172.97266 L 360.56445 172.97266 L 360.56445 186.38086 L 369.37891 186.38086 L 369.37891 234.67578 L 388.16211 234.67578 L 388.16211 186.38086 L 400.03906 186.38086 L 400.03906 172.97266 L 388.16211 172.97266 L 388.16211 168.37305 C 388.16211 163.38756 391.22791 160.70898 396.97266 160.70898 C 398.89212 160.70898 400.42571 160.70741 401.57227 161.08789 L 401.57227 146.9043 C 398.12576 146.13822 395.44045 145.75781 392.76172 145.75781 z M 142.10938 146.9043 L 142.10938 179.48242 L 153.99414 179.48242 L 155.90625 156.10938 L 155.90625 146.9043 L 142.10938 146.9043 z M 220.29688 157.64258 L 220.29688 172.97266 L 212.63086 172.97266 L 212.63086 186.38086 L 220.29688 186.38086 L 220.29688 217.04688 C 220.29688 223.5577 221.8285 228.15664 224.89453 231.22266 C 227.96056 234.28869 232.9462 235.82031 239.45703 235.82031 C 243.28914 235.82031 246.7427 235.4405 250.1875 234.28711 L 250.1875 220.49219 C 249.04094 220.8795 247.12005 220.87891 245.58789 220.87891 C 243.28795 220.87891 241.37545 220.49226 240.60938 219.3457 C 239.8433 218.57962 239.45703 216.65933 239.45703 214.35938 L 239.45703 186.38086 L 249.41992 186.38086 L 249.41992 172.97266 L 239.45703 172.97266 L 239.45703 157.64258 L 220.29688 157.64258 z M 326.45898 171.4375 C 320.3218 171.4375 315.34209 172.58594 310.74219 175.27148 C 306.14401 177.95191 302.69253 181.4022 300.39258 186.38086 C 298.09264 190.97905 296.94727 196.73123 296.94727 202.86328 L 296.94727 205.92969 C 297.32775 215.51337 300.39354 222.79185 305.75781 227.77734 C 311.12378 233.14161 318.02224 235.44141 326.83984 235.44141 C 336.03621 235.44141 343.32016 232.75622 348.29883 227.00977 C 353.6648 221.25819 356.35156 213.59345 356.35156 204.00977 L 356.35156 203.24414 C 356.35156 193.27998 353.6648 185.61583 348.29883 179.87109 C 342.93286 174.11781 335.65706 171.4375 326.45898 171.4375 z M 181.58594 172.20508 C 173.92173 172.20508 167.7896 174.11698 163.19141 177.57031 C 158.59151 181.01511 156.29297 186.00121 156.29297 191.36719 C 156.29297 194.43321 157.05964 197.49863 158.5918 199.79688 C 160.12567 202.09682 162.42629 204.39753 165.87109 205.92969 C 168.94394 207.46185 172.77524 208.99505 177.75391 210.14844 C 182.35209 211.295 185.80573 212.06121 187.33789 213.21289 C 188.87175 214.35945 190.01562 215.51302 190.01562 217.04688 C 190.01562 218.57904 189.25008 220.11125 188.10352 221.25781 C 186.95184 222.4112 185.03711 222.79102 182.35156 222.79102 C 179.67284 222.79102 177.37259 222.02547 175.45312 220.87891 C 173.54048 219.72552 172.77539 217.42481 172.77539 214.74609 L 154.75977 214.74609 C 154.75977 218.19089 155.90513 221.64504 158.20508 225.08984 C 160.50502 228.15587 163.56964 230.84322 167.78906 232.75586 C 172.00847 234.67533 176.60668 235.44141 181.97266 235.44141 C 190.01565 235.44141 196.14928 233.52073 201.13477 230.07422 C 206.11344 226.6226 208.79883 222.02575 208.79883 216.2793 C 208.79883 208.22948 204.20003 202.47776 195.00195 199.03125 C 192.3164 198.26517 188.8713 197.11095 185.41797 196.73047 C 181.97317 195.96438 179.2857 195.1983 177.37305 194.04492 C 175.84089 192.89836 174.6875 191.74467 174.6875 189.83203 C 174.30702 188.68035 175.07526 187.53425 176.60742 186.38086 C 178.14129 185.2343 179.6733 184.84961 181.58594 184.84961 C 186.95192 184.84961 189.25 187.14732 189.25 192.13281 L 208.41211 192.13281 C 208.41211 186.00075 206.11344 181.40242 201.13477 177.57031 C 196.14928 173.7382 189.63746 172.20508 181.58594 172.20508 z M 289.66211 172.20508 C 283.91736 172.20508 279.31798 175.27028 276.25195 181.40234 L 275.48633 173.35156 L 257.47266 173.35156 L 257.47266 234.67578 L 276.63281 234.67578 L 276.63281 195.58008 C 278.16668 191.74626 282.38416 189.83203 288.12891 189.83203 L 294.64844 190.60156 L 295.02734 172.97266 C 293.49518 172.58536 291.58158 172.20508 289.66211 172.20508 z M 326.45898 186.76758 C 333.35711 186.76758 337.18945 192.13342 337.18945 203.24414 L 337.18945 205.16211 C 337.18945 215.51187 333.73797 220.87891 326.83984 220.87891 C 323.38651 220.87891 320.70657 219.72559 318.78711 217.04688 C 316.87447 214.35962 316.10937 210.14805 316.10938 204.39648 L 316.10938 200.94336 C 316.48814 191.36651 319.94132 186.76758 326.45898 186.76758 z M 216.46289 255.74805 L 216.46289 343.13086 L 235.625 343.13086 L 235.625 299.05664 C 237.15716 296.37792 240.22258 295.22461 244.05469 295.22461 C 247.12071 295.22461 249.42097 295.98958 250.95312 297.52344 C 252.10652 299.0556 252.87305 301.35697 252.87305 304.80859 L 252.87305 343.13086 L 272.03516 343.13086 L 272.03516 304.42188 C 272.03516 296.75595 270.11448 290.62703 266.66797 286.79492 C 263.21635 282.96111 258.23797 280.66211 251.33984 280.66211 C 244.82218 280.66211 239.84442 283.3475 235.625 288.32617 L 235.625 255.74805 L 216.46289 255.74805 z M 141.73047 256.13477 L 141.73047 288.71094 L 153.60742 288.71094 L 155.52734 265.33203 L 155.52734 256.13477 L 141.73047 256.13477 z M 309.97656 280.66211 C 303.84451 280.66211 298.85991 281.81542 294.26172 284.49414 C 289.66353 287.17969 286.21621 290.6256 283.91797 295.60938 C 281.61803 300.20927 280.46484 305.95488 280.46484 312.09375 L 280.46484 315.1582 C 280.85215 323.97069 283.91781 331.25317 288.89648 336.61914 C 294.26075 341.98341 301.15896 344.28516 309.97656 344.28516 C 319.17464 344.28516 326.07324 341.59801 331.4375 335.85156 C 336.80348 330.09998 339.48828 322.43624 339.48828 312.85938 L 339.48828 312.08594 C 339.48828 302.12178 336.80348 294.45739 331.4375 288.71094 C 326.45884 283.72715 319.17464 280.66211 309.97656 280.66211 z M 381.25586 280.66211 C 375.12946 280.66409 370.52382 282.96264 366.69336 287.56055 L 366.31445 281.81445 L 348.29883 281.81445 L 348.29883 366.89844 L 367.46094 366.89844 L 367.46094 338.15234 C 370.91428 342.36493 375.89159 344.28516 381.25586 344.28516 C 388.5413 344.28516 394.29327 341.59801 398.50586 335.85156 C 402.72357 330.09998 405.02344 322.43623 405.02344 312.85938 L 405.02344 312.08594 C 405.02344 302.50738 403.10517 294.45777 398.89258 289.0918 C 394.67633 283.72938 388.93074 280.66422 381.26367 280.66211 L 381.25586 280.66211 z M 181.20508 281.04688 C 173.54087 281.04688 167.4097 282.96073 162.80469 286.41406 C 158.20651 289.85886 155.90625 294.843 155.90625 300.20898 C 155.90625 303.275 156.67291 306.34238 158.20508 308.64062 C 159.73724 310.94058 162.0386 313.23932 165.49023 314.77148 C 168.55626 316.30364 172.38756 317.8388 177.37305 318.99219 C 181.97295 320.13704 185.4173 320.90496 186.95117 322.05664 C 188.48333 323.2032 189.63672 324.35677 189.63672 325.89062 C 189.63672 327.42278 188.87213 328.955 187.71875 330.10156 C 186.57219 331.25495 184.65138 331.63477 181.97266 331.63477 C 179.28541 331.63477 176.98687 330.86922 175.07422 329.72266 C 173.15476 328.56927 172.38867 326.26856 172.38867 323.58984 L 154.37305 323.58984 C 154.37305 327.03464 155.52793 330.48879 157.82617 333.93359 C 160.12612 336.99962 163.19246 339.68697 167.41016 341.59961 C 171.62275 343.51908 176.22168 344.28516 181.58594 344.28516 C 189.63746 344.28516 195.76939 342.36448 200.74805 338.91797 C 205.73184 335.46635 208.41211 330.86754 208.41211 325.12109 C 208.41211 317.07127 203.8116 311.3198 194.61523 307.875 C 191.9348 307.10892 188.48362 305.95471 185.03711 305.57422 C 181.58548 304.80814 178.90774 304.04205 176.98828 302.88867 C 175.07563 301.74211 174.30664 300.58842 174.30664 298.67578 C 173.92104 297.5241 174.68879 296.378 176.22266 295.22461 C 177.75482 294.07805 179.28562 293.69141 181.20508 293.69141 C 186.57106 293.69141 188.87109 295.99107 188.87109 300.97656 L 208.03125 300.97656 C 208.03125 294.8445 205.73184 290.24617 200.74805 286.41406 C 195.76939 282.58195 189.24978 281.04688 181.20508 281.04688 z M 309.58984 295.60938 C 316.48797 295.60938 320.32227 300.97621 320.32227 312.09375 L 320.32227 314.00586 C 320.32227 324.35562 316.8747 329.72266 309.97656 329.72266 C 306.52494 329.72266 303.84525 328.56935 301.92578 325.89062 C 300.01314 323.20337 299.24609 318.9918 299.24609 313.24023 L 299.24609 309.78711 C 299.62657 300.21026 303.07901 295.60938 309.58984 295.60938 z M 376.27734 295.60938 C 382.7967 295.60938 385.86328 300.97621 385.86328 312.09375 L 385.86328 314.00586 C 385.86328 324.35562 382.4094 329.72266 376.27734 329.72266 C 371.67916 329.72266 368.61419 328.18795 367.08203 324.73633 L 367.08203 300.58789 C 368.61419 297.52357 371.67916 295.60938 376.27734 295.60938 z "
     style="fill:#a9a9a9;fill-opacity:1;fill-rule:nonzero;stroke:none;stroke-width:1.7061919" /></svg>