<?xml version="1.0" encoding="UTF-8" standalone="no"?>
<svg
   xmlns:dc="http://purl.org/dc/elements/1.1/"
   xmlns:cc="http://creativecommons.org/ns#"
   xmlns:rdf="http://www.w3.org/1999/02/22-rdf-syntax-ns#"
   xmlns:svg="http://www.w3.org/2000/svg"
   xmlns="http://www.w3.org/2000/svg"
   id="svg4205"
   version="1.1"
   xml:space="preserve"
   width="500"
   height="500"
   viewBox="0 0 500 500.00001"><metadata
     id="metadata4211"><rdf:RDF><cc:Work
         rdf:about=""><dc:format>image/svg+xml</dc:format><dc:type
           rdf:resource="http://purl.org/dc/dcmitype/StillImage" /><dc:title></dc:title></cc:Work></rdf:RDF></metadata><defs
     id="defs4209" /><g
     style="opacity:1;fill:#a9a9a9;fill-opacity:1"
     id="g4213"
     transform="matrix(1.25,0,0,1.25,0,-552.3622)"><g
       id="g4913"
       transform="matrix(1.3649535,0,0,1.3649535,-55.313577,-216.51899)"
       style="fill:#a9a9a9;fill-opacity:1"><path
         d="m 123.81479,587.56232 6.965,0 1.121,-13.699 0,-5.395 -8.086,0 0,19.094 z"
         style="fill:#a9a9a9;fill-opacity:1;fill-rule:nonzero;stroke:none"
         id="path4243" /><path
         d="m 144.03379,591.60532 c 0.899,-0.672 1.797,-0.898 2.918,-0.898 3.145,0 4.492,1.347 4.492,4.269 l 11.231,0 c 0,-3.594 -1.348,-6.289 -4.266,-8.535 -2.922,-2.246 -6.738,-3.145 -11.457,-3.145 -4.492,0 -8.086,1.121 -10.781,3.145 -2.696,2.019 -4.043,4.941 -4.043,8.086 0,1.797 0.449,3.594 1.347,4.941 0.899,1.348 2.247,2.696 4.266,3.594 1.801,0.898 4.047,1.797 6.965,2.473 2.695,0.672 4.719,1.121 5.617,1.796 0.899,0.672 1.57,1.348 1.57,2.247 0,0.898 -0.449,1.796 -1.121,2.468 -0.675,0.676 -1.797,0.899 -3.371,0.899 -1.57,0 -2.918,-0.449 -4.043,-1.121 -1.121,-0.676 -1.57,-2.024 -1.57,-3.594 l -10.559,0 c 0,2.019 0.672,4.043 2.02,6.062 1.348,1.797 3.144,3.372 5.617,4.493 2.473,1.125 5.168,1.574 8.313,1.574 4.714,0 8.308,-1.125 11.23,-3.145 2.918,-2.023 4.492,-4.718 4.492,-8.086 0,-4.718 -2.695,-8.089 -8.086,-10.109 -1.574,-0.449 -3.593,-1.125 -5.617,-1.348 -2.019,-0.449 -3.594,-0.898 -4.715,-1.574 -0.898,-0.672 -1.574,-1.348 -1.574,-2.469 -0.223,-0.675 0.227,-1.347 1.125,-2.023 z"
         style="fill:#a9a9a9;fill-opacity:1;fill-rule:nonzero;stroke:none"
         id="path4245" /><path
         d="m 169.63979,609.57832 c 0,3.816 0.898,6.511 2.695,8.308 1.797,1.797 4.719,2.695 8.535,2.695 2.246,0 4.27,-0.222 6.289,-0.898 l 0,-8.086 c -0.672,0.227 -1.797,0.227 -2.695,0.227 -1.348,0 -2.469,-0.227 -2.918,-0.899 -0.449,-0.449 -0.676,-1.574 -0.676,-2.922 l 0,-16.398 5.84,0 0,-7.859 -5.84,0 0,-8.985 -11.23,0 0,8.985 -4.493,0 0,7.859 4.493,0 0,17.973 z"
         style="fill:#a9a9a9;fill-opacity:1;fill-rule:nonzero;stroke:none"
         id="path4247" /><path
         d="m 213.21779,594.07832 0.222,-10.332 c -0.898,-0.227 -2.019,-0.45 -3.144,-0.45 -3.367,0 -6.063,1.797 -7.86,5.391 l -0.449,-4.719 -10.558,0 0,35.942 11.23,0 0,-22.914 c 0.899,-2.247 3.371,-3.368 6.738,-3.368 l 3.821,0.45 z"
         style="fill:#a9a9a9;fill-opacity:1;fill-rule:nonzero;stroke:none"
         id="path4249" /><path
         d="m 219.72879,615.86732 c 3.145,3.144 7.188,4.492 12.356,4.492 5.39,0 9.66,-1.574 12.578,-4.942 3.145,-3.371 4.719,-7.863 4.719,-13.48 l 0,-0.449 c 0,-5.84 -1.574,-10.332 -4.719,-13.699 -3.145,-3.372 -7.41,-4.942 -12.801,-4.942 -3.597,0 -6.515,0.672 -9.211,2.246 -2.695,1.571 -4.718,3.594 -6.066,6.512 -1.348,2.695 -2.02,6.066 -2.02,9.66 l 0,1.797 c 0.223,5.617 2.02,9.883 5.164,12.805 z m 6.067,-15.727 c 0.222,-5.613 2.246,-8.309 6.066,-8.309 4.043,0 6.289,3.145 6.289,9.657 l 0,1.125 c 0,6.066 -2.023,9.211 -6.066,9.211 -2.024,0 -3.594,-0.676 -4.719,-2.246 -1.121,-1.575 -1.57,-4.043 -1.57,-7.414 l 0,-2.024 z"
         style="fill:#a9a9a9;fill-opacity:1;fill-rule:nonzero;stroke:none"
         id="path4251" /><path
         d="m 256.79179,619.91032 11.234,0 0,-28.305 6.961,0 0,-7.859 -6.961,0 0,-2.696 c 0,-2.922 1.797,-4.492 5.164,-4.492 1.125,0 2.024,0 2.696,0.223 l 0,-8.313 c -2.02,-0.449 -3.594,-0.672 -5.164,-0.672 -4.27,0 -7.864,1.121 -10.11,3.368 -2.472,2.246 -3.594,5.394 -3.594,9.66 l 0,2.922 -5.167,0 0,7.859 5.167,0 0,28.305 -0.226,0 z"
         style="fill:#a9a9a9;fill-opacity:1;fill-rule:nonzero;stroke:none"
         id="path4253" /><path
         d="m 123.59279,651.58132 6.961,0 1.125,-13.703 0,-5.39 -8.086,0 0,19.093 z"
         style="fill:#a9a9a9;fill-opacity:1;fill-rule:nonzero;stroke:none"
         id="path4255" /><path
         d="m 143.80779,655.39832 c 0.898,-0.672 1.796,-0.899 2.921,-0.899 3.145,0 4.493,1.348 4.493,4.27 l 11.23,0 c 0,-3.594 -1.348,-6.289 -4.269,-8.535 -2.918,-2.246 -6.739,-3.145 -11.454,-3.145 -4.492,0 -8.086,1.121 -10.785,3.145 -2.695,2.019 -4.043,4.941 -4.043,8.086 0,1.797 0.45,3.594 1.348,4.941 0.898,1.348 2.246,2.696 4.269,3.594 1.797,0.898 4.043,1.797 6.965,2.473 2.696,0.671 4.715,1.121 5.614,1.796 0.898,0.672 1.574,1.348 1.574,2.247 0,0.898 -0.449,1.796 -1.125,2.468 -0.672,0.676 -1.797,0.899 -3.367,0.899 -1.575,0 -2.922,-0.449 -4.043,-1.121 -1.125,-0.676 -1.575,-2.024 -1.575,-3.594 l -10.558,0 c 0,2.019 0.676,4.043 2.023,6.062 1.348,1.797 3.145,3.372 5.617,4.493 2.469,1.125 5.165,1.574 8.309,1.574 4.719,0 8.313,-1.125 11.231,-3.145 2.921,-2.023 4.492,-4.718 4.492,-8.086 0,-4.718 -2.696,-8.09 -8.086,-10.109 -1.571,-0.449 -3.594,-1.125 -5.614,-1.348 -2.023,-0.449 -3.593,-0.898 -4.718,-1.574 -1.121,-0.672 -1.571,-1.348 -1.571,-2.469 -0.226,-0.675 0.223,-1.347 1.122,-2.023 z"
         style="fill:#a9a9a9;fill-opacity:1;fill-rule:nonzero;stroke:none"
         id="path4257" /><path
         d="m 187.83479,646.86332 c -3.82,0 -6.738,1.574 -9.211,4.492 l 0,-19.094 -11.231,0 0,51.215 11.231,0 0,-25.832 c 0.898,-1.57 2.695,-2.246 4.941,-2.246 1.797,0 3.145,0.449 4.043,1.348 0.676,0.898 1.125,2.246 1.125,4.269 l 0,22.461 11.231,0 0,-22.687 c 0,-4.493 -1.125,-8.086 -3.145,-10.332 -2.023,-2.247 -4.941,-3.594 -8.984,-3.594 z"
         style="fill:#a9a9a9;fill-opacity:1;fill-rule:nonzero;stroke:none"
         id="path4259" /><path
         d="m 222.20179,646.86332 c -3.594,0 -6.516,0.676 -9.211,2.246 -2.695,1.574 -4.715,3.594 -6.062,6.515 -1.348,2.696 -2.024,6.063 -2.024,9.661 l 0,1.796 c 0.227,5.165 2.024,9.434 4.942,12.579 3.144,3.144 7.187,4.492 12.355,4.492 5.391,0 9.434,-1.574 12.578,-4.942 3.145,-3.371 4.719,-7.863 4.719,-13.476 l 0,-0.453 c 0,-5.84 -1.574,-10.332 -4.719,-13.7 -2.918,-2.921 -7.187,-4.718 -12.578,-4.718 z m 6.063,19.543 c 0,6.066 -2.02,9.211 -6.063,9.211 -2.023,0 -3.594,-0.676 -4.719,-2.246 -1.121,-1.575 -1.57,-4.043 -1.57,-7.414 l 0,-2.024 c 0.223,-5.613 2.246,-8.309 6.062,-8.309 4.043,0 6.29,3.145 6.29,9.661 l 0,1.121 z"
         style="fill:#a9a9a9;fill-opacity:1;fill-rule:nonzero;stroke:none"
         id="path4261" /><path
         d="m 263.98279,646.86332 c -3.593,0 -6.293,1.347 -8.539,4.043 l -0.222,-3.367 -10.559,0 0,49.867 11.23,0 0,-16.848 c 2.024,2.469 4.942,3.594 8.086,3.594 4.27,0 7.641,-1.574 10.11,-4.942 2.472,-3.371 3.82,-7.863 3.82,-13.476 l 0,-0.453 c 0,-5.614 -1.125,-10.332 -3.594,-13.477 -2.472,-3.144 -5.84,-4.941 -10.336,-4.941 l 0.004,0 z m 2.696,19.543 c 0,6.066 -2.024,9.211 -5.618,9.211 -2.695,0 -4.492,-0.899 -5.39,-2.922 l 0,-14.153 c 0.898,-1.796 2.695,-2.918 5.39,-2.918 3.821,0 5.618,3.145 5.618,9.661 l 0,1.121 z"
         style="fill:#a9a9a9;fill-opacity:1;fill-rule:nonzero;stroke:none"
         id="path4263" /><path
         d="m 306.88579,556.33932 c -2.246,-3.816 -4.942,-7.636 -7.637,-11.23 -1.348,-1.797 -2.695,-3.594 -4.043,-5.391 -4.27,-5.168 -8.988,-10.109 -13.93,-14.601 -1.57,-1.571 -3.367,-2.918 -5.164,-4.493 -3.371,-2.917 -6.965,-5.613 -10.781,-8.085 -1.797,-1.348 -3.82,-2.473 -5.617,-3.594 -21.113,-12.805 -45.824,-20.215 -72.555,-20.215 -2.246,0 -4.266,0 -6.512,0.223 -0.675,0 -1.125,0 -1.796,0 -1.575,0 -3.372,0.226 -4.942,0.449 -0.449,0 -0.898,0 -1.574,0.226 -2.02,0.223 -4.043,0.45 -6.289,0.899 -0.449,0 -0.899,0.222 -1.348,0.222 -1.574,0.227 -3.371,0.45 -4.941,0.899 -0.676,0.226 -1.125,0.226 -1.797,0.449 -1.797,0.449 -3.594,0.676 -5.391,1.125 -0.226,0 -0.449,0.223 -0.676,0.223 -2.019,0.449 -3.816,1.125 -5.839,1.574 -0.672,0.223 -1.121,0.449 -1.571,0.449 -1.574,0.449 -2.922,0.899 -4.269,1.571 -0.449,0.226 -1.121,0.449 -1.571,0.675 -1.8,0.672 -3.82,1.348 -5.617,2.246 -0.449,0.223 -0.675,0.223 -1.125,0.45 -1.57,0.671 -2.918,1.347 -4.492,2.019 -0.672,0.227 -1.121,0.676 -1.797,0.899 -1.347,0.675 -2.695,1.347 -4.043,2.023 -0.449,0.223 -0.898,0.449 -1.347,0.672 -1.797,0.898 -3.368,1.797 -4.942,2.922 -0.449,0.222 -1.121,0.672 -1.57,0.898 -1.125,0.672 -2.473,1.571 -3.594,2.246 -0.676,0.45 -1.125,0.672 -1.797,1.125 -1.574,1.121 -3.148,2.02 -4.496,3.145 -0.449,0.222 -0.672,0.449 -1.121,0.898 -1.348,0.899 -2.473,1.797 -3.594,2.918 -0.675,0.449 -1.125,0.899 -1.797,1.348 -1.125,0.898 -2.023,1.797 -3.144,2.695 -0.449,0.449 -0.899,0.899 -1.574,1.348 -1.348,1.348 -2.696,2.473 -4.043,3.82 -0.449,0.449 -0.899,0.899 -1.571,1.571 -0.898,0.898 -1.796,1.796 -2.695,2.695 -0.449,0.676 -1.125,1.125 -1.574,1.797 -0.899,1.125 -1.797,2.246 -2.918,3.371 -0.449,0.672 -1.125,1.347 -1.574,1.797 -0.899,1.121 -2.024,2.468 -2.922,3.593 -0.449,0.676 -0.899,1.348 -1.348,2.024 -0.672,0.898 -1.347,2.019 -2.019,2.918 -0.45,0.676 -0.899,1.347 -1.348,2.023 -0.898,1.571 -2.023,3.145 -2.922,4.492 -0.449,0.672 -0.672,1.348 -1.121,1.797 -0.676,1.121 -1.348,2.246 -1.797,3.145 -0.449,0.672 -0.898,1.57 -1.125,2.246 -0.672,1.121 -1.121,2.246 -1.797,3.367 -8.535,17.074 -13.699,36.391 -14.375,56.606 0,1.796 -0.226,3.593 -0.226,5.39 0,22.688 5.394,44.254 15.277,63.344 0.223,0.676 0.672,1.125 0.898,1.797 0.672,1.125 1.122,2.246 1.797,3.371 0.223,0.676 0.672,1.125 0.899,1.797 2.019,3.594 4.265,6.965 6.738,10.332 0.449,0.676 0.898,1.125 1.348,1.797 0.672,0.898 1.347,1.797 2.019,2.922 0.449,0.671 0.899,1.121 1.348,1.796 1.574,2.02 3.371,4.043 5.168,6.063 0,0.227 0.223,0.227 0.223,0.449 0.675,0.899 1.574,1.574 2.25,2.473 0.671,0.672 1.121,1.348 1.796,1.797 0.672,0.672 1.571,1.574 2.246,2.246 0.672,0.676 1.348,1.347 2.02,2.023 0.676,0.672 1.574,1.348 2.246,2.02 1.348,1.125 2.695,2.246 4.043,3.371 0.676,0.672 1.574,1.121 2.246,1.797 0.899,0.672 1.574,1.347 2.473,2.019 0.672,0.676 1.57,1.125 2.246,1.797 0.898,0.676 1.797,1.348 2.918,2.024 0.676,0.449 1.348,0.898 2.023,1.347 1.571,1.121 3.145,2.02 4.719,2.918 0.672,0.449 1.348,0.899 2.02,1.348 1.125,0.676 2.023,1.125 3.144,1.797 0.676,0.449 1.348,0.898 2.246,1.125 1.348,0.672 2.473,1.347 3.821,2.019 0.449,0.227 1.121,0.45 1.57,0.899 1.797,0.898 3.594,1.574 5.168,2.472 0.672,0.227 1.347,0.45 2.019,0.899 1.348,0.449 2.473,1.125 3.821,1.574 0.672,0.223 1.347,0.449 2.019,0.672 1.574,0.676 3.145,1.125 4.719,1.574 0.449,0 0.676,0.223 1.125,0.449 2.02,0.672 3.816,1.121 5.84,1.571 0.672,0.226 1.121,0.226 1.797,0.449 1.347,0.449 2.918,0.676 4.492,1.125 0.672,0.223 1.348,0.223 2.019,0.449 1.797,0.449 3.821,0.672 5.618,1.121 0.222,0 0.449,0 0.449,0 2.019,0.227 4.043,0.676 6.289,0.899 0.672,0 1.121,0.226 1.797,0.226 1.574,0.223 3.144,0.223 4.719,0.449 0.671,0 1.347,0 1.796,0 2.246,0 4.266,0.223 6.512,0.223 16.848,0 33.02,-2.918 48.07,-8.535 8.536,-3.145 16.622,-7.188 24.485,-11.68 13.476,-8.086 25.383,-18.644 35.265,-30.551 7.188,-8.535 13.254,-18.191 18.196,-28.3 0.898,-2.024 2.019,-4.043 2.695,-6.289 1.797,-4.27 3.367,-8.536 4.715,-12.805 4.043,-13.027 6.289,-27.18 6.289,-41.555 0.227,-26.953 -7.188,-51.664 -19.988,-73.004 z m -233.61,12.356 c -0.898,1.797 -2.023,3.816 -2.922,5.84 0.899,-2.024 2.024,-3.821 2.922,-5.84 z m -2.922,6.066 c -0.898,1.797 -1.57,3.817 -2.468,5.613 0.672,-1.796 1.57,-3.593 2.468,-5.613 z m -2.695,6.063 c -0.672,1.797 -1.57,3.82 -2.019,5.617 0.449,-1.797 1.347,-3.594 2.019,-5.617 z m -2.246,6.289 c -0.672,2.023 -1.348,3.82 -1.797,5.84 0.449,-2.02 1.125,-3.817 1.797,-5.84 z m -2.02,6.289 c -0.675,2.023 -1.125,4.043 -1.574,6.066 0.449,-2.023 0.899,-4.043 1.574,-6.066 z m -1.574,6.515 c -0.449,2.02 -0.898,4.266 -1.347,6.29 0.449,-2.247 0.675,-4.27 1.347,-6.29 z m 239,90.524 c -2.019,3.594 -4.043,7.187 -6.511,10.558 -1.125,1.797 -2.247,3.368 -3.598,5.165 -23.582,31.449 -61.098,51.89 -103.324,51.89 -2.024,0 -4.043,0 -5.84,-0.226 -0.676,0 -1.125,0 -1.797,0 -1.574,0 -3.145,-0.227 -4.492,-0.45 -0.449,0 -0.899,0 -1.348,-0.226 -2.023,-0.223 -3.82,-0.449 -5.617,-0.672 -0.449,0 -0.899,-0.227 -1.125,-0.227 -1.57,-0.222 -3.145,-0.449 -4.492,-0.898 -0.672,0 -1.121,-0.223 -1.797,-0.449 -1.57,-0.449 -3.145,-0.672 -4.715,-1.121 -0.227,0 -0.449,-0.227 -0.898,-0.227 -1.797,-0.449 -3.594,-0.898 -5.391,-1.57 -0.449,-0.227 -1.125,-0.449 -1.574,-0.449 -1.348,-0.45 -2.696,-0.899 -4.043,-1.348 -0.449,-0.227 -1.121,-0.449 -1.571,-0.676 -1.796,-0.672 -3.371,-1.348 -5.168,-2.019 -0.449,-0.227 -0.675,-0.227 -1.125,-0.45 -1.347,-0.675 -2.695,-1.125 -4.042,-1.797 -0.672,-0.226 -1.122,-0.449 -1.797,-0.898 -1.121,-0.676 -2.469,-1.125 -3.594,-1.797 -0.449,-0.226 -0.899,-0.449 -1.348,-0.676 -1.57,-0.898 -3.144,-1.797 -4.492,-2.695 -0.449,-0.226 -1.121,-0.672 -1.57,-0.898 -1.125,-0.676 -2.024,-1.348 -3.145,-2.024 -0.676,-0.449 -1.125,-0.672 -1.797,-1.121 -1.347,-0.898 -2.472,-1.797 -3.593,-2.695 -0.45,-0.449 -1.125,-0.899 -1.575,-1.125 -1.121,-0.899 -2.246,-1.571 -3.144,-2.469 -0.676,-0.449 -1.125,-0.898 -1.797,-1.348 -0.898,-0.675 -1.797,-1.574 -2.473,-2.246 -0.449,-0.449 -1.121,-0.898 -1.57,-1.347 -1.125,-1.125 -2.473,-2.246 -3.594,-3.371 -0.449,-0.45 -1.125,-1.122 -1.574,-1.571 -0.672,-0.676 -1.57,-1.574 -2.246,-2.246 -0.449,-0.676 -1.121,-1.125 -1.57,-1.797 -0.676,-0.898 -1.575,-1.574 -2.247,-2.472 -0.675,-0.672 -1.347,-1.571 -2.023,-2.469 -0.898,-0.899 -1.57,-2.024 -2.469,-3.149 -0.449,-0.671 -0.898,-1.347 -1.574,-2.019 -0.672,-0.899 -1.121,-1.574 -1.797,-2.473 -0.449,-0.672 -0.898,-1.347 -1.347,-2.019 -0.899,-1.125 -1.571,-2.473 -2.247,-3.594 -0.449,-0.899 -1.125,-1.797 -1.574,-2.473 -0.449,-0.898 -1.121,-1.797 -1.57,-2.695 -0.449,-0.672 -0.899,-1.57 -1.348,-2.246 -0.449,-0.899 -0.898,-1.797 -1.347,-2.695 -0.45,-0.672 -0.676,-1.348 -1.125,-2.247 l 48.746,0 0,-51.886 -61.098,0 c 0.223,4.715 0.449,9.207 1.121,13.703 -0.672,-4.496 -0.898,-8.988 -1.121,-13.703 0,-1.125 0,-2.473 0,-3.594 0,-1.797 0,-3.371 0.223,-5.168 0,-1.348 0.226,-2.695 0.226,-4.043 0.223,-2.246 0.45,-4.492 0.672,-6.738 -0.222,2.246 -0.449,4.492 -0.672,6.738 l 60.871,0 0,-51.215 -46.496,0 c 0.672,-1.121 1.121,-2.246 1.797,-3.367 0.223,-0.449 0.449,-0.676 0.672,-1.125 2.023,-3.367 4.047,-6.512 6.293,-9.656 0.223,-0.449 0.449,-0.676 0.898,-1.125 0.672,-0.899 1.348,-2.024 2.247,-2.922 0.222,-0.223 0.222,-0.449 0.449,-0.449 1.347,-1.797 2.918,-3.594 4.492,-5.391 0.449,-0.449 0.672,-0.672 1.121,-1.121 0.676,-0.898 1.574,-1.797 2.246,-2.473 0.449,-0.449 0.676,-0.898 1.125,-1.121 1.348,-1.347 2.695,-2.695 4.043,-4.043 0.449,-0.449 0.899,-0.898 1.348,-1.347 0.672,-0.676 1.57,-1.348 2.246,-2.024 0.449,-0.449 1.121,-0.898 1.797,-1.57 1.121,-0.899 2.019,-1.797 3.144,-2.695 0.899,-0.676 1.797,-1.348 2.696,-2.024 0.675,-0.449 1.574,-1.121 2.246,-1.57 0.675,-0.449 1.574,-1.125 2.246,-1.574 0.676,-0.45 1.347,-0.899 2.246,-1.575 1.347,-0.898 2.695,-1.797 4.043,-2.468 0.676,-0.45 1.347,-0.676 2.023,-1.125 0.899,-0.45 1.797,-1.122 2.918,-1.571 0.676,-0.449 1.348,-0.675 2.024,-1.125 1.347,-0.672 2.695,-1.347 4.043,-2.019 0.672,-0.227 1.121,-0.676 1.796,-0.899 1.122,-0.675 2.469,-1.125 3.821,-1.574 0.672,-0.223 1.347,-0.449 1.797,-0.898 1.347,-0.45 2.695,-1.121 4.043,-1.571 0.449,-0.226 0.898,-0.226 1.121,-0.449 1.574,-0.676 3.371,-1.125 5.168,-1.797 0.449,-0.226 1.121,-0.449 1.57,-0.449 1.348,-0.449 2.695,-0.898 4.043,-1.125 0.449,-0.223 0.898,-0.223 1.348,-0.449 1.797,-0.449 3.593,-0.899 5.39,-1.348 0.449,0 0.899,-0.222 1.348,-0.222 1.574,-0.227 2.922,-0.45 4.496,-0.899 0.449,0 0.898,-0.227 1.57,-0.227 1.797,-0.222 3.821,-0.449 5.618,-0.671 0.222,0 0.671,0 0.898,0 1.57,-0.227 3.367,-0.227 4.941,-0.45 0.45,0 1.121,0 1.571,0 2.023,0 3.82,-0.226 5.84,-0.226 15.5,0 30.55,2.695 44.253,7.863 7.86,2.918 15.497,6.512 22.461,10.781 1.797,1.121 3.594,2.246 5.168,3.368 13.7,9.211 25.606,21.117 34.817,34.82 1.121,1.797 2.246,3.367 3.367,5.164 5.391,8.762 9.66,18.418 12.805,28.527 1.347,4.043 2.246,8.086 3.144,12.356 0.899,4.265 1.57,8.535 2.02,12.804 0.449,4.266 0.675,8.758 0.675,13.25 -0.449,22.465 -6.066,43.352 -15.949,61.774 z m -230.015,-6.067 c -0.899,-2.019 -1.797,-3.816 -2.696,-5.839 0.899,1.796 1.797,3.82 2.696,5.839 z m -2.696,-6.511 c -0.672,-1.797 -1.57,-3.594 -2.019,-5.617 0.449,2.023 1.121,3.82 2.019,5.617 z m -2.468,-6.289 c -0.676,-1.797 -1.348,-3.821 -1.797,-5.617 0.672,2.023 1.121,3.82 1.797,5.617 z m -2.024,-6.067 c -0.672,-2.023 -1.121,-3.82 -1.57,-5.84 0.449,1.797 1.121,3.817 1.57,5.84 z m -1.57,-6.289 c -0.449,-2.023 -0.899,-4.043 -1.348,-6.289 0.449,2.02 0.899,4.266 1.348,6.289 z m -1.348,-6.515 c -0.449,-2.246 -0.676,-4.266 -1.125,-6.512 0.227,2.246 0.676,4.492 1.125,6.512 z m -0.226,-46.27 c -0.45,2.246 -0.672,4.266 -0.899,6.512 0,-2.246 0.449,-4.492 0.899,-6.512 z"
         style="fill:#a9a9a9;fill-opacity:1;fill-rule:nonzero;stroke:none"
         id="path4265" /><path
         d="m 187.04979,487.16032 c -78.278,0 -141.735,63.457 -141.735,141.734 0,78.273 63.457,141.73 141.735,141.73 37.59,0 73.64,-14.929 100.222,-41.511 26.579,-26.578 41.512,-62.629 41.512,-100.219 0,-37.594 -14.933,-73.645 -41.512,-100.223 -26.582,-26.578 -62.632,-41.511 -100.222,-41.511 z m 0,17.707 c 32.894,0 64.441,13.066 87.699,36.324 23.262,23.262 36.328,54.808 36.328,87.703 0,32.895 -13.066,64.441 -36.328,87.699 -23.258,23.258 -54.805,36.324 -87.699,36.324 -68.5,0 -124.028,-55.527 -124.028,-124.023 0,-68.5 55.528,-124.027 124.028,-124.027 z"
         style="fill:#a9a9a9;fill-opacity:1;fill-rule:nonzero;stroke:none"
         id="path4267" /></g></g></svg>