<?xml version="1.0" encoding="UTF-8" standalone="no"?>
<svg
   xmlns:dc="http://purl.org/dc/elements/1.1/"
   xmlns:cc="http://creativecommons.org/ns#"
   xmlns:rdf="http://www.w3.org/1999/02/22-rdf-syntax-ns#"
   xmlns:svg="http://www.w3.org/2000/svg"
   xmlns="http://www.w3.org/2000/svg"
   width="112.71281mm"
   height="89.968849mm"
   viewBox="0 0 112.71281 89.968849"
   version="1.1"
   id="svg1076">
  <defs
     id="defs1070" />
  <metadata
     id="metadata1073">
    <rdf:RDF>
      <cc:Work
         rdf:about="">
        <dc:format>image/svg+xml</dc:format>
        <dc:type
           rdf:resource="http://purl.org/dc/dcmitype/StillImage" />
        <dc:title></dc:title>
      </cc:Work>
    </rdf:RDF>
  </metadata>
  <g
     id="g865">
    <circle
       r="28.883026"
       cy="33.116383"
       cx="56.356403"
       id="circle936"
       style="opacity:1;fill:#f73859;fill-opacity:1;stroke:none;stroke-width:0.02645833;stroke-miterlimit:4;stroke-dasharray:none;stroke-opacity:1" />
    <path
       style="fill:#ffffff;fill-opacity:1;stroke-width:0.69420069"
       d="M 231.55664 34.058594 L 203.33203 62.283203 C 190.71657 74.898669 190.71657 95.320089 203.33203 107.93555 L 231.55664 136.16016 L 231.55664 34.058594 z M 194.42578 114.11914 L 194.47461 216.26953 L 222.65039 188.09375 C 235.31494 175.4292 235.26586 154.96116 222.65039 142.3457 L 194.42578 114.11914 z "
       transform="scale(0.26458334)"
       id="path938" />
    <g
       aria-label="strof shop"
       style="font-style:normal;font-weight:normal;font-size:21.05765152px;line-height:1.25;font-family:sans-serif;letter-spacing:0px;word-spacing:0px;fill:#232931;fill-opacity:1;stroke:none;stroke-width:0.52644128"
       id="text948">
      <path
         d="m 19.541499,79.307922 q 0,-0.370154 -0.359872,-0.678615 -0.34959,-0.318744 -1.573154,-0.853411 -1.79936,-0.730026 -2.477976,-1.511462 -0.668334,-0.781437 -0.668334,-1.943309 0,-1.460052 1.04877,-2.406001 1.059052,-0.956232 2.79672,-0.956232 1.830206,0 2.930386,0.94595 1.10018,0.945949 1.10018,2.539668 h -2.909822 q 0,-1.357232 -1.131026,-1.357232 -0.462693,0 -0.760873,0.287898 -0.298179,0.287897 -0.298179,0.802 0,0.370154 0.329026,0.658052 0.329025,0.277615 1.55259,0.802 1.778796,0.658052 2.508822,1.470334 0.740308,0.802001 0.740308,2.087258 0,1.490898 -1.120744,2.395719 -1.120744,0.904821 -2.940668,0.904821 -1.223565,0 -2.159232,-0.472975 -0.935667,-0.483256 -1.470334,-1.336667 -0.524385,-0.853411 -0.524385,-1.840488 h 2.765873 q 0.02056,0.760872 0.34959,1.141308 0.339308,0.380436 1.10018,0.380436 1.172154,0 1.172154,-1.059052 z"
         style="font-style:normal;font-variant:normal;font-weight:bold;font-stretch:normal;font-family:'Roboto Condensed';-inkscape-font-specification:'Roboto Condensed, Bold';fill:#232931;fill-opacity:1;stroke-width:0.52644128"
         id="path827" />
      <path
         d="m 27.561503,68.429507 v 2.735027 h 1.490898 v 2.190078 h -1.490898 v 5.521464 q 0,0.658052 0.174795,0.904821 0.185077,0.246769 0.69918,0.246769 0.421564,0 0.688898,-0.07197 l -0.02057,2.262052 q -0.740308,0.277616 -1.604,0.277616 -2.817284,0 -2.84813,-3.228566 v -5.912182 h -1.285257 v -2.190078 h 1.285257 v -2.735027 z"
         style="font-style:normal;font-variant:normal;font-weight:bold;font-stretch:normal;font-family:'Roboto Condensed';-inkscape-font-specification:'Roboto Condensed, Bold';fill:#232931;fill-opacity:1;stroke-width:0.52644128"
         id="path829" />
      <path
         d="m 36.136738,73.971535 -0.966513,-0.08226 q -1.192718,0 -1.614283,1.048769 v 7.351671 H 30.635838 V 71.164534 h 2.745309 l 0.08226,1.203 q 0.688898,-1.408642 1.90218,-1.408642 0.493539,0 0.802001,0.133667 z"
         style="font-style:normal;font-variant:normal;font-weight:bold;font-stretch:normal;font-family:'Roboto Condensed';-inkscape-font-specification:'Roboto Condensed, Bold';fill:#232931;fill-opacity:1;stroke-width:0.52644128"
         id="path831" />
      <path
         d="m 36.918175,76.367254 q 0,-2.529386 1.192719,-3.968874 1.192718,-1.439488 3.30054,-1.439488 2.128385,0 3.321104,1.439488 1.192718,1.439488 1.192718,3.989438 v 0.709462 q 0,2.539668 -1.182436,3.968874 -1.182437,1.429206 -3.310822,1.429206 -2.138668,0 -3.331387,-1.429206 -1.182436,-1.439488 -1.182436,-3.989438 z m 2.920104,0.730026 q 0,2.981797 1.593719,2.981797 1.470334,0 1.583436,-2.488258 l 0.01028,-1.223565 q 0,-1.521744 -0.421564,-2.25177 -0.421564,-0.740308 -1.192718,-0.740308 -0.740308,0 -1.161873,0.740308 -0.411282,0.730026 -0.411282,2.25177 z"
         style="font-style:normal;font-variant:normal;font-weight:bold;font-stretch:normal;font-family:'Roboto Condensed';-inkscape-font-specification:'Roboto Condensed, Bold';fill:#232931;fill-opacity:1;stroke-width:0.52644128"
         id="path833" />
      <path
         d="m 48.403232,82.289719 v -8.935107 h -1.34695 v -2.190078 h 1.34695 v -0.99736 q 0.01028,-1.840488 0.966513,-2.858412 0.966513,-1.028205 2.663052,-1.028205 0.514103,0 1.316104,0.205641 l -0.02056,2.323745 q -0.29818,-0.09254 -0.709462,-0.09254 -1.295539,0 -1.295539,1.542309 v 0.904821 h 1.737667 v 2.190078 h -1.737667 v 8.935107 z"
         style="font-style:normal;font-variant:normal;font-weight:bold;font-stretch:normal;font-family:'Roboto Condensed';-inkscape-font-specification:'Roboto Condensed, Bold';fill:#232931;fill-opacity:1;stroke-width:0.52644128"
         id="path835" />
      <path
         d="m 64.412395,79.307922 q 0,-0.370154 -0.359872,-0.678615 -0.34959,-0.318744 -1.573155,-0.853411 -1.79936,-0.730026 -2.477975,-1.511462 -0.668334,-0.781437 -0.668334,-1.943309 0,-1.460052 1.04877,-2.406001 1.059051,-0.956232 2.796719,-0.956232 1.830206,0 2.930386,0.94595 1.10018,0.945949 1.10018,2.539668 h -2.909822 q 0,-1.357232 -1.131026,-1.357232 -0.462693,0 -0.760872,0.287898 -0.29818,0.287897 -0.29818,0.802 0,0.370154 0.329026,0.658052 0.329026,0.277615 1.55259,0.802 1.778796,0.658052 2.508822,1.470334 0.740308,0.802001 0.740308,2.087258 0,1.490898 -1.120744,2.395719 -1.120744,0.904821 -2.940668,0.904821 -1.223565,0 -2.159232,-0.472975 -0.935667,-0.483256 -1.470334,-1.336667 -0.524385,-0.853411 -0.524385,-1.840488 h 2.765873 q 0.02056,0.760872 0.34959,1.141308 0.339308,0.380436 1.10018,0.380436 1.172155,0 1.172155,-1.059052 z"
         style="font-style:normal;font-variant:normal;font-weight:bold;font-stretch:normal;font-family:'Roboto Condensed';-inkscape-font-specification:'Roboto Condensed, Bold';fill:#232931;fill-opacity:1;stroke-width:0.52644128"
         id="path837" />
      <path
         d="m 71.887447,72.141329 q 0.945949,-1.182437 2.323744,-1.182437 1.521745,0 2.313463,1.069334 0.791718,1.069334 0.802,3.187438 v 7.074055 H 74.40655 V 75.24651 q 0,-0.976795 -0.308461,-1.408642 -0.29818,-0.442128 -0.976796,-0.442128 -0.791718,0 -1.233846,0.730026 v 8.163953 H 68.977625 V 66.49648 h 2.909822 z"
         style="font-style:normal;font-variant:normal;font-weight:bold;font-stretch:normal;font-family:'Roboto Condensed';-inkscape-font-specification:'Roboto Condensed, Bold';fill:#232931;fill-opacity:1;stroke-width:0.52644128"
         id="path839" />
      <path
         d="m 79.074602,76.367254 q 0,-2.529386 1.192719,-3.968874 1.192718,-1.439488 3.30054,-1.439488 2.128386,0 3.321104,1.439488 1.192719,1.439488 1.192719,3.989438 v 0.709462 q 0,2.539668 -1.182437,3.968874 -1.182436,1.429206 -3.310822,1.429206 -2.138668,0 -3.331386,-1.429206 -1.182437,-1.439488 -1.182437,-3.989438 z m 2.920104,0.730026 q 0,2.981797 1.593719,2.981797 1.470334,0 1.583437,-2.488258 l 0.01028,-1.223565 q 0,-1.521744 -0.421564,-2.25177 -0.421565,-0.740308 -1.192719,-0.740308 -0.740308,0 -1.161872,0.740308 -0.411283,0.730026 -0.411283,2.25177 z"
         style="font-style:normal;font-variant:normal;font-weight:bold;font-stretch:normal;font-family:'Roboto Condensed';-inkscape-font-specification:'Roboto Condensed, Bold';fill:#232931;fill-opacity:1;stroke-width:0.52644128"
         id="path841" />
      <path
         d="m 98.559101,77.076716 q 0,2.621924 -0.904821,4.020284 -0.894539,1.39836 -2.673335,1.39836 -1.357231,0 -2.179796,-1.10018 v 5.171874 h -2.909822 v -15.40252 h 2.693899 l 0.102821,1.017923 q 0.832846,-1.223565 2.272334,-1.223565 1.778796,0 2.673335,1.29554 0.904821,1.295539 0.925385,3.968873 z m -2.89954,-0.730026 q 0,-1.614283 -0.359872,-2.282616 -0.34959,-0.668334 -1.192719,-0.668334 -0.894539,0 -1.305821,0.75059 v 5.213003 q 0.390718,0.719744 1.326385,0.719744 0.863693,0 1.192719,-0.730027 0.339308,-0.730026 0.339308,-2.272334 z"
         style="font-style:normal;font-variant:normal;font-weight:bold;font-stretch:normal;font-family:'Roboto Condensed';-inkscape-font-specification:'Roboto Condensed, Bold';fill:#232931;fill-opacity:1;stroke-width:0.52644128"
         id="path843" />
    </g>
  </g>
</svg>
