<?xml version="1.0" encoding="UTF-8"?>
<svg class="svg-inline--fa fa-envelope-square fa-w-14" aria-hidden="true" data-icon="envelope-square" data-prefix="fas" focusable="false" role="img" version="1.1" viewBox="0 0 448 448" xmlns="http://www.w3.org/2000/svg" xmlns:cc="http://creativecommons.org/ns#" xmlns:dc="http://purl.org/dc/elements/1.1/" xmlns:rdf="http://www.w3.org/1999/02/22-rdf-syntax-ns#">
<metadata>
<rdf:RDF>
<cc:Work rdf:about="">
<dc:format>image/svg+xml</dc:format>
<dc:type rdf:resource="http://purl.org/dc/dcmitype/StillImage"/>
<dc:title/>
</cc:Work>
</rdf:RDF>
</metadata>
<path d="m0 0v48 352 48h48 352 48v-48-352-48h-48-352-48zm88 96h272c13.255 0 24 10.745 24 24v25.168c-24.371 18.969-23.434 19.124-114.12 84.938-10.5 7.655-31.392 26.119-45.883 25.893-14.503 0.218-35.367-18.227-45.883-25.895-90.688-65.817-89.764-65.982-114.12-84.936v-25.168c0-13.255 10.745-24 24-24zm-24 89.775c13.958 10.794 33.329 25.235 95.303 70.213 14.162 10.341 37.974 32.145 64.693 32.01 26.887 0.134 51.038-22.039 64.721-32.023 61.958-44.965 81.325-59.406 95.283-70.199v142.22c0 13.255-10.745 24-24 24h-272c-13.255 0-24-10.745-24-24v-142.22z" fill="#fff"/>
</svg>
