<?xml version="1.0" encoding="UTF-8"?>
<svg width="360" height="868.55" version="1.1" viewBox="0 0 95.25 229.81" xmlns="http://www.w3.org/2000/svg" xmlns:cc="http://creativecommons.org/ns#" xmlns:dc="http://purl.org/dc/elements/1.1/" xmlns:rdf="http://www.w3.org/1999/02/22-rdf-syntax-ns#">
<metadata>
<rdf:RDF>
<cc:Work rdf:about="">
<dc:format>image/svg+xml</dc:format>
<dc:type rdf:resource="http://purl.org/dc/dcmitype/StillImage"/>
<dc:title/>
</cc:Work>
</rdf:RDF>
</metadata>
<path d="m95.25 32.717a72.11 24.037 0 0 1-47.625 6.0286 72.11 24.037 0 0 1-47.625-6.0162v136.6h95.25v-121.96z" fill="#232931"/>
<path d="m60.472 108.86a60.472 60.472 0 0 0-60.472 60.472 60.472 60.472 0 0 0 60.472 60.472 60.472 60.472 0 0 0 34.778-11.092v-98.808a60.472 60.472 0 0 0-34.778-11.043z" fill="#dd1438"/>
<path d="m25.304 135.76 4.4307 6.3e-4v-12.801l-4.4307 6.3e-4zm9.2647 4.32c1.0767 1.076 2.4939 1.752 4.0734 1.752l56.608 1e-5 6.3e-4 -24.795-1.6055-2e-3 -55.117 2e-3 -0.11198 0.0163c-3.1997 0.45709-5.9066 2.9564-5.9066 6.1155l-3e-6 12.645 0.01951 0.11387c0.22855 1.5999 0.96284 3.076 2.0395 4.1521zm2.3138-2.4044c-0.56878-0.56942-1.0322-1.3491-1.1601-2.1729l-2e-6 -12.335c-7e-6 -1.0119 1.4584-2.6645 3.1191-2.9203l7.9053-2e-5 6.28e-4 18.375h-8.1053c-0.50921 0-1.1827-0.36926-1.7596-0.94679zm27.096 0.94679-6.3e-4 -18.374 28.06 1e-3 0.0011 18.373z" color="#000000" color-rendering="auto" dominant-baseline="auto" fill="#232931" image-rendering="auto" shape-rendering="auto" solid-color="#000000" style="font-feature-settings:normal;font-variant-alternates:normal;font-variant-caps:normal;font-variant-ligatures:normal;font-variant-numeric:normal;font-variant-position:normal;isolation:auto;mix-blend-mode:normal;shape-padding:0;text-decoration-color:#000000;text-decoration-line:none;text-decoration-style:solid;text-indent:0;text-orientation:mixed;text-transform:none;white-space:normal"/>
<path d="m9.4113 123.39c-2.819 0.03672-6.0171 0.91819-9.4113 3.268v8.2155c1.1315-0.48928 2.2942-1.1278 3.4814-1.9498 6.6143-4.5256 11.14-0.69591 11.488-0.34779 1.3925 1.3925 3.4811 1.3925 4.8736 0 0.69624-0.69624 1.0444-1.7408 1.0444-2.4371s-0.3478-1.7405-1.3922-2.7848c-1.7406-1.7406-5.3853-4.0253-10.084-3.9641z" fill="#dd1438" stroke-width="4.9232"/>
</svg>
