<?xml version="1.0" encoding="utf-8"?>
<!-- Generator: Adobe Illustrator 23.1.0, SVG Export Plug-In . SVG Version: 6.00 Build 0)  -->
<svg version="1.1" id="Layer_1" xmlns="http://www.w3.org/2000/svg" xmlns:xlink="http://www.w3.org/1999/xlink" x="0px" y="0px"
	 viewBox="0 0 593.7 172.8" style="enable-background:new 0 0 593.7 172.8;" xml:space="preserve">
<path d="M0,151.9h57.4c25.8,0,46.6-20.9,46.6-46.6V47.8"/>
<path d="M244.2,20.9h-57.5c-25.7,0-46.5,20.8-46.5,46.5v57.5"/>
<g>
	<path d="M220.3,137.9c0-1.2-0.6-2.2-1.7-3.2c-1.1-1-3.6-2.3-7.4-4c-5.6-2.3-9.5-4.7-11.6-7.1c-2.1-2.5-3.2-5.5-3.2-9.1
		c0-4.6,1.7-8.4,5-11.3c3.3-3,7.7-4.5,13.1-4.5c5.7,0,10.3,1.5,13.8,4.5c3.5,3,5.2,6.9,5.2,11.9h-13.7c0-4.3-1.8-6.4-5.3-6.4
		c-1.5,0-2.6,0.5-3.6,1.4c-0.9,0.9-1.4,2.2-1.4,3.8c0,1.2,0.5,2.2,1.5,3.1c1,0.9,3.5,2.2,7.3,3.8c5.6,2.1,9.5,4.4,11.8,6.9
		c2.3,2.5,3.5,5.8,3.5,9.8c0,4.7-1.8,8.4-5.3,11.3c-3.5,2.8-8.1,4.3-13.8,4.3c-3.8,0-7.2-0.8-10.2-2.3c-2.9-1.5-5.2-3.6-6.9-6.3
		c-1.7-2.7-2.5-5.6-2.5-8.7h13c0.1,2.4,0.6,4.2,1.7,5.4c1,1.2,2.8,1.8,5.2,1.8C218.4,142.9,220.3,141.2,220.3,137.9z"/>
	<path d="M258,86.7v12.9h7v10.3h-7v26c0,2.1,0.3,3.5,0.8,4.3c0.6,0.8,1.7,1.2,3.3,1.2c1.3,0,2.4-0.1,3.2-0.3l-0.1,10.6
		c-2.3,0.9-4.8,1.3-7.5,1.3c-8.8,0-13.3-5.1-13.4-15.2v-27.8h-6V99.6h6V86.7H258z"/>
	<path d="M298.3,112.8l-4.5-0.4c-3.7,0-6.3,1.6-7.6,4.9v34.6h-13.7V99.6h12.9l0.4,5.7c2.2-4.4,5.1-6.6,8.9-6.6
		c1.5,0,2.8,0.2,3.8,0.6L298.3,112.8z"/>
	<path d="M302,124c0-7.9,1.9-14.2,5.6-18.7c3.7-4.5,8.9-6.8,15.5-6.8c6.7,0,11.9,2.3,15.6,6.8c3.7,4.5,5.6,10.8,5.6,18.8v3.3
		c0,8-1.9,14.2-5.6,18.7c-3.7,4.5-8.9,6.7-15.6,6.7c-6.7,0-11.9-2.3-15.6-6.7s-5.6-10.7-5.6-18.7V124z M315.8,127.5
		c0,9.4,2.5,14,7.5,14c4.6,0,7.1-3.9,7.4-11.7l0-5.8c0-4.8-0.7-8.3-2-10.6c-1.3-2.3-3.2-3.5-5.6-3.5c-2.3,0-4.1,1.2-5.4,3.5
		c-1.3,2.3-2,5.8-2,10.6V127.5z"/>
	<path d="M356,151.9v-42.1h-6.3V99.6h6.3v-4.7c0-5.8,1.6-10.3,4.6-13.5c3-3.2,7.2-4.8,12.5-4.8c1.6,0,3.7,0.3,6.2,1l-0.1,10.9
		c-0.9-0.3-2-0.4-3.3-0.4c-4.1,0-6.1,2.4-6.1,7.3v4.3h8.2v10.3h-8.2v42.1H356z"/>
	<path d="M431.4,137.9c0-1.2-0.6-2.2-1.7-3.2c-1.1-1-3.6-2.3-7.4-4c-5.6-2.3-9.5-4.7-11.6-7.1c-2.1-2.5-3.2-5.5-3.2-9.1
		c0-4.6,1.7-8.4,5-11.3c3.3-3,7.7-4.5,13.1-4.5c5.7,0,10.3,1.5,13.8,4.5s5.2,6.9,5.2,11.9h-13.7c0-4.3-1.8-6.4-5.3-6.4
		c-1.5,0-2.6,0.5-3.6,1.4c-0.9,0.9-1.4,2.2-1.4,3.8c0,1.2,0.5,2.2,1.5,3.1c1,0.9,3.5,2.2,7.3,3.8c5.6,2.1,9.5,4.4,11.8,6.9
		c2.3,2.5,3.5,5.8,3.5,9.8c0,4.7-1.8,8.4-5.3,11.3c-3.5,2.8-8.1,4.3-13.8,4.3c-3.8,0-7.2-0.8-10.2-2.3c-2.9-1.5-5.2-3.6-6.9-6.3
		c-1.7-2.7-2.5-5.6-2.5-8.7h13c0.1,2.4,0.6,4.2,1.7,5.4c1,1.2,2.8,1.8,5.2,1.8C429.5,142.9,431.4,141.2,431.4,137.9z"/>
	<path d="M466.5,104.2c3-3.7,6.6-5.6,10.9-5.6c4.8,0,8.4,1.7,10.9,5c2.5,3.4,3.7,8.4,3.8,15v33.3h-13.7v-33.1c0-3.1-0.5-5.3-1.4-6.7
		c-1-1.4-2.5-2.1-4.6-2.1c-2.5,0-4.4,1.1-5.8,3.4v38.4h-13.7V77.6h13.7V104.2z"/>
	<path d="M500.3,124c0-7.9,1.9-14.2,5.6-18.7c3.7-4.5,8.9-6.8,15.5-6.8c6.7,0,11.9,2.3,15.6,6.8c3.7,4.5,5.6,10.8,5.6,18.8v3.3
		c0,8-1.9,14.2-5.6,18.7c-3.7,4.5-8.9,6.7-15.6,6.7c-6.7,0-11.9-2.3-15.6-6.7c-3.7-4.5-5.6-10.7-5.6-18.7V124z M514.1,127.5
		c0,9.4,2.5,14,7.5,14c4.6,0,7.1-3.9,7.4-11.7l0-5.8c0-4.8-0.7-8.3-2-10.6c-1.3-2.3-3.2-3.5-5.6-3.5c-2.3,0-4.1,1.2-5.4,3.5
		c-1.3,2.3-2,5.8-2,10.6V127.5z"/>
	<path d="M592,127.4c0,8.2-1.4,14.5-4.2,18.9c-2.8,4.4-7,6.6-12.6,6.6c-4.3,0-7.7-1.7-10.3-5.2V172h-13.7V99.6h12.7l0.5,4.8
		c2.6-3.8,6.2-5.8,10.7-5.8c5.6,0,9.8,2,12.6,6.1c2.8,4.1,4.3,10.3,4.3,18.7V127.4z M578.3,123.9c0-5.1-0.6-8.6-1.7-10.7
		c-1.1-2.1-3-3.1-5.6-3.1c-2.8,0-4.9,1.2-6.1,3.5v24.5c1.2,2.3,3.3,3.4,6.2,3.4c2.7,0,4.6-1.1,5.6-3.4c1-2.3,1.6-5.9,1.6-10.7V123.9
		z"/>
</g>
</svg>
