<?xml version="1.0" encoding="UTF-8" standalone="no"?>
<svg
   xmlns:dc="http://purl.org/dc/elements/1.1/"
   xmlns:cc="http://creativecommons.org/ns#"
   xmlns:rdf="http://www.w3.org/1999/02/22-rdf-syntax-ns#"
   xmlns:svg="http://www.w3.org/2000/svg"
   xmlns="http://www.w3.org/2000/svg"
   id="svg4"
   xml:space="preserve"
   width="100%"
   viewBox="0 0 512 512"
   version="1.1"
   style="fill-rule:evenodd;clip-rule:evenodd;stroke-linejoin:round;stroke-miterlimit:2;"
   height="100%"><metadata
     id="metadata10"><rdf:RDF><cc:Work
         rdf:about=""><dc:format>image/svg+xml</dc:format><dc:type
           rdf:resource="http://purl.org/dc/dcmitype/StillImage" /><dc:title></dc:title></cc:Work></rdf:RDF></metadata><defs
     id="defs8" /><path
     style="fill:#f8f8ff;fill-opacity:1"
     id="path2"
     d="M256,0c141.29,0 256,114.71 256,256c0,141.29 -114.71,256 -256,256c-141.29,0 -256,-114.71 -256,-256c0,-141.29 114.71,-256 256,-256Zm153.315,178.978c-3.68,-13.769 -14.522,-24.61 -28.29,-28.29c-24.958,-6.688 -125.025,-6.688 -125.025,-6.688c0,0 -100.067,0 -125.025,6.688c-13.765,3.68 -24.61,14.521 -28.29,28.29c-6.685,24.955 -6.685,77.024 -6.685,77.024c0,0 0,52.067 6.685,77.02c3.68,13.769 14.525,24.614 28.29,28.293c24.958,6.685 125.025,6.685 125.025,6.685c0,0 100.067,0 125.025,-6.685c13.768,-3.679 24.61,-14.524 28.29,-28.293c6.685,-24.953 6.685,-77.02 6.685,-77.02c0,0 0,-52.069 -6.685,-77.024Zm-185.316,125.025l0,-96.002l83.137,48.001l-83.137,48.001Z" /></svg>